<svg xmlns="http://www.w3.org/2000/svg" xmlns:xlink="http://www.w3.org/1999/xlink" viewBox="0 0 600 800"><defs><style>.cls-1{fill:none;}.cls-2,.cls-22,.cls-23{opacity:0.6;}.cls-2{fill:url(#Безымянный_градиент_20);}.cls-3{clip-path:url(#clip-path);}.cls-4{fill:url(#Безымянный_градиент_54);}.cls-5{fill:url(#Безымянный_градиент_54-2);}.cls-6{fill:url(#Безымянный_градиент_68);}.cls-7{fill:url(#Безымянный_градиент_57);}.cls-8{fill:url(#Безымянный_градиент_72);}.cls-9{fill:url(#Безымянный_градиент_58);}.cls-10{fill:url(#Безымянный_градиент_43);}.cls-11{fill:url(#Безымянный_градиент_46);}.cls-12{fill:url(#Безымянный_градиент_45);}.cls-13{fill:url(#Безымянный_градиент_95);}.cls-14{fill:url(#Безымянный_градиент_149);}.cls-15{fill:url(#Безымянный_градиент_136);}.cls-16{fill:url(#Безымянный_градиент_133);}.cls-17{fill:url(#Безымянный_градиент_132);}.cls-18{fill:#ffc994;}.cls-19{fill:url(#Безымянный_градиент_8);}.cls-20{fill:#ffe0bd;}.cls-21{fill:url(#Безымянный_градиент_44);}.cls-22{fill:url(#Безымянный_градиент_25);}.cls-23{fill:url(#Безымянный_градиент_26);}.cls-24{fill:url(#Безымянный_градиент_105);}.cls-25{fill:url(#Безымянный_градиент_44-2);}.cls-26{fill:url(#Безымянный_градиент_119);}.cls-27{fill:url(#Безымянный_градиент_88);}.cls-28{fill:#565656;}.cls-29{fill:#444;}.cls-30{fill:#828282;}.cls-31{fill:#ffb8b8;}.cls-32{fill:#ffd9ad;}.cls-33{fill:#864689;}.cls-34{fill:#1d2529;}.cls-35{fill:url(#Безымянный_градиент_117);}.cls-36{fill:url(#Безымянный_градиент_118);}.cls-37{fill:url(#Безымянный_градиент_120);}.cls-38{fill:#9c4b00;opacity:0.15;}.cls-39{fill:url(#Безымянный_градиент_154);}</style><linearGradient id="Безымянный_градиент_20" x1="225.51" y1="262.22" x2="373.72" y2="658.98" gradientUnits="userSpaceOnUse"><stop offset="0.17" stop-color="#43bdff"/><stop offset="0.26" stop-color="#66cdff"/><stop offset="0.38" stop-color="#90e1ff"/><stop offset="0.5" stop-color="#aeefff"/><stop offset="0.59" stop-color="#c0f8ff"/><stop offset="0.66" stop-color="#c7fbff"/></linearGradient><clipPath id="clip-path"><path class="cls-1" d="M379.36,76.56c38.15,14.08,74.6,45.49,75.24,88.07.18,12.11-3,24.35-11.15,37.13-34.78,54.68,73.64,102.82,61.36,174.7s-48.07,107.1-23.52,162.65,64.43,117.3,0,188S199,747.44,199,747.44,93.7,725.78,104.55,625.73c6.76-62.24,66.6-76.19,70.89-96.4C187,475,118.63,492.24,111.05,385.85c-7.28-102.08,66.48-98.06,51.82-174.57a126.42,126.42,0,0,1-1.58-39.34c4.36-35.28,23.77-82.55,91.16-98.81C333.44,53.6,365,71.24,379.36,76.56Z"/></clipPath><linearGradient id="Безымянный_градиент_54" x1="63.73" y1="154.65" x2="301.17" y2="154.65" gradientUnits="userSpaceOnUse"><stop offset="0" stop-color="#8ed7ff" stop-opacity="0.6"/><stop offset="0.21" stop-color="#aae1ff" stop-opacity="0.7"/><stop offset="0.59" stop-color="#d7f1ff" stop-opacity="0.86"/><stop offset="0.86" stop-color="#f4fbff" stop-opacity="0.96"/><stop offset="1" stop-color="#fff"/></linearGradient><linearGradient id="Безымянный_градиент_54-2" x1="355.96" y1="171.61" x2="444.36" y2="171.61" xlink:href="#Безымянный_градиент_54"/><linearGradient id="Безымянный_градиент_68" x1="278.76" y1="247.12" x2="521.57" y2="247.12" gradientUnits="userSpaceOnUse"><stop offset="0.34" stop-color="#8ed7ff" stop-opacity="0.6"/><stop offset="0.39" stop-color="#9eddff" stop-opacity="0.66"/><stop offset="0.54" stop-color="#c8ebff" stop-opacity="0.8"/><stop offset="0.66" stop-color="#e6f6ff" stop-opacity="0.91"/><stop offset="0.76" stop-color="#f8fdff" stop-opacity="0.98"/><stop offset="0.81" stop-color="#fff"/></linearGradient><linearGradient id="Безымянный_градиент_57" x1="42.86" y1="297.3" x2="243.91" y2="297.3" gradientUnits="userSpaceOnUse"><stop offset="0.32" stop-color="#b3dff2"/><stop offset="0.35" stop-color="#c1e5f4"/><stop offset="0.43" stop-color="#dcf0f9"/><stop offset="0.51" stop-color="#f0f9fc"/><stop offset="0.6" stop-color="#fbfdfe"/><stop offset="0.68" stop-color="#fff"/></linearGradient><linearGradient id="Безымянный_градиент_72" x1="307.11" y1="343.02" x2="547.19" y2="343.02" gradientUnits="userSpaceOnUse"><stop offset="0.32" stop-color="#fff"/><stop offset="0.39" stop-color="#feffff" stop-opacity="0.99"/><stop offset="0.45" stop-color="#fafeff" stop-opacity="0.95"/><stop offset="0.51" stop-color="#f3fdff" stop-opacity="0.89"/><stop offset="0.57" stop-color="#eafcff" stop-opacity="0.81"/><stop offset="0.64" stop-color="#defaff" stop-opacity="0.7"/><stop offset="0.68" stop-color="#d4f8ff" stop-opacity="0.6"/></linearGradient><linearGradient id="Безымянный_градиент_58" x1="253.8" y1="84.5" x2="568.93" y2="84.5" gradientUnits="userSpaceOnUse"><stop offset="0" stop-color="#fff"/><stop offset="0.14" stop-color="#f4fbff" stop-opacity="0.96"/><stop offset="0.41" stop-color="#d7f1ff" stop-opacity="0.86"/><stop offset="0.79" stop-color="#aae1ff" stop-opacity="0.7"/><stop offset="1" stop-color="#8ed7ff" stop-opacity="0.6"/></linearGradient><linearGradient id="Безымянный_градиент_43" x1="-785.75" y1="590.82" x2="-364.83" y2="562.74" gradientTransform="matrix(-0.97, 0, 0, 1, -173.08, 0)" gradientUnits="userSpaceOnUse"><stop offset="0" stop-color="#49ad52"/><stop offset="0.03" stop-color="#5ab24e"/><stop offset="0.09" stop-color="#75b948"/><stop offset="0.15" stop-color="#8bbf43"/><stop offset="0.22" stop-color="#9cc43f"/><stop offset="0.32" stop-color="#a7c83c"/><stop offset="0.45" stop-color="#aec93a"/><stop offset="0.81" stop-color="#b0ca3a"/></linearGradient><linearGradient id="Безымянный_градиент_46" x1="108.26" y1="606.98" x2="530.02" y2="615.93" gradientUnits="userSpaceOnUse"><stop offset="0" stop-color="#b0ca3a"/><stop offset="0.34" stop-color="#8dc042"/><stop offset="0.93" stop-color="#49ad52"/></linearGradient><linearGradient id="Безымянный_градиент_45" x1="116.36" y1="757.72" x2="575.77" y2="727.07" gradientUnits="userSpaceOnUse"><stop offset="0" stop-color="#b0ca3a"/><stop offset="0.16" stop-color="#87be44"/><stop offset="0.31" stop-color="#65b54b"/><stop offset="0.44" stop-color="#50af50"/><stop offset="0.53" stop-color="#49ad52"/></linearGradient><linearGradient id="Безымянный_градиент_95" x1="259.39" y1="204.69" x2="376.72" y2="204.69" gradientUnits="userSpaceOnUse"><stop offset="0" stop-color="#e12284"/><stop offset="0.14" stop-color="#d82686"/><stop offset="0.37" stop-color="#c0338d"/><stop offset="0.66" stop-color="#984797"/><stop offset="1" stop-color="#6262a6"/></linearGradient><linearGradient id="Безымянный_градиент_149" x1="346.51" y1="206.79" x2="350.9" y2="238.6" gradientUnits="userSpaceOnUse"><stop offset="0.05" stop-color="#6263a6" stop-opacity="0"/><stop offset="0.16" stop-color="#615ca1" stop-opacity="0.17"/><stop offset="0.44" stop-color="#5f4d96" stop-opacity="0.52"/><stop offset="0.68" stop-color="#5d428e" stop-opacity="0.78"/><stop offset="0.87" stop-color="#5c3b89" stop-opacity="0.94"/><stop offset="1" stop-color="#5c3987"/></linearGradient><linearGradient id="Безымянный_градиент_136" x1="279.38" y1="196.66" x2="283.81" y2="253.51" gradientUnits="userSpaceOnUse"><stop offset="0" stop-color="#c83fff" stop-opacity="0"/><stop offset="0.12" stop-color="#b63eeb" stop-opacity="0.17"/><stop offset="0.41" stop-color="#8f3cc0" stop-opacity="0.52"/><stop offset="0.66" stop-color="#733aa1" stop-opacity="0.78"/><stop offset="0.87" stop-color="#62398e" stop-opacity="0.94"/><stop offset="1" stop-color="#5c3987"/></linearGradient><linearGradient id="Безымянный_градиент_133" x1="270.78" y1="193.01" x2="274.53" y2="241.1" gradientUnits="userSpaceOnUse"><stop offset="0" stop-color="#c83fff" stop-opacity="0"/><stop offset="0.13" stop-color="#b73eec" stop-opacity="0.16"/><stop offset="0.54" stop-color="#863bb6" stop-opacity="0.61"/><stop offset="0.84" stop-color="#683a94" stop-opacity="0.89"/><stop offset="1" stop-color="#5c3987"/></linearGradient><linearGradient id="Безымянный_градиент_132" x1="310.42" y1="203.58" x2="315.13" y2="263.95" gradientUnits="userSpaceOnUse"><stop offset="0" stop-color="#5c3987"/><stop offset="0.16" stop-color="#683a94" stop-opacity="0.89"/><stop offset="0.46" stop-color="#863bb6" stop-opacity="0.61"/><stop offset="0.87" stop-color="#b73eec" stop-opacity="0.16"/><stop offset="1" stop-color="#c83fff" stop-opacity="0"/></linearGradient><linearGradient id="Безымянный_градиент_8" x1="226.77" y1="701.16" x2="307.29" y2="701.16" gradientUnits="userSpaceOnUse"><stop offset="0" stop-color="#e12284"/><stop offset="0.06" stop-color="#dd217c"/><stop offset="0.41" stop-color="#c61b51"/><stop offset="0.59" stop-color="#bd1941"/></linearGradient><linearGradient id="Безымянный_градиент_44" x1="260.09" y1="709.56" x2="340.63" y2="709.56" gradientUnits="userSpaceOnUse"><stop offset="0" stop-color="#e12284"/><stop offset="0.38" stop-color="#e01e5d"/><stop offset="0.59" stop-color="#df1d4d"/></linearGradient><linearGradient id="Безымянный_градиент_25" x1="498.71" y1="34.68" x2="554.04" y2="182.8" gradientUnits="userSpaceOnUse"><stop offset="0.19" stop-color="#43bdff"/><stop offset="0.24" stop-color="#4bc1ff"/><stop offset="0.32" stop-color="#62ccff"/><stop offset="0.42" stop-color="#87ddff"/><stop offset="0.54" stop-color="#baf5ff"/><stop offset="0.56" stop-color="#c7fbff"/></linearGradient><linearGradient id="Безымянный_градиент_26" x1="509.12" y1="167.4" x2="530.02" y2="223.36" gradientUnits="userSpaceOnUse"><stop offset="0.2" stop-color="#43bdff"/><stop offset="0.28" stop-color="#4cc1ff"/><stop offset="0.42" stop-color="#63ccff"/><stop offset="0.59" stop-color="#8adeff"/><stop offset="0.78" stop-color="#bef7ff"/><stop offset="0.81" stop-color="#c7fbff"/></linearGradient><linearGradient id="Безымянный_градиент_105" x1="260.09" y1="520.03" x2="365.75" y2="520.03" gradientUnits="userSpaceOnUse"><stop offset="0" stop-color="#fbc31b"/><stop offset="0.18" stop-color="#f6ad21"/><stop offset="0.54" stop-color="#ee852b"/><stop offset="0.83" stop-color="#e96c32"/><stop offset="1" stop-color="#e76334"/></linearGradient><linearGradient id="Безымянный_градиент_44-2" x1="247.02" y1="307.4" x2="375.05" y2="307.4" xlink:href="#Безымянный_градиент_44"/><linearGradient id="Безымянный_градиент_119" x1="247.02" y1="280.66" x2="272.22" y2="280.66" gradientUnits="userSpaceOnUse"><stop offset="0" stop-color="#e12284"/><stop offset="0.64" stop-color="#e01e5d"/><stop offset="1" stop-color="#df1d4d"/></linearGradient><linearGradient id="Безымянный_градиент_88" x1="264.32" y1="247.34" x2="296.84" y2="172.59" gradientUnits="userSpaceOnUse"><stop offset="0" stop-color="#fff" stop-opacity="0.8"/><stop offset="0.15" stop-color="#fff" stop-opacity="0.49"/><stop offset="0.29" stop-color="#fff" stop-opacity="0.23"/><stop offset="0.39" stop-color="#fff" stop-opacity="0.06"/><stop offset="0.44" stop-color="#fff" stop-opacity="0"/></linearGradient><linearGradient id="Безымянный_градиент_117" x1="340.14" y1="198.1" x2="342.57" y2="198.1" gradientUnits="userSpaceOnUse"><stop offset="0" stop-color="#e12284"/><stop offset="0" stop-color="#d82686"/><stop offset="0" stop-color="#c0338d"/><stop offset="0" stop-color="#984797"/><stop offset="0" stop-color="#6262a6"/></linearGradient><linearGradient id="Безымянный_градиент_118" x1="280" y1="198.1" x2="282.42" y2="198.1" gradientUnits="userSpaceOnUse"><stop offset="1" stop-color="#e12284"/><stop offset="1" stop-color="#d82686"/><stop offset="1" stop-color="#c0338d"/><stop offset="1" stop-color="#984797"/><stop offset="1" stop-color="#6262a6"/></linearGradient><linearGradient id="Безымянный_градиент_120" x1="350.43" y1="279.55" x2="375.29" y2="279.55" gradientUnits="userSpaceOnUse"><stop offset="0" stop-color="#e12284"/><stop offset="0.54" stop-color="#e01e5d"/><stop offset="0.84" stop-color="#df1d4d"/></linearGradient><linearGradient id="Безымянный_градиент_154" x1="323.06" y1="158.52" x2="334.83" y2="171.47" gradientUnits="userSpaceOnUse"><stop offset="0" stop-color="#6263a6" stop-opacity="0"/><stop offset="0.28" stop-color="#5f5098" stop-opacity="0.18"/><stop offset="0.59" stop-color="#5d3f8b" stop-opacity="0.34"/><stop offset="0.79" stop-color="#5c3987" stop-opacity="0.4"/></linearGradient></defs><g id="Слой_2" data-name="Слой 2"><path class="cls-2" d="M379.36,76.56c38.15,14.08,74.6,45.49,75.24,88.07.18,12.11-3,24.35-11.15,37.13-34.78,54.68,73.64,102.82,61.36,174.7s-48.07,107.1-23.52,162.65,64.43,117.3,0,188S199,747.44,199,747.44,93.7,725.78,104.55,625.73c6.76-62.24,66.6-76.19,70.89-96.4C187,475,118.63,492.24,111.05,385.85c-7.28-102.08,66.48-98.06,51.82-174.57a126.42,126.42,0,0,1-1.58-39.34c4.36-35.28,23.77-82.55,91.16-98.81C333.44,53.6,365,71.24,379.36,76.56Z"/><g class="cls-3"><path class="cls-4" d="M291.34,170.11a12.52,12.52,0,0,0-3,.36,4,4,0,0,1-4-1.16,21.13,21.13,0,0,0-16.25-7.2,22.44,22.44,0,0,0-9.46,2,4,4,0,0,1-4.5-.79,15.37,15.37,0,0,0-5.81-3.78,3.48,3.48,0,0,1-2.06-1.93c-3.28-8.46-12.5-14.56-23.36-14.56l-1,0a3.77,3.77,0,0,1-3.43-1.73c-4-6.87-12.16-11.58-21.62-11.58-10.55,0-19.52,5.86-22.82,14a3.91,3.91,0,0,1-5.45,1.69,19,19,0,0,0-9.28-2.37c-6.43,0-12,3.08-14.94,7.63a3.8,3.8,0,0,1-3.66,1.58,11.09,11.09,0,0,0-1.3-.07,10.86,10.86,0,0,0-4.74,1.07,4.05,4.05,0,0,1-4.5-.67,14.84,14.84,0,0,0-10.36-4c-6.15,0-11.36,3.46-13.19,8.25a3.3,3.3,0,0,1-2,1.87A11.88,11.88,0,0,0,98.25,164a3.94,3.94,0,0,1-4.76,1.56,17.07,17.07,0,0,0-5.95-1.06c-5.93,0-11.06,3-13.53,7.29a3.91,3.91,0,0,1-4.39,1.63,8.06,8.06,0,0,0-2.1-.27h-.43c-4.68.24-4.37,6.35.32,6.35H297.48c2.8,0,4.62-2.63,3.2-4.73A11.2,11.2,0,0,0,291.34,170.11Z"/><path class="cls-5" d="M437.1,177a19.74,19.74,0,0,0-2.67.18,2,2,0,0,1-2.23-1.68,26,26,0,0,0-50.58-4.82,2,2,0,0,1-2.51,1.22A19.81,19.81,0,0,0,358,177.14c-4.68,5.1-.88,13.35,6,13.35h73.52c8.72,0,9.18-13.12.46-13.52Z"/><path class="cls-6" d="M519.48,281.13A2.21,2.21,0,0,0,521.4,278a9.88,9.88,0,0,0-9-6.29h-.23a2,2,0,0,1-1.85-1.15,16.32,16.32,0,0,0-14.37-9,15.34,15.34,0,0,0-4.15.56,2,2,0,0,1-2.21-.86A21.91,21.91,0,0,0,471.22,251a20.75,20.75,0,0,0-3.17.24,2,2,0,0,1-2.11-1.07c-6.43-11.75-18.37-19.65-32-19.65a34.93,34.93,0,0,0-15.46,3.6,2,2,0,0,1-1.48.12,9.27,9.27,0,0,0-8.42,1.44,2,2,0,0,1-2.46-.08,20.61,20.61,0,0,0-13.51-5.08,20.14,20.14,0,0,0-2.34.14,2,2,0,0,1-1.95-.95c-6.38-10-17.15-16.62-29.36-16.62-13.24,0-24.78,7.75-30.88,19.24a2,2,0,0,1-1.91,1.12c-.32,0-.65,0-1,0-9.09,0-16.46,7.88-16.46,17.59a19.08,19.08,0,0,0,.11,2,2.26,2.26,0,0,1-1.36,2.38,21.29,21.29,0,0,0-11.8,11.45,2.12,2.12,0,0,1-1.93,1.32h0A16.38,16.38,0,0,0,279,277.93a2.22,2.22,0,0,0,1.87,3.2Z"/><path class="cls-7" d="M242.18,325.46a1.83,1.83,0,0,0,1.59-2.56,8.18,8.18,0,0,0-7.48-5.21h-.19a1.72,1.72,0,0,1-1.54-1,13.52,13.52,0,0,0-11.9-7.46,12.52,12.52,0,0,0-3.43.47,1.65,1.65,0,0,1-1.83-.72,18.14,18.14,0,0,0-15.18-8.49,17.47,17.47,0,0,0-2.62.2,1.72,1.72,0,0,1-1.75-.89c-5.33-9.73-15.21-16.27-26.52-16.27a29,29,0,0,0-12.8,3,1.64,1.64,0,0,1-1.23.1,7.72,7.72,0,0,0-7,1.19,1.61,1.61,0,0,1-2-.06,17.1,17.1,0,0,0-11.19-4.21,17.88,17.88,0,0,0-1.94.11,1.68,1.68,0,0,1-1.62-.78,28.85,28.85,0,0,0-24.3-13.76c-11,0-20.52,6.42-25.57,15.93a1.68,1.68,0,0,1-1.58.92l-.82,0c-7.52,0-13.62,6.52-13.62,14.56a15.16,15.16,0,0,0,.09,1.67,1.87,1.87,0,0,1-1.13,2,17.66,17.66,0,0,0-9.77,9.48,1.75,1.75,0,0,1-1.6,1.09h0A13.58,13.58,0,0,0,43,322.81a1.84,1.84,0,0,0,1.55,2.65Z"/><path class="cls-8" d="M545.13,376.65a2.18,2.18,0,0,0,1.89-3.06,9.77,9.77,0,0,0-8.93-6.22h-.23a2,2,0,0,1-1.84-1.14,16.13,16.13,0,0,0-14.2-8.91,15.43,15.43,0,0,0-4.1.56,2,2,0,0,1-2.19-.85,21.28,21.28,0,0,0-21.25-9.91,2,2,0,0,1-2.09-1.06c-6.36-11.62-18.16-19.42-31.67-19.42a34.48,34.48,0,0,0-15.29,3.56,2,2,0,0,1-1.46.11,9.13,9.13,0,0,0-2.78-.43,9.34,9.34,0,0,0-5.55,1.85,1.93,1.93,0,0,1-2.43-.07,20.41,20.41,0,0,0-13.36-5,19.63,19.63,0,0,0-2.31.13,2,2,0,0,1-1.93-.94c-6.31-9.92-17-16.43-29-16.43-13.09,0-24.5,7.66-30.53,19a2,2,0,0,1-1.89,1.11c-.32,0-.65,0-1,0-9,0-16.28,7.78-16.28,17.39a19,19,0,0,0,.11,2,2.23,2.23,0,0,1-1.35,2.35,21.07,21.07,0,0,0-11.66,11.32,2.1,2.1,0,0,1-1.91,1.3h0a16.21,16.21,0,0,0-14.57,9.63,2.2,2.2,0,0,0,1.86,3.16Z"/><path class="cls-9" d="M555.87,105a16.42,16.42,0,0,0-3.94.48,5.31,5.31,0,0,1-5.32-1.54A28,28,0,0,0,525,94.39a29.8,29.8,0,0,0-12.54,2.72,5.31,5.31,0,0,1-6-1,20.3,20.3,0,0,0-7.71-5,4.52,4.52,0,0,1-2.73-2.55c-4.36-11.23-16.59-19.32-31-19.32l-1.39,0a5,5,0,0,1-4.55-2.3c-5.28-9.11-16.14-15.36-28.7-15.36-14,0-25.9,7.77-30.29,18.62a5.19,5.19,0,0,1-7.23,2.24,25.19,25.19,0,0,0-12.32-3.15c-8.53,0-16,4.09-19.82,10.13a5.08,5.08,0,0,1-4.86,2.1,16.25,16.25,0,0,0-1.73-.1,14.42,14.42,0,0,0-6.29,1.42,5.37,5.37,0,0,1-6-.88,19.7,19.7,0,0,0-13.75-5.34c-8.16,0-15.08,4.59-17.51,11A4.36,4.36,0,0,1,308,90a15.85,15.85,0,0,0-8.42,6.88A5.22,5.22,0,0,1,293.29,99a22.43,22.43,0,0,0-7.9-1.41c-7.87,0-14.68,3.94-17.95,9.67a5.19,5.19,0,0,1-5.83,2.16,11.52,11.52,0,0,0-2.79-.35l-.57,0c-6.21.31-5.79,8.43.42,8.43H564c3.71,0,6.12-3.5,4.25-6.28A14.86,14.86,0,0,0,555.87,105Z"/></g><g class="cls-3"><path class="cls-10" d="M516.31,531.52S292.12,560.75,164.6,587.81s222.82,42.36,222.82,42.36l200,6.8Z"/><path class="cls-11" d="M61.85,552.5s230.74,29.23,362,56.28-229.33,42.36-229.33,42.36l-205.79,6.8Z"/><path class="cls-12" d="M61.85,644.34S492.15,586.51,621.41,612s-90.14,246.62-90.14,246.62L170.7,828Z"/></g><path class="cls-13" d="M353.67,195.48c-5.72-18.84,7.35-32.67-18-52.89-22.72-18.09-47.92,5.86-47.92,5.86-34.66,3.55-15.33,33-24.75,54.16s1.35,60.89,13.46,68.29,57.52-2.69,78-6.73,24.07-14.29,21.53-33.3C373.58,212.74,359.39,214.32,353.67,195.48Z"/><path class="cls-14" d="M355.26,251c-.16-1.26-2.62-29.58-10.09-53.17a23.52,23.52,0,0,1-2.6,1.39s5.32,15.37,9.9,51.78"/><path class="cls-15" d="M285.82,195.66a296.58,296.58,0,0,0-3.4,52.09s-1.23.11-5.28,1.95c-3.11-24,2-51,2-51Z"/><path class="cls-16" d="M277.14,194.38a155.29,155.29,0,0,0-5,52.1s.7-.41-3.35,1.43c-1.08-35.94,5-53.53,5-53.53Z"/><path class="cls-17" d="M344.36,248.86s-7.07-12.27-6.38-49.41-52.73,5.24-52.73,5.24,5.93,42.36-.95,47S344.36,248.86,344.36,248.86Z"/><polygon class="cls-18" points="338.5 669.04 337.06 690.47 320.95 685 320.95 665.84 338.5 669.04"/><polygon class="cls-18" points="305.08 661.87 303.64 683.3 287.54 677.83 287.54 658.67 305.08 661.87"/><path class="cls-19" d="M287.61,677.27l16.11,5.48,3.57,15.81v14.59s-48.41,15-65,11.31-15.47-3.3-15.47-3.3v-20l34.59-6.86Z"/><rect class="cls-18" x="301.45" y="216.23" width="19.17" height="29.61"/><path class="cls-20" d="M319.77,172.21c-13.09-5.38-14.79-13.73-14.83-17.56a30.31,30.31,0,0,0-8.38,3.09,69.8,69.8,0,0,1-1.16,12.18c-1.62,9.78-11.57,15.69-14.6,17.28a30.21,30.21,0,0,0,.94,5.32s3.79,17.27,8.84,22.31c3.47,3.48,11.87,7,16.77,8.91a10.4,10.4,0,0,0,7.41,0c4.89-1.88,13.3-5.43,16.77-8.91,5.05-5,8.84-22.31,8.84-22.31a32,32,0,0,0,.91-4.93C339.52,187.1,325.35,182.86,319.77,172.21Z"/><path class="cls-21" d="M321,685l16.1,5.47,3.57,15.81v14.6s-48.86,16.36-65.48,12.7-15-3.58-15-3.58V710.54L294.72,702Z"/><circle class="cls-22" cx="516.19" cy="81.49" r="39.52"/><circle class="cls-23" cx="516.19" cy="186.34" r="19.76"/><path class="cls-20" d="M255.58,299.34l4.51,67.82s-11.33,19.43-5.65,59.12c-8.59,28.23,6.06,53.39,6.06,53.39l19.77-105.45V311.13l-20.18-11Z"/><path class="cls-24" d="M365.61,451.65c-2.12-69.38-25.19-83.39-25.19-83.39L314,367.16l-31.21,1s-20.48,14.07-22.6,83.45c-2.35,76.88,25.6,221.25,25.6,221.25H306.9l6-251,6,251H340S368,528.53,365.61,451.65Z"/><polygon class="cls-18" points="256.64 315.22 274.67 323.01 274.67 307.39 255.8 302.58 256.64 315.22"/><path class="cls-25" d="M341.39,368.92l8.47-59.52,25.19-10.46-15.55-47s-32.26-6.18-38.88-9.07c0,0-2.31,2.69-9.58,2.8s-9.59-2.8-9.59-2.8c-6.62,2.89-38.87,9.07-38.87,9.07l-15.56,47,25.2,10.46,10.61,58.8s3.83,3.74,28.21,3.74S341.39,368.92,341.39,368.92Z"/><polygon class="cls-26" points="272.22 309.4 262.58 251.92 247.02 298.94 272.22 309.4"/><polygon class="cls-27" points="249.12 251.01 247.02 179.9 318.05 231.03 286.72 275.53 273.62 242.85 249.12 251.01"/><rect class="cls-28" x="255.25" y="243.86" width="27.13" height="46.44" rx="3.7" transform="translate(-79.02 116.73) rotate(-21.44)"/><rect class="cls-29" x="253.07" y="250.49" width="4.91" height="10.27" rx="2.46" transform="translate(-75.75 111.08) rotate(-21.44)"/><circle class="cls-30" cx="256.35" cy="257.71" r="1.02"/><circle class="cls-30" cx="254.44" cy="253.11" r="1.43"/><path class="cls-20" d="M370,301s1.75,16.14,1.32,23-1.94,11.34-6.53,12.56C358.32,338.29,290,294,290,294s-21.79.16-25.11-1.81-11.47-19.83-11.77-23.2,1.67-4.7,4.89-3.85l28.74,10.44L279.89,258s6,2,9.56,6.23,10.47,18,10.47,18l4.57,4.12,45.94,20.79h0"/><path class="cls-18" d="M305.08,199h11.47S311.54,208.05,305.08,199Z"/><path class="cls-31" d="M299.63,207.76a22,22,0,0,0,7.86,3.24,19.73,19.73,0,0,0,16.23-3.57c.76-.57,0-1.87-.76-1.29a18.38,18.38,0,0,1-15.62,3.29,20.69,20.69,0,0,1-6.95-3c-.8-.55-1.55.75-.76,1.29Z"/><circle class="cls-32" cx="294.6" cy="198.1" r="4.92"/><circle class="cls-32" cx="327.03" cy="198.1" r="4.92"/><path class="cls-33" d="M282,182.25a18.32,18.32,0,0,1,21.21-2.31Z"/><path class="cls-34" d="M319.14,189.45a11.64,11.64,0,0,1,12.24-.4c1.23.76,2.37-1.18,1.13-1.94a13.84,13.84,0,0,0-14.51.39c-1.2.79-.08,2.74,1.14,1.95Z"/><path class="cls-34" d="M289.79,190.51a11.64,11.64,0,0,1,12.24-.39c1.24.76,2.37-1.19,1.14-2a13.84,13.84,0,0,0-14.51.4c-1.21.79-.08,2.74,1.13,1.94Z"/><path class="cls-33" d="M316,180a18.33,18.33,0,0,1,21.34-.18Z"/><path class="cls-20" d="M271.88,191.66c4.11,11.07,12.42,7.79,12.42,7.79l-2.78-11a5.68,5.68,0,0,0-1-2.13,5.12,5.12,0,0,0-5.47-1.66c-2.71.68-4,2.74-3.36,6.27Z"/><path class="cls-18" d="M276,192.42c2.14,5.06,6.45,3.57,6.45,3.57L281,191a2.56,2.56,0,0,0-.51-1,2.88,2.88,0,0,0-2.85-.76,2.14,2.14,0,0,0-1.74,2.86Z"/><path class="cls-20" d="M350.4,191.66c-4.1,11.07-12.42,7.79-12.42,7.79l2.78-11a6,6,0,0,1,1-2.13,5.13,5.13,0,0,1,5.48-1.66c2.71.68,4,2.74,3.35,6.27Z"/><path class="cls-18" d="M346.59,192.42c-2.13,5.06-6.45,3.57-6.45,3.57l1.44-5a2.44,2.44,0,0,1,.52-1,2.85,2.85,0,0,1,2.84-.76,2.13,2.13,0,0,1,1.74,2.86Z"/><circle class="cls-35" cx="341.35" cy="198.1" r="1.21"/><circle class="cls-36" cx="281.21" cy="198.1" r="1.21"/><polygon class="cls-37" points="359.5 251.92 350.43 307.19 375.29 299.21 359.5 251.92"/><polygon class="cls-38" points="301.3 417.01 312.92 421.94 309.53 563.49 301.3 417.01"/><polygon class="cls-18" points="350.43 307.19 371.09 313.17 370.04 301.02 350.43 307.19"/><path class="cls-39" d="M347.2,178.25c-8.43-1.19-18.69-6.26-24.4-15.26a13.88,13.88,0,0,1-8.72-12.21s2.72,8.31,10.86,10.86C329.78,170.12,347.2,178.25,347.2,178.25Z"/></g></svg>