<svg id="Слой_1" data-name="Слой 1" xmlns="http://www.w3.org/2000/svg" xmlns:xlink="http://www.w3.org/1999/xlink" viewBox="0 0 595.28 595.28"><defs><style>.cls-1,.cls-12,.cls-13,.cls-14,.cls-15{fill:none;}.cls-2{clip-path:url(#clip-path);}.cls-3{fill:url(#Безымянный_градиент_95);}.cls-4{fill:url(#Безымянный_градиент_95-2);}.cls-5{fill:url(#Безымянный_градиент_95-3);}.cls-6{fill:url(#Безымянный_градиент_95-4);}.cls-7{fill:url(#Безымянный_градиент_101);}.cls-8{fill:url(#Безымянный_градиент_76);}.cls-9{fill:url(#Безымянный_градиент_105);}.cls-10{fill:url(#Безымянный_градиент_105-2);}.cls-11{fill:url(#Безымянный_градиент_105-3);}.cls-12,.cls-13,.cls-14,.cls-15{stroke-miterlimit:10;stroke-width:7px;}.cls-12{stroke:url(#Безымянный_градиент_105-4);}.cls-13{stroke:url(#Безымянный_градиент_48);}.cls-14{stroke:url(#Безымянный_градиент_101-2);}.cls-15{stroke:url(#Безымянный_градиент_48-2);}.cls-16{fill:url(#Безымянный_градиент_95-5);}.cls-17{fill:url(#Безымянный_градиент_7);}</style><clipPath id="clip-path"><path class="cls-1" d="M461,136.28q0,43.71,0,87.41V225H435.28l0-1.95q0-31.14,0-62.29l-1.82,0H370.51v-1q0-12,0-24.09V134.6H461ZM223.47,434.18H160.78c0-.51,0-1,0-1.55V369.44h-1.29c-7.87,0-15.74,0-23.61,0h-1.29v90.94h90.87v-26.2ZM163,161h62.19l1.06,0V134.85H135.27v90.89h26.19V162.6c0-.52,0-1,0-1.56ZM433.33,434.17H370.08v26.19H461V459q0-43.93,0-87.89v-1.62h-1.2c-7.94,0-15.89,0-23.83,0h-1.16v1.43q0,30.66,0,61.32v2Z"/></clipPath><linearGradient id="Безымянный_градиент_95" x1="370.51" y1="179.82" x2="461.02" y2="179.82" gradientUnits="userSpaceOnUse"><stop offset="0" stop-color="#e12284"/><stop offset="0.14" stop-color="#d82686"/><stop offset="0.37" stop-color="#c0338d"/><stop offset="0.66" stop-color="#984797"/><stop offset="1" stop-color="#6262a6"/></linearGradient><linearGradient id="Безымянный_градиент_95-2" x1="134.56" y1="414.89" x2="225.43" y2="414.89" xlink:href="#Безымянный_градиент_95"/><linearGradient id="Безымянный_градиент_95-3" x1="135.27" y1="180.29" x2="226.21" y2="180.29" xlink:href="#Безымянный_градиент_95"/><linearGradient id="Безымянный_градиент_95-4" x1="370.08" y1="414.89" x2="461.01" y2="414.89" xlink:href="#Безымянный_градиент_95"/><linearGradient id="Безымянный_градиент_101" x1="-174.39" y1="-211.98" x2="-113.43" y2="-156.92" gradientTransform="matrix(-1.15, 0.43, -0.39, -1.03, 225.94, 59.36)" gradientUnits="userSpaceOnUse"><stop offset="0.08" stop-color="#df1d4d"/><stop offset="0.41" stop-color="#e01e5d"/><stop offset="1" stop-color="#e12284"/></linearGradient><linearGradient id="Безымянный_градиент_76" x1="168.84" y1="449.01" x2="203.78" y2="480.56" gradientUnits="userSpaceOnUse"><stop offset="0" stop-color="#49ad52"/><stop offset="0.14" stop-color="#44ac68"/><stop offset="0.42" stop-color="#38a8a2"/><stop offset="0.66" stop-color="#2da5d7"/></linearGradient><linearGradient id="Безымянный_градиент_105" x1="131.79" y1="398.59" x2="147.79" y2="413.04" gradientUnits="userSpaceOnUse"><stop offset="0" stop-color="#fbc31b"/><stop offset="0.18" stop-color="#f6ad21"/><stop offset="0.54" stop-color="#ee852b"/><stop offset="0.83" stop-color="#e96c32"/><stop offset="1" stop-color="#e76334"/></linearGradient><linearGradient id="Безымянный_градиент_105-2" x1="143.59" y1="425.08" x2="149.65" y2="430.56" xlink:href="#Безымянный_градиент_105"/><linearGradient id="Безымянный_градиент_105-3" x1="6475.84" y1="-6289.18" x2="6521.72" y2="-6247.74" gradientTransform="matrix(0.56, -0.62, 0.33, 0.3, -1187.24, 6352.27)" xlink:href="#Безымянный_градиент_105"/><linearGradient id="Безымянный_градиент_105-4" x1="99.23" y1="185.43" x2="170.63" y2="249.91" xlink:href="#Безымянный_градиент_105"/><linearGradient id="Безымянный_градиент_48" x1="119.12" y1="149.25" x2="218.87" y2="149.25" gradientTransform="matrix(1.12, 0.01, 0.01, 1.14, -16.26, -15.75)" gradientUnits="userSpaceOnUse"><stop offset="0" stop-color="#49ad52"/><stop offset="0.2" stop-color="#4e9e62"/><stop offset="0.6" stop-color="#5b788d"/><stop offset="0.81" stop-color="#6262a6"/></linearGradient><linearGradient id="Безымянный_градиент_101-2" x1="175.38" y1="439.69" x2="302.09" y2="439.69" gradientTransform="matrix(1, 0, 0, 1, 0, 0)" xlink:href="#Безымянный_градиент_101"/><linearGradient id="Безымянный_градиент_48-2" x1="411.45" y1="137.73" x2="504.63" y2="137.73" gradientTransform="matrix(1, 0, 0, 1, 0, 0)" xlink:href="#Безымянный_градиент_48"/><linearGradient id="Безымянный_градиент_95-5" x1="453.61" y1="384.94" x2="480.31" y2="409.05" gradientTransform="translate(-13.8 -213.78) scale(1 1.57)" xlink:href="#Безымянный_градиент_95"/><linearGradient id="Безымянный_градиент_7" x1="177.87" y1="157.14" x2="205.15" y2="155.89" gradientUnits="userSpaceOnUse"><stop offset="0" stop-color="#6262a6"/><stop offset="0.34" stop-color="#587f86"/><stop offset="0.83" stop-color="#49ad52"/></linearGradient></defs><g class="cls-2"><path class="cls-3" d="M461,136.28q0,43.71,0,87.41V225H435.28l0-1.95q0-31.14,0-62.29l-1.82,0H370.51v-1q0-12,0-24.09V134.6H461Z"/><path class="cls-4" d="M223.47,434.18H160.78c0-.51,0-1,0-1.55V369.44h-1.29c-7.87,0-15.74,0-23.61,0h-1.29v90.94h90.87v-26.2Z"/><path class="cls-5" d="M161.49,161c0,.52,0,1,0,1.56v63.14H135.27V134.85h90.94V161l-1.06,0H161.49Z"/><path class="cls-6" d="M433.33,434.17H370.08v26.19H461V459q0-43.93,0-87.89v-1.62h-1.2c-7.94,0-15.89,0-23.83,0h-1.16v1.43q0,30.66,0,61.32v2Z"/><polygon class="cls-7" points="492.28 236.87 409.87 187.13 471.38 148.51 492.28 236.87"/><polygon class="cls-8" points="132.3 466.9 200.65 426.84 213.84 466.9 132.3 466.9"/><circle class="cls-9" cx="136.94" cy="403.24" r="13.86"/><circle class="cls-10" cx="145.54" cy="426.84" r="5.25"/><polygon class="cls-11" points="394.05 417.09 433.68 449.57 412.47 471.59 394.05 417.09"/><polygon class="cls-12" points="128.05 165.76 176.52 234.65 118.69 247.88 128.05 165.76"/><polygon class="cls-13" points="129.9 99.54 225.82 172.31 191.29 218.17 129.9 99.54"/><polygon class="cls-14" points="198.08 404.72 291.77 464.71 180 476.24 198.08 404.72"/><polygon class="cls-15" points="428.94 87.11 498.39 175.68 415.54 192.69 428.94 87.11"/><rect class="cls-16" x="426.28" y="387.5" width="44.22" height="31.47" transform="translate(91.09 -82.55) rotate(11.7)"/><circle class="cls-17" cx="189.09" cy="156.62" r="17.55"/><path class="cls-1" d="M460.86,136.44q0,43.69,0,87.4v1.36H435.13l0-1.95q0-31.16,0-62.3H370.36v-1q0-12,0-24.09l0-1.07h90.51ZM223.32,434.33H160.63c0-.52,0-1,0-1.56V369.59h-1.29q-11.81,0-23.61,0h-1.29v90.95h90.87V434.31ZM162.81,161.19H225l1.06,0V135H135.12v90.9h26.19v-2.43q0-30.36,0-60.72c0-.52,0-1,0-1.55ZM433.18,434.33H369.93v26.2h90.94v-1.41q0-44,0-87.89V369.6l-1.21,0h-25V371q0,30.66,0,61.32v2Z"/></g><path d="M215.2,285.69v-39.6H204.11l-1.08,9.5a112.11,112.11,0,0,1-2.88,16.16,25.71,25.71,0,0,1-4.43,9.58,12.1,12.1,0,0,1-5.94,4.21,18,18,0,0,1-7.92.15l.22-11.52a5.61,5.61,0,0,0,2.52,0,5.25,5.25,0,0,0,2.38-1.84,13.61,13.61,0,0,0,2.26-4.53,61.62,61.62,0,0,0,1.88-8.68q.9-5.69,1.47-13.75l.72-10.08h33.41v50.4Z"/><path d="M262.58,275.25l2.95,7.63q-4.9,3.67-12.6,3.67-8,0-12.78-4.68t-4.79-12.38a16.58,16.58,0,0,1,4.86-12.17q4.86-4.89,12.71-4.9A15.71,15.71,0,0,1,264,256.71a14.31,14.31,0,0,1,4.6,11,19.2,19.2,0,0,1-.64,5.4H246.52q1.44,4.46,7.56,4.46A15.73,15.73,0,0,0,262.58,275.25Zm-10-13.83a6.21,6.21,0,0,0-6.41,4.47h11.66a4.18,4.18,0,0,0-1.4-3.14A5.41,5.41,0,0,0,252.57,261.42Z"/><path d="M271.5,264.09v-10.8H301v10.8h-9.36v21.6h-10.8v-21.6Z"/><path d="M327.66,285.69V274.53H317.22v11.16h-10.8v-32.4h10.8v11.16h10.44V253.29h10.8v32.4Z"/><path d="M363.52,253.29h11.16v32.4h-10.8v-8.28h-2.59l-5.12,8.28H343.86L351.57,275q-5.4-2.88-5.4-9.57a10.68,10.68,0,0,1,4.28-8.79Q354.73,253.29,363.52,253.29Zm-5.83,13a2.73,2.73,0,0,0,1.22,2.23,4.79,4.79,0,0,0,3,.94h1.95v-6.84h-2.09a4,4,0,0,0-3,1.15A3.51,3.51,0,0,0,357.69,266.32Z"/><path d="M399.73,253.29h11.16v32.4h-10.8v-8.28H397.5l-5.11,8.28H380.08l7.7-10.66q-5.4-2.88-5.4-9.57a10.69,10.69,0,0,1,4.29-8.79Q390.94,253.29,399.73,253.29Zm-5.83,13a2.74,2.74,0,0,0,1.23,2.23,4.77,4.77,0,0,0,3,.94h1.94v-6.84H398a4,4,0,0,0-2.95,1.15A3.51,3.51,0,0,0,393.9,266.32Z"/><path d="M230.28,332.87l5,7.92q-4.17,5.76-13.24,5.76-8.07,0-12.93-4.68t-4.86-12.38a16.74,16.74,0,0,1,4.79-12.13,16.45,16.45,0,0,1,12.35-4.94q8.85,0,13.24,4.61l-5,8.5a9.52,9.52,0,0,0-6.92-3,7.15,7.15,0,0,0-4.86,1.88,7,7,0,0,0,.08,10.15,7.25,7.25,0,0,0,4.93,1.94Q226.9,336.47,230.28,332.87Z"/><path d="M241,345.69v-32.4h9.72l9.72,11,9-11h9.43v32.4h-10.8V329.78l-7.85,9H260l-8.21-9v15.91Z"/><path d="M312.22,335.25l2.95,7.63q-4.91,3.67-12.6,3.67-8,0-12.78-4.68T285,329.49a16.58,16.58,0,0,1,4.86-12.17q4.86-4.89,12.71-4.9a15.71,15.71,0,0,1,11.09,4.29,14.31,14.31,0,0,1,4.6,11,19.2,19.2,0,0,1-.64,5.4H296.16q1.44,4.46,7.56,4.46A15.71,15.71,0,0,0,312.22,335.25Zm-10-13.83a6.22,6.22,0,0,0-6.41,4.47h11.66a4.18,4.18,0,0,0-1.4-3.14A5.39,5.39,0,0,0,302.21,321.42Z"/><path d="M344.9,345.69V334.53H334.46v11.16h-10.8v-32.4h10.8v11.16H344.9V313.29h10.8v32.4Z"/><path d="M367.08,323.44l-2.66-7.85a21.17,21.17,0,0,1,5.43-2.23,24.56,24.56,0,0,1,6.59-.94q7.2,0,10.33,3.46c2.09,2.3,3.13,5.74,3.13,10.29v19.52h-9.36v-2.95q-2.37,3.38-8.49,3.38a10.26,10.26,0,0,1-7.38-2.7,9.87,9.87,0,0,1-2.85-7.52c0-3.51,1.1-6.17,3.28-8a12.66,12.66,0,0,1,8.39-2.73,10,10,0,0,1,6.33,1.8q.3-5.55-4.46-5.55A24.09,24.09,0,0,0,367.08,323.44Zm8.64,13.68c1.92,0,3.29-.55,4.1-1.66v-2a6.9,6.9,0,0,0-4.1-1.08,3.56,3.56,0,0,0-2.23.65,2.11,2.11,0,0,0-.87,1.8,2,2,0,0,0,.87,1.69A3.75,3.75,0,0,0,375.72,337.12Z"/></svg>