<svg id="Слой_1" data-name="Слой 1" xmlns="http://www.w3.org/2000/svg" xmlns:xlink="http://www.w3.org/1999/xlink" viewBox="0 0 400 200"><defs><style>.cls-1{fill:url(#Безымянный_градиент_24);}.cls-2{fill:url(#Безымянный_градиент_24-2);}.cls-3{fill:url(#Безымянный_градиент_3);}.cls-4{fill:none;stroke-miterlimit:10;stroke-width:7px;stroke:url(#Безымянный_градиент_101);}.cls-5{fill:url(#Безымянный_градиент_101-2);}.cls-6{fill:url(#Безымянный_градиент_28);}</style><linearGradient id="Безымянный_градиент_24" x1="-109.48" y1="134.9" x2="98.66" y2="134.9" gradientUnits="userSpaceOnUse"><stop offset="0" stop-color="#e12284"/><stop offset="0.33" stop-color="#a14295"/><stop offset="0.6" stop-color="#7359a1"/><stop offset="0.73" stop-color="#6262a6"/></linearGradient><linearGradient id="Безымянный_градиент_24-2" x1="74.51" y1="173.04" x2="108.31" y2="173.04" xlink:href="#Безымянный_градиент_24"/><linearGradient id="Безымянный_градиент_3" x1="124.23" y1="103.97" x2="275.77" y2="103.97" gradientUnits="userSpaceOnUse"><stop offset="0" stop-color="#49ad52"/><stop offset="0.2" stop-color="#4e9e62"/><stop offset="0.6" stop-color="#5b788d"/><stop offset="0.81" stop-color="#6262a6"/></linearGradient><linearGradient id="Безымянный_градиент_101" x1="174.05" y1="-43.19" x2="-102.79" y2="149.01" gradientTransform="translate(-22.08 33.5) rotate(-37.12)" gradientUnits="userSpaceOnUse"><stop offset="0.08" stop-color="#df1d4d"/><stop offset="0.41" stop-color="#e01e5d"/><stop offset="1" stop-color="#e12284"/></linearGradient><linearGradient id="Безымянный_градиент_101-2" x1="266.89" y1="71.25" x2="427.65" y2="71.25" gradientTransform="matrix(1, 0, 0, 1, 0, 0)" xlink:href="#Безымянный_градиент_101"/><linearGradient id="Безымянный_градиент_28" x1="-1551.33" y1="469.36" x2="-1443.52" y2="469.36" gradientTransform="matrix(-0.52, -0.37, 0.58, -0.81, -719.22, -39.69)" gradientUnits="userSpaceOnUse"><stop offset="0" stop-color="#fbc31b"/><stop offset="0.05" stop-color="#f9b71e"/><stop offset="0.21" stop-color="#f29926"/><stop offset="0.38" stop-color="#ed812c"/><stop offset="0.56" stop-color="#ea7031"/><stop offset="0.76" stop-color="#e86633"/><stop offset="1" stop-color="#e76334"/></linearGradient></defs><circle class="cls-1" cx="-5.41" cy="134.9" r="104.07"/><circle class="cls-2" cx="91.41" cy="173.04" r="16.9"/><path class="cls-3" d="M244.69,40.19H155.31a31.11,31.11,0,0,0-31.08,31.07v50a31.11,31.11,0,0,0,31.08,31.07h4.61l10.81,13.72a4.44,4.44,0,0,0,7,0l10.81-13.72h56.18a31.11,31.11,0,0,0,31.08-31.07v-50A31.11,31.11,0,0,0,244.69,40.19Zm-36.92,68.29v35H192.23v-35a4.44,4.44,0,0,0-4.44-4.44H133.11V88.51h54.68a4.44,4.44,0,0,0,4.44-4.44v-35h15.54v35a4.44,4.44,0,0,0,4.44,4.44h54.68V104H212.21A4.44,4.44,0,0,0,207.77,108.48Zm8.88-59.41h24.28L216.65,73.35Zm-33.3,24.28L159.07,49.07h24.28Zm33.3,45.85,24.26,24.27H216.65Zm50.24-47.94v8.37h-44l29.26-29.26A22.23,22.23,0,0,1,266.89,71.26ZM147.82,50.37l29.26,29.26h-44V71.26A22.23,22.23,0,0,1,147.82,50.37Zm-14.71,70.9v-8.35h44l-29.25,29.25A22.25,22.25,0,0,1,133.11,121.27Zm49.76,23.89-8.65,11-8.66-11a4.44,4.44,0,0,0-3.49-1.69h-3l24.26-24.27v25.45A3.9,3.9,0,0,0,182.87,145.16Zm69.3-3-29.25-29.25h44v8.35A22.25,22.25,0,0,1,252.17,142.17Z"/><polygon class="cls-4" points="167.58 -59.7 -74.89 180.92 4.64 -130.04 167.58 -59.7"/><path class="cls-5" d="M341.82-84.09S310.44,1.83,337.35,75.53s-70.46,151.06-70.46,151.06L400,219.79l27.64-73.14L412.38-68.78Z"/><polygon class="cls-6" points="348.22 169.26 312.91 106.07 371.43 142.87 348.22 169.26"/></svg>