<svg id="Слой_1" data-name="Слой 1" xmlns="http://www.w3.org/2000/svg" xmlns:xlink="http://www.w3.org/1999/xlink" viewBox="0 0 400 200"><defs><style>.cls-1{fill:url(#Безымянный_градиент_48);}.cls-2,.cls-3{fill:none;stroke-miterlimit:10;stroke-width:7px;}.cls-2{stroke:url(#Безымянный_градиент_13);}.cls-3{stroke:url(#Безымянный_градиент_101);}.cls-4{fill:url(#Безымянный_градиент_28);}.cls-5{fill:url(#Безымянный_градиент_28-2);}.cls-6{fill:url(#Безымянный_градиент_95);}.cls-7{fill:url(#Безымянный_градиент_95-2);}.cls-8{fill:url(#Безымянный_градиент_48-2);}.cls-9{fill:url(#Безымянный_градиент_48-3);}</style><linearGradient id="Безымянный_градиент_48" x1="-12.98" y1="159.4" x2="151.6" y2="159.4" gradientUnits="userSpaceOnUse"><stop offset="0" stop-color="#49ad52"/><stop offset="0.2" stop-color="#4e9e62"/><stop offset="0.6" stop-color="#5b788d"/><stop offset="0.81" stop-color="#6262a6"/></linearGradient><linearGradient id="Безымянный_градиент_13" x1="-34.08" y1="94.5" x2="92.77" y2="94.5" gradientUnits="userSpaceOnUse"><stop offset="0" stop-color="#fbc31b"/><stop offset="0.28" stop-color="#f6ac21"/><stop offset="0.87" stop-color="#ea7130"/><stop offset="1" stop-color="#e76334"/></linearGradient><linearGradient id="Безымянный_градиент_101" x1="335.24" y1="311.07" x2="408.05" y2="-13.18" gradientTransform="matrix(0.22, 0.9, -0.98, 0.2, 440.35, -214.99)" gradientUnits="userSpaceOnUse"><stop offset="0.08" stop-color="#df1d4d"/><stop offset="0.41" stop-color="#e01e5d"/><stop offset="1" stop-color="#e12284"/></linearGradient><linearGradient id="Безымянный_градиент_28" x1="307.3" y1="89.59" x2="413.54" y2="89.59" gradientTransform="translate(579.21 -210.51) rotate(112.13)" gradientUnits="userSpaceOnUse"><stop offset="0" stop-color="#fbc31b"/><stop offset="0.05" stop-color="#f9b71e"/><stop offset="0.21" stop-color="#f29926"/><stop offset="0.38" stop-color="#ed812c"/><stop offset="0.56" stop-color="#ea7031"/><stop offset="0.76" stop-color="#e86633"/><stop offset="1" stop-color="#e76334"/></linearGradient><linearGradient id="Безымянный_градиент_28-2" x1="258.84" y1="70.12" x2="304.49" y2="70.12" gradientTransform="matrix(-0.2, 0.93, -0.49, -0.38, 404.47, -84.46)" xlink:href="#Безымянный_градиент_28"/><linearGradient id="Безымянный_градиент_95" x1="124.12" y1="100" x2="275.88" y2="100" gradientUnits="userSpaceOnUse"><stop offset="0" stop-color="#e12284"/><stop offset="0.14" stop-color="#d82686"/><stop offset="0.37" stop-color="#c0338d"/><stop offset="0.66" stop-color="#984797"/><stop offset="1" stop-color="#6262a6"/></linearGradient><linearGradient id="Безымянный_градиент_95-2" x1="158.54" y1="156.41" x2="253.17" y2="156.41" xlink:href="#Безымянный_градиент_95"/><linearGradient id="Безымянный_градиент_48-2" x1="74.16" y1="24.77" x2="99.02" y2="24.77" xlink:href="#Безымянный_градиент_48"/><linearGradient id="Безымянный_градиент_48-3" x1="58.32" y1="47.99" x2="74.16" y2="47.99" xlink:href="#Безымянный_градиент_48"/></defs><polygon class="cls-1" points="-3.45 88.6 151.6 230.2 -12.98 230.2 -3.45 88.6"/><path class="cls-2" d="M41.67-34.84c34.36,57.18,0,46.42,0,80,0,22.34,39.84,30,41.73,58.63,1.81,27.37-24,19.51-15,58.8,10.84,47.48,18.21,60.82,18.21,60.82l-116.86-8.3,23-249.93Z"/><rect class="cls-3" x="213.79" y="94.01" width="325.32" height="112.04" transform="translate(147.59 484.46) rotate(-77.34)"/><rect class="cls-4" x="299.27" y="57.12" width="122.31" height="64.94" transform="translate(413.23 457.2) rotate(-112.13)"/><rect class="cls-5" x="299.68" y="136.07" width="27.91" height="27.91" transform="translate(12.22 323.3) rotate(-55.46)"/><path class="cls-6" d="M272.92,144.1h-4.63V34.23a3,3,0,0,0-3-3H251.37a3,3,0,0,0-3,3v6.33H151.6V34.23a3,3,0,0,0-3-3H134.68a3,3,0,0,0-3,3V144.1h-4.63a3,3,0,0,0-3,3v18.71a3,3,0,0,0,3,3H272.92a3,3,0,0,0,3-3V147.06A3,3,0,0,0,272.92,144.1ZM137.64,37.2h8v6.33a3,3,0,0,0,3,3H251.37a3,3,0,0,0,3-3V37.2h8V144.1h-8V57.48a3,3,0,0,0-3-3H148.63a3,3,0,0,0-3,3V144.1h-8Zm63.89,75.18a10.83,10.83,0,0,0,7.86-3.39,10.8,10.8,0,0,0,15.71,0,10.82,10.82,0,0,0,18.27-4.47h5v20H231.66a10.83,10.83,0,0,0-20.82,0H195.73A10.82,10.82,0,0,0,177.47,120a10.83,10.83,0,0,0-18.27,4.47h-7.6v-20h39.52A10.84,10.84,0,0,0,201.53,112.38Zm-4.89-10.82a4.89,4.89,0,1,1,4.89,4.89A4.9,4.9,0,0,1,196.64,101.56Zm15.71,0a4.9,4.9,0,1,1,4.89,4.89A4.91,4.91,0,0,1,212.35,101.56Zm15.72,0a4.89,4.89,0,1,1,4.89,4.89A4.9,4.9,0,0,1,228.07,101.56Zm-1.92,25.91a4.9,4.9,0,1,1-4.9-4.9A4.9,4.9,0,0,1,226.15,127.47Zm-35.93,0a4.9,4.9,0,1,1-4.89-4.9A4.9,4.9,0,0,1,190.22,127.47Zm-15.72,0a4.89,4.89,0,1,1-4.89-4.9A4.89,4.89,0,0,1,174.5,127.47Zm-15.3,3a10.82,10.82,0,0,0,18.27,4.47,10.81,10.81,0,0,0,18.26-4.47h15.11a10.82,10.82,0,0,0,20.82,0H248.4V144.1H151.6V130.43Zm84.17-31.84a10.82,10.82,0,0,0-18.27-4.47,10.8,10.8,0,0,0-15.71,0,10.82,10.82,0,0,0-18.27,4.47H151.6v-20h7.6a10.82,10.82,0,0,0,18.27,4.47,10.81,10.81,0,0,0,18.26-4.47h15.11a10.82,10.82,0,0,0,20.82,0H248.4v20ZM221.25,64.82a10.85,10.85,0,0,0-10.41,7.86H195.73a10.81,10.81,0,0,0-18.26-4.47,10.82,10.82,0,0,0-18.27,4.47h-7.6V60.45h96.8V72.68H231.66A10.84,10.84,0,0,0,221.25,64.82Zm4.9,10.82a4.9,4.9,0,1,1-4.9-4.89A4.91,4.91,0,0,1,226.15,75.64Zm-35.93,0a4.9,4.9,0,1,1-4.89-4.89A4.91,4.91,0,0,1,190.22,75.64Zm-15.72,0a4.89,4.89,0,1,1-4.89-4.89A4.9,4.9,0,0,1,174.5,75.64ZM270,162.8H130V150H270Z"/><path class="cls-7" d="M250.2,153.45H161.5a3,3,0,0,0,0,5.93h88.7a3,3,0,1,0,0-5.93Z"/><circle class="cls-8" cx="86.59" cy="24.77" r="12.43"/><circle class="cls-9" cx="66.24" cy="47.99" r="7.92"/></svg>