<svg id="Слой_1" data-name="Слой 1" xmlns="http://www.w3.org/2000/svg" xmlns:xlink="http://www.w3.org/1999/xlink" viewBox="0 0 400 200"><defs><style>.cls-1,.cls-11{fill:none;stroke-miterlimit:10;stroke-width:7px;}.cls-1{stroke:url(#Безымянный_градиент_79);}.cls-2{fill:url(#Безымянный_градиент_28);}.cls-3{fill:url(#Безымянный_градиент_28-2);}.cls-4{fill:url(#Безымянный_градиент_22);}.cls-5{fill:url(#Безымянный_градиент_80);}.cls-6{fill:url(#Безымянный_градиент_80-2);}.cls-7{fill:url(#Безымянный_градиент_80-3);}.cls-8{fill:url(#Безымянный_градиент_80-4);}.cls-9{fill:url(#Безымянный_градиент_80-5);}.cls-10{fill:url(#Безымянный_градиент_80-6);}.cls-11{stroke:url(#Безымянный_градиент_24);}.cls-12{fill:url(#Безымянный_градиент_28-3);}.cls-13{fill:url(#Безымянный_градиент_28-4);}</style><linearGradient id="Безымянный_градиент_79" x1="-42.89" y1="156.05" x2="87.8" y2="-70.32" gradientUnits="userSpaceOnUse"><stop offset="0.25" stop-color="#49ad52"/><stop offset="0.41" stop-color="#49ad54"/><stop offset="0.48" stop-color="#47ac5b"/><stop offset="0.52" stop-color="#45ac66"/><stop offset="0.55" stop-color="#41ab77"/><stop offset="0.58" stop-color="#3ca98d"/><stop offset="0.61" stop-color="#37a8a9"/><stop offset="0.63" stop-color="#30a6c8"/><stop offset="0.64" stop-color="#2da5d7"/><stop offset="0.91" stop-color="#2da5d7"/></linearGradient><linearGradient id="Безымянный_градиент_28" x1="-151.9" y1="-166.55" x2="-108.31" y2="-166.55" gradientTransform="translate(128.58 248.46) rotate(20.09)" gradientUnits="userSpaceOnUse"><stop offset="0" stop-color="#fbc31b"/><stop offset="0.05" stop-color="#f9b71e"/><stop offset="0.21" stop-color="#f29926"/><stop offset="0.38" stop-color="#ed812c"/><stop offset="0.56" stop-color="#ea7031"/><stop offset="0.76" stop-color="#e86633"/><stop offset="1" stop-color="#e76334"/></linearGradient><linearGradient id="Безымянный_градиент_28-2" x1="2585.51" y1="1004.72" x2="2809.51" y2="1004.72" gradientTransform="matrix(-0.21, 0.6, -0.89, -0.31, 1815.01, -1262.65)" xlink:href="#Безымянный_градиент_28"/><linearGradient id="Безымянный_градиент_22" x1="-19.09" y1="306.56" x2="-132.56" y2="641.96" gradientTransform="matrix(0.2, -0.79, 0.91, 0.37, -363.18, -65.55)" gradientUnits="userSpaceOnUse"><stop offset="0" stop-color="#6262a6"/><stop offset="0.34" stop-color="#984797"/><stop offset="0.63" stop-color="#c0338d"/><stop offset="0.86" stop-color="#d82686"/><stop offset="1" stop-color="#e12284"/></linearGradient><linearGradient id="Безымянный_градиент_80" x1="162.04" y1="55.91" x2="220.82" y2="55.91" gradientUnits="userSpaceOnUse"><stop offset="0.19" stop-color="#6262a6"/><stop offset="0.4" stop-color="#5b788d"/><stop offset="0.8" stop-color="#4e9e62"/><stop offset="1" stop-color="#49ad52"/></linearGradient><linearGradient id="Безымянный_градиент_80-2" x1="162.04" y1="70.61" x2="220.82" y2="70.61" xlink:href="#Безымянный_градиент_80"/><linearGradient id="Безымянный_градиент_80-3" x1="162.04" y1="85.3" x2="220.82" y2="85.3" xlink:href="#Безымянный_градиент_80"/><linearGradient id="Безымянный_градиент_80-4" x1="162.04" y1="100" x2="220.82" y2="100" xlink:href="#Безымянный_градиент_80"/><linearGradient id="Безымянный_градиент_80-5" x1="162.04" y1="114.7" x2="186.53" y2="114.7" xlink:href="#Безымянный_градиент_80"/><linearGradient id="Безымянный_градиент_80-6" x1="135.09" y1="100" x2="264.91" y2="100" xlink:href="#Безымянный_градиент_80"/><linearGradient id="Безымянный_градиент_24" x1="248.18" y1="137.12" x2="409.23" y2="137.12" gradientUnits="userSpaceOnUse"><stop offset="0" stop-color="#e12284"/><stop offset="0.33" stop-color="#a14295"/><stop offset="0.6" stop-color="#7359a1"/><stop offset="0.73" stop-color="#6262a6"/></linearGradient><linearGradient id="Безымянный_градиент_28-3" x1="2757.83" y1="1012.86" x2="2885.63" y2="1012.86" gradientTransform="matrix(-0.39, 0.22, -0.46, -0.82, 1914.33, 341.53)" xlink:href="#Безымянный_градиент_28"/><linearGradient id="Безымянный_градиент_28-4" x1="-139.81" y1="-111.25" x2="-120.4" y2="-111.25" xlink:href="#Безымянный_градиент_28"/></defs><rect class="cls-1" x="-56.76" y="-56.8" width="158.43" height="199.31"/><circle class="cls-2" cx="63.6" cy="47.35" r="21.8"/><polygon class="cls-3" points="417.5 -8.21 316.67 99.22 355.2 -37.31 417.5 -8.21"/><polygon class="cls-4" points="-32 -11.46 182.65 291.4 -128.73 150.17 -32 -11.46"/><g id="outline"><path class="cls-5" d="M164.49,58.36h53.89a2.45,2.45,0,0,0,0-4.9H164.49a2.45,2.45,0,1,0,0,4.9Z"/><path class="cls-6" d="M164.49,73.06h53.89a2.45,2.45,0,0,0,0-4.9H164.49a2.45,2.45,0,0,0,0,4.9Z"/><path class="cls-7" d="M164.49,87.75h53.89a2.45,2.45,0,0,0,0-4.9H164.49a2.45,2.45,0,0,0,0,4.9Z"/><path class="cls-8" d="M164.49,102.45h53.89a2.45,2.45,0,0,0,0-4.9H164.49a2.45,2.45,0,0,0,0,4.9Z"/><path class="cls-9" d="M164.49,117.15h19.59a2.45,2.45,0,0,0,0-4.9H164.49a2.45,2.45,0,0,0,0,4.9Z"/><path class="cls-10" d="M261.28,84.39A7.37,7.37,0,0,0,251.22,87l-5.9,10.08V36.32a2.45,2.45,0,0,0-2.45-2.45H224.29s-7.36-7.5-7.66-7.25a2.37,2.37,0,0,0-.7-.1h-71A2.45,2.45,0,0,0,142.44,29v7.66a9.8,9.8,0,0,0,0,19v5.52a9.8,9.8,0,0,0,0,19v5.52a9.8,9.8,0,0,0,0,19v3.07a9.8,9.8,0,0,0,0,19v15a2.45,2.45,0,0,0,2.45,2.45h2.45v7.35a2.45,2.45,0,0,0,2.45,2.45H212l-1.67,2.86a2.31,2.31,0,0,0-.3.83.08.08,0,0,0,0,0v0h0l-2,13A2.46,2.46,0,0,0,212,173l10.41-8.09c.67-.52,1-.84,1-1.26l5.7-9.73h13.8a2.45,2.45,0,0,0,2.45-2.45V126.16L263.9,94.44A7.35,7.35,0,0,0,261.28,84.39Zm-4.33,4A2.45,2.45,0,0,1,259.68,92l-1.24,2.11-4.23-2.48,1.24-2.11A2.45,2.45,0,0,1,257,88.36Zm-36.9,71.23-4.23-2.48L248,102.17l4.23,2.48ZM218.38,34.88l8.78,8.78h-8.78ZM250.5,97.94l1.24-2.11L256,98.31l-1.24,2.11ZM240.42,38.77V104.9a2.42,2.42,0,0,0,.05.47l-4.95,8.44V46.11a2.48,2.48,0,0,0-.71-1.73h0l-5.61-5.61Zm-93.08-7.35h66.14V46.11a2.44,2.44,0,0,0,2.45,2.45h14.69v73.61l-10,17H147.34V126.63a9.77,9.77,0,0,0,7-7,2.45,2.45,0,0,0-4.74-1.22h0a4.93,4.93,0,0,1-2.3,3v-16.8a9.79,9.79,0,0,0,7-7,2.45,2.45,0,0,0-4.74-1.22h0a4.88,4.88,0,0,1-2.3,3V80.1a9.79,9.79,0,0,0,7-7,2.45,2.45,0,0,0-4.74-1.22h0a4.9,4.9,0,0,1-2.3,3V55.6a9.79,9.79,0,0,0,7-7,2.45,2.45,0,0,0-4.74-1.22,4.88,4.88,0,0,1-2.3,3ZM140,46.11a4.92,4.92,0,0,1,2.45-4.23v8.47A4.92,4.92,0,0,1,140,46.11Zm0,24.5a4.93,4.93,0,0,1,2.45-4.24v8.47A4.91,4.91,0,0,1,140,70.61Zm0,24.49a4.91,4.91,0,0,1,2.45-4.23v8.47A4.93,4.93,0,0,1,140,95.1Zm0,22.05a4.92,4.92,0,0,1,2.45-4.24v8.47A4.92,4.92,0,0,1,140,117.15ZM152.24,149v-4.9h65.54l-2.87,4.9Zm62.11,12.94,2.21,1.3-2.72,2.11ZM240.42,149h-8.48l8.48-14.47Z"/></g><path class="cls-11" d="M405.73,64.27s-67.27,4.39-49.67,52.93-7.77,20.92-62.38,53.92-40.31,39-40.31,39l152.3-4.8Z"/><polygon class="cls-12" points="380.72 137.67 316.67 134.48 363.99 102.3 380.72 137.67"/><circle class="cls-13" cx="44.6" cy="99.3" r="9.7"/></svg>