<svg id="Слой_1" data-name="Слой 1" xmlns="http://www.w3.org/2000/svg" xmlns:xlink="http://www.w3.org/1999/xlink" viewBox="0 0 400 200"><defs><style>.cls-1,.cls-9{fill:none;stroke-miterlimit:10;stroke-width:7px;}.cls-1{stroke:url(#Безымянный_градиент_28);}.cls-2{fill:url(#Безымянный_градиент_105);}.cls-3{fill:url(#Безымянный_градиент_105-2);}.cls-4{fill:url(#Безымянный_градиент_105-3);}.cls-5{fill:url(#Безымянный_градиент_105-4);}.cls-6{fill:url(#Безымянный_градиент_105-5);}.cls-7{fill:url(#Безымянный_градиент_101);}.cls-8{fill:url(#Безымянный_градиент_18);}.cls-9{stroke:url(#Безымянный_градиент_76);}.cls-10{fill:url(#Безымянный_градиент_18-2);}.cls-11{fill:url(#Безымянный_градиент_18-3);}</style><linearGradient id="Безымянный_градиент_28" x1="174.1" y1="197.12" x2="535.37" y2="197.12" gradientTransform="matrix(-0.47, 0.92, -0.99, -0.71, 754.52, 32.95)" gradientUnits="userSpaceOnUse"><stop offset="0" stop-color="#fbc31b"/><stop offset="0.05" stop-color="#f9b71e"/><stop offset="0.21" stop-color="#f29926"/><stop offset="0.38" stop-color="#ed812c"/><stop offset="0.56" stop-color="#ea7031"/><stop offset="0.76" stop-color="#e86633"/><stop offset="1" stop-color="#e76334"/></linearGradient><linearGradient id="Безымянный_градиент_105" x1="227.55" y1="52.78" x2="251.16" y2="52.78" gradientUnits="userSpaceOnUse"><stop offset="0" stop-color="#fbc31b"/><stop offset="0.18" stop-color="#f6ad21"/><stop offset="0.54" stop-color="#ee852b"/><stop offset="0.83" stop-color="#e96c32"/><stop offset="1" stop-color="#e76334"/></linearGradient><linearGradient id="Безымянный_градиент_105-2" x1="132.84" y1="92.13" x2="156.71" y2="92.13" xlink:href="#Безымянный_градиент_105"/><linearGradient id="Безымянный_градиент_105-3" x1="243.55" y1="76.39" x2="267.16" y2="76.39" xlink:href="#Безымянный_градиент_105"/><linearGradient id="Безымянный_градиент_105-4" x1="140.97" y1="123.61" x2="164.58" y2="123.61" xlink:href="#Безымянный_градиент_105"/><linearGradient id="Безымянный_градиент_105-5" x1="132.84" y1="100" x2="267.16" y2="100" xlink:href="#Безымянный_градиент_105"/><linearGradient id="Безымянный_градиент_101" x1="267.16" y1="52.31" x2="449.2" y2="52.31" gradientUnits="userSpaceOnUse"><stop offset="0.08" stop-color="#df1d4d"/><stop offset="0.41" stop-color="#e01e5d"/><stop offset="1" stop-color="#e12284"/></linearGradient><linearGradient id="Безымянный_градиент_18" x1="-56.56" y1="43.28" x2="124.35" y2="43.28" gradientTransform="translate(-8.55 11.13) rotate(-15.8)" gradientUnits="userSpaceOnUse"><stop offset="0" stop-color="#e12284"/><stop offset="0.08" stop-color="#c72f8b"/><stop offset="0.21" stop-color="#a34195"/><stop offset="0.35" stop-color="#86509c"/><stop offset="0.48" stop-color="#725aa2"/><stop offset="0.61" stop-color="#6660a5"/><stop offset="0.74" stop-color="#6262a6"/></linearGradient><linearGradient id="Безымянный_градиент_76" x1="-15.55" y1="278.61" x2="7.21" y2="-78.84" gradientTransform="translate(57.6 35.98) rotate(21.73)" gradientUnits="userSpaceOnUse"><stop offset="0" stop-color="#49ad52"/><stop offset="0.14" stop-color="#44ac68"/><stop offset="0.42" stop-color="#38a8a2"/><stop offset="0.66" stop-color="#2da5d7"/></linearGradient><linearGradient id="Безымянный_градиент_18-2" x1="59.31" y1="190.57" x2="121.87" y2="190.57" gradientTransform="matrix(1, 0, 0, 1, 0, 0)" xlink:href="#Безымянный_градиент_18"/><linearGradient id="Безымянный_градиент_18-3" x1="24.35" y1="146.2" x2="48.02" y2="146.2" gradientTransform="matrix(1, 0, 0, 1, 0, 0)" xlink:href="#Безымянный_градиент_18"/></defs><polygon class="cls-1" points="565.4 164.5 209.08 297.15 435.67 29.52 565.4 164.5"/><path class="cls-2" d="M231.48,64.59h7.87a4,4,0,0,0,3.94-3.94V54.41l1.15,1.15A3.93,3.93,0,0,0,250,50l-7.87-7.87a3.92,3.92,0,0,0-6.71,2.78V56.72h-3.94a3.94,3.94,0,0,0,0,7.87Z"/><path class="cls-3" d="M136.78,103.94h8.13a3.94,3.94,0,0,0,3.93-3.94V93.76L150,94.91a3.93,3.93,0,0,0,5.56-5.56l-7.87-7.87A3.94,3.94,0,0,0,141,84.26V96.07h-4.19a3.94,3.94,0,1,0,0,7.87Z"/><path class="cls-4" d="M263.22,72.46h-3.93V68.52a3.94,3.94,0,0,0-7.87,0v3.94h-3.94a3.94,3.94,0,0,0,0,7.87h3.94v3.93a3.94,3.94,0,1,0,7.87,0V80.33h3.93a3.94,3.94,0,1,0,0-7.87Z"/><path class="cls-5" d="M152.78,111.81a3.94,3.94,0,0,0-3.94,3.93v3.94h-3.93a3.94,3.94,0,1,0,0,7.87h3.93v3.93a3.94,3.94,0,1,0,7.87,0v-3.93h3.94a3.94,3.94,0,0,0,0-7.87h-3.94v-3.94A3.93,3.93,0,0,0,152.78,111.81Z"/><path class="cls-6" d="M263.22,159.29H234.74A11.83,11.83,0,0,0,232,147a84.89,84.89,0,0,1-20.15-33.18V98.46a27.29,27.29,0,0,1,15.67,18.47l.42,1.69a11.81,11.81,0,0,0,22.9-5.75l-.42-1.68a51.06,51.06,0,0,0-49.61-38.73h-.41a15.71,15.71,0,1,0-2.86-.19,27.63,27.63,0,0,1-23.73-21.91l-1.55-8a11.8,11.8,0,0,0-23.15,4.6l1.55,8a51.28,51.28,0,0,0,37.57,39.51v13.65a46.35,46.35,0,0,0-23.61,40.39v6.86a11.68,11.68,0,0,0,.68,3.93H136.78a3.94,3.94,0,1,0,0,7.87H263.22a3.94,3.94,0,1,0,0-7.87ZM192.13,56.72A7.87,7.87,0,1,1,200,64.59,7.88,7.88,0,0,1,192.13,56.72Zm-4.61,102.57a11.94,11.94,0,0,0,.67-3.94V148.5a22.63,22.63,0,0,1,6.06-15.38,108.57,108.57,0,0,0,16.88,26.17Zm38.87-1.15a3.92,3.92,0,0,1-5.56,0,100,100,0,0,1-21.45-33,4,4,0,0,0-2.53-2.3,3.84,3.84,0,0,0-1.12-.16,3.93,3.93,0,0,0-2.24.7,30.58,30.58,0,0,0-13.17,25.09v6.86a3.94,3.94,0,0,1-7.87,0V148.5A38.21,38.21,0,0,1,193.87,114a3.93,3.93,0,0,0,2.19-3.52V91.3a3.92,3.92,0,0,0-3.21-3.87,43.65,43.65,0,0,1-34.51-34l-1.55-8a3.93,3.93,0,0,1,7.71-1.56l1.55,8a35.5,35.5,0,0,0,34.72,28.46,43.22,43.22,0,0,1,42,32.77l.42,1.69a3.94,3.94,0,0,1-7.64,1.91l-.42-1.68a35.18,35.18,0,0,0-26.35-25.81A3.94,3.94,0,0,0,203.93,93v21.43a3.76,3.76,0,0,0,.21,1.24,92,92,0,0,0,22.25,36.86,3.94,3.94,0,0,1,0,5.57Z"/><path class="cls-7" d="M267.16-24c.62,0,157.09,191.15,157.09,191.15L449.2-16.06,366.43-62.54Z"/><path class="cls-8" d="M100.57-51.07s25.79,44.16-.3,74.21c-16.7,19.23,5.36,28.06-12.85,50.73C70,95.56,36.17,86.17,21.76,93.4-3.9,106.28-10.69,133-10.69,133L-63.25,25.59Z"/><polygon class="cls-9" points="54.66 337.06 -110.27 23.42 -47.09 -93.67 131.38 255.95 54.66 337.06"/><circle class="cls-10" cx="90.59" cy="190.57" r="31.28"/><circle class="cls-11" cx="36.18" cy="146.2" r="11.84"/></svg>