<svg id="Слой_1" data-name="Слой 1" xmlns="http://www.w3.org/2000/svg" xmlns:xlink="http://www.w3.org/1999/xlink" viewBox="0 0 400 200"><defs><style>.cls-1,.cls-5{fill:none;stroke-miterlimit:10;stroke-width:7px;}.cls-1{stroke:url(#Безымянный_градиент_6);}.cls-2{fill:url(#Безымянный_градиент_95);}.cls-3{fill:url(#Безымянный_градиент_95-2);}.cls-4{fill:url(#Безымянный_градиент_95-3);}.cls-5{stroke:url(#Безымянный_градиент_3);}.cls-6{fill:url(#Безымянный_градиент_28);}.cls-7{fill:url(#Безымянный_градиент_3-2);}.cls-8{fill:url(#Безымянный_градиент_3-3);}.cls-9{fill:url(#Безымянный_градиент_3-4);}.cls-10{fill:url(#Безымянный_градиент_3-5);}.cls-11{fill:url(#Безымянный_градиент_3-6);}</style><linearGradient id="Безымянный_градиент_6" x1="263.1" y1="102.08" x2="404" y2="101.57" gradientUnits="userSpaceOnUse"><stop offset="0.51" stop-color="#6262a6"/><stop offset="0.68" stop-color="#984797"/><stop offset="0.82" stop-color="#c0338d"/><stop offset="0.93" stop-color="#d82686"/><stop offset="1" stop-color="#e12284"/></linearGradient><linearGradient id="Безымянный_градиент_95" x1="-50.3" y1="-4.84" x2="105.04" y2="135.46" gradientUnits="userSpaceOnUse"><stop offset="0" stop-color="#e12284"/><stop offset="0.14" stop-color="#d82686"/><stop offset="0.37" stop-color="#c0338d"/><stop offset="0.66" stop-color="#984797"/><stop offset="1" stop-color="#6262a6"/></linearGradient><linearGradient id="Безымянный_градиент_95-2" x1="306.5" y1="143.96" x2="357.5" y2="143.96" xlink:href="#Безымянный_градиент_95"/><linearGradient id="Безымянный_градиент_95-3" x1="355" y1="87.59" x2="378" y2="87.59" xlink:href="#Безымянный_градиент_95"/><linearGradient id="Безымянный_градиент_3" x1="131.65" y1="152.57" x2="24.44" y2="332.61" gradientTransform="matrix(0.86, -0.01, -0.01, 0.87, -10.37, 31.39)" gradientUnits="userSpaceOnUse"><stop offset="0" stop-color="#49ad52"/><stop offset="0.2" stop-color="#4e9e62"/><stop offset="0.6" stop-color="#5b788d"/><stop offset="0.81" stop-color="#6262a6"/></linearGradient><linearGradient id="Безымянный_градиент_28" x1="383.44" y1="-141.56" x2="607.44" y2="-141.56" gradientTransform="matrix(0.46, -0.56, 0.77, 0.63, -98.88, 429.21)" gradientUnits="userSpaceOnUse"><stop offset="0" stop-color="#fbc31b"/><stop offset="0.05" stop-color="#f9b71e"/><stop offset="0.21" stop-color="#f29926"/><stop offset="0.38" stop-color="#ed812c"/><stop offset="0.56" stop-color="#ea7031"/><stop offset="0.76" stop-color="#e86633"/><stop offset="1" stop-color="#e76334"/></linearGradient><linearGradient id="Безымянный_градиент_3-2" x1="139.28" y1="100" x2="260.72" y2="100" gradientTransform="matrix(1, 0, 0, 1, 0, 0)" xlink:href="#Безымянный_градиент_3"/><linearGradient id="Безымянный_градиент_3-3" x1="214.02" y1="63.38" x2="223.71" y2="63.38" gradientTransform="matrix(1, 0, 0, 1, 0, 0)" xlink:href="#Безымянный_градиент_3"/><linearGradient id="Безымянный_градиент_3-4" x1="177.66" y1="63.38" x2="187.35" y2="63.38" gradientTransform="matrix(1, 0, 0, 1, 0, 0)" xlink:href="#Безымянный_градиент_3"/><linearGradient id="Безымянный_градиент_3-5" x1="225.34" y1="44.37" x2="231.16" y2="44.37" gradientTransform="matrix(1, 0, 0, 1, 0, 0)" xlink:href="#Безымянный_градиент_3"/><linearGradient id="Безымянный_градиент_3-6" x1="197.79" y1="120.01" x2="203.58" y2="120.01" gradientTransform="matrix(1, 0, 0, 1, 0, 0)" xlink:href="#Безымянный_градиент_3"/></defs><path class="cls-1" d="M400-35S311.36,33.9,332,114.58s-55.88,127.18-55.88,127.18H400.54Z"/><polygon class="cls-2" points="170.26 -27.79 -11.04 252.76 -108.06 -41.21 170.26 -27.79"/><circle class="cls-3" cx="332" cy="143.96" r="25.5"/><circle class="cls-4" cx="366.5" cy="87.59" r="11.5"/><polygon class="cls-5" points="195.46 233.22 -68.51 269.82 -3 104.73 195.46 233.22"/><polygon class="cls-6" points="-54.99 95.11 92.24 16.46 -4.01 147.53 -54.99 95.11"/><path class="cls-7" d="M257.47,134.54a16.19,16.19,0,0,0-10.33-7.88,17.25,17.25,0,0,0-3.23-.52c.14-1.55.21-3.1.21-4.66a50.62,50.62,0,0,0-.34-5.9,16.12,16.12,0,0,0,14.16-15.75c0-8.76-7.39-15.9-16.48-15.9a16.59,16.59,0,0,0-2.64.21,38,38,0,0,0,1.61-24.37,17.59,17.59,0,0,0,10.92-16.15c0-9.72-8.2-17.63-18.29-17.63a18.52,18.52,0,0,0-15.2,7.82,42.64,42.64,0,0,0-34.34,0A18.56,18.56,0,0,0,168.31,26C158.22,26,150,33.9,150,43.62a17.59,17.59,0,0,0,10.92,16.15,38.22,38.22,0,0,0-1.29,9.83,37.8,37.8,0,0,0,2.9,14.54,16.37,16.37,0,0,0-2.63-.21c-9.1,0-16.49,7.14-16.49,15.9a16.13,16.13,0,0,0,14.16,15.75,50.62,50.62,0,0,0-.34,5.9c0,1.6.08,3.2.22,4.79h-.33a17.45,17.45,0,0,0-4.28.55,16.24,16.24,0,0,0-10.33,7.89c-4.07,7.06-3.86,17.5-1.84,24.71A20.41,20.41,0,0,0,160.47,174c.39,0,.77,0,1.16,0h.22a20.65,20.65,0,0,0,17.39-11.34,40.39,40.39,0,0,0,42.06.5c.1.19.2.38.31.57a20.18,20.18,0,0,0,12.64,9.49,21.41,21.41,0,0,0,5.28.67,20.42,20.42,0,0,0,19.78-14.61C261.33,152,261.54,141.6,257.47,134.54ZM155.8,43.62c0-6.53,5.61-11.85,12.51-11.85a12.58,12.58,0,0,1,11.44,7,2.93,2.93,0,0,0,1.69,1.51,2.9,2.9,0,0,0,2.27-.19,36.79,36.79,0,0,1,33.95,0,2.87,2.87,0,0,0,4-1.32,12.59,12.59,0,0,1,11.44-7c6.9,0,12.51,5.32,12.51,11.85A11.8,11.8,0,0,1,238.5,54.3a38.49,38.49,0,0,0-2.37-4.55,2.89,2.89,0,1,0-4.94,3,32.75,32.75,0,0,1,2.91,6.13.94.94,0,0,0,.06.15,32.14,32.14,0,0,1,1.78,10.57c0,17.6-14.27,32.09-32.36,33.49V81.59A10.87,10.87,0,0,0,210.72,72c0-2.1-1-7-10-7s-10,4.9-10,7a10.87,10.87,0,0,0,7.14,9.62v21.5c-18.08-1.4-32.35-15.89-32.35-33.49a32,32,0,0,1,1.83-10.72,2.9,2.9,0,0,0-2.05-3.77A12,12,0,0,1,155.8,43.62Zm44.89,81.84a2.9,2.9,0,0,0-2.9,2.9v8.76A20.22,20.22,0,0,1,184,105.6a42.61,42.61,0,0,0,33.31,0,20.22,20.22,0,0,1-13.76,31.52v-8.76A2.9,2.9,0,0,0,200.69,125.46ZM196.44,72c0-.28,0-.4.47-.63a8.82,8.82,0,0,1,3.78-.59,8.72,8.72,0,0,1,3.77.59c.48.23.48.35.48.63,0,1.63-2,4.33-4.25,4.33S196.44,73.6,196.44,72Zm-23.05,89a14.54,14.54,0,0,1-9.07,6.77,15.71,15.71,0,0,1-2.88.46h0q-.48,0-1,0a14.61,14.61,0,0,1-14.21-10.38c-1.64-5.85-1.93-14.68,1.28-20.26a10.5,10.5,0,0,1,6.76-5.18,11.66,11.66,0,0,1,2.84-.37,10.7,10.7,0,0,1,2.84.39l.13,0c7.45,2.13,12.8,11.83,14.59,18.22A13.28,13.28,0,0,1,173.39,161Zm46.34-12a19.05,19.05,0,0,0-.4,8.58,34.63,34.63,0,0,1-38.51-.79,19.17,19.17,0,0,0-.55-7.63c-2.11-7.52-8-18-16.84-21.62a46.69,46.69,0,0,1,.33-14.19,2.87,2.87,0,0,0-.69-2.44,2.83,2.83,0,0,0-2.35-.95l-.8,0c-5.9,0-10.71-4.54-10.71-10.12S154,89.72,159.92,89.72a11,11,0,0,1,7.49,2.89,40.52,40.52,0,0,0,11.44,10.32,26,26,0,1,0,43.68,0A40.79,40.79,0,0,0,234,92.61a10.91,10.91,0,0,1,7.49-2.89c5.9,0,10.7,4.53,10.7,10.11S247.36,110,241.46,110l-.8,0a2.86,2.86,0,0,0-2.36.95,2.9,2.9,0,0,0-.69,2.44,46.37,46.37,0,0,1,.73,8.16,47.88,47.88,0,0,1-.31,5.36C228.42,129.79,222,141.05,219.73,149Zm34,8.72a14.61,14.61,0,0,1-14.21,10.38,15.74,15.74,0,0,1-3.85-.48,14.5,14.5,0,0,1-9.06-6.78,13.27,13.27,0,0,1-1.32-10.28c1.88-6.72,7.71-17.12,15.79-18.49h.09a10.39,10.39,0,0,1,1.68-.14,11.32,11.32,0,0,1,2.85.37,10.49,10.49,0,0,1,6.75,5.17C255.68,143,255.38,151.84,253.74,157.69Z"/><path class="cls-8" d="M218.87,58.75a4.64,4.64,0,1,0,4.84,4.63A4.75,4.75,0,0,0,218.87,58.75Z"/><path class="cls-9" d="M182.5,58.75a4.64,4.64,0,1,0,4.85,4.63A4.75,4.75,0,0,0,182.5,58.75Z"/><path class="cls-10" d="M230.32,42.35l-.07-.07a2.89,2.89,0,1,0-4,4.14l0,0a2.87,2.87,0,0,0,2,.84,2.89,2.89,0,0,0,2-4.93Z"/><path class="cls-11" d="M200.69,117.09a2.89,2.89,0,0,0-2.9,2.89v.07a2.9,2.9,0,0,0,5.79,0V120A2.89,2.89,0,0,0,200.69,117.09Z"/></svg>