<svg id="Слой_1" data-name="Слой 1" xmlns="http://www.w3.org/2000/svg" xmlns:xlink="http://www.w3.org/1999/xlink" viewBox="0 0 400 200"><defs><style>.cls-1,.cls-3{fill:none;stroke-miterlimit:10;stroke-width:7px;}.cls-1{stroke:url(#Безымянный_градиент_3);}.cls-2{fill:url(#Безымянный_градиент_3-2);}.cls-3{stroke:url(#Безымянный_градиент_24);}.cls-4{fill:url(#Безымянный_градиент_22);}.cls-5{fill:url(#Безымянный_градиент_72);}.cls-6{fill:url(#Безымянный_градиент_72-2);}.cls-7{fill:url(#Безымянный_градиент_71);}.cls-8{fill:url(#Безымянный_градиент_71-2);}.cls-9{fill:url(#Безымянный_градиент_71-3);}.cls-10{fill:url(#Безымянный_градиент_71-4);}.cls-11{fill:url(#Безымянный_градиент_71-5);}.cls-12{fill:url(#Безымянный_градиент_71-6);}</style><linearGradient id="Безымянный_градиент_3" x1="137.14" y1="-394.85" x2="364.19" y2="-442.81" gradientTransform="matrix(0.9, -0.44, -0.44, -0.92, -43.53, -188.65)" gradientUnits="userSpaceOnUse"><stop offset="0" stop-color="#49ad52"/><stop offset="0.2" stop-color="#4e9e62"/><stop offset="0.6" stop-color="#5b788d"/><stop offset="0.81" stop-color="#6262a6"/></linearGradient><linearGradient id="Безымянный_градиент_3-2" x1="-2115.38" y1="1608.78" x2="-1773.58" y2="1608.78" gradientTransform="matrix(0.06, -0.96, 1.01, 0.06, -1459.87, -1782.96)" xlink:href="#Безымянный_градиент_3"/><linearGradient id="Безымянный_градиент_24" x1="64.8" y1="-113.44" x2="-53.43" y2="235.98" gradientUnits="userSpaceOnUse"><stop offset="0" stop-color="#e12284"/><stop offset="0.33" stop-color="#a14295"/><stop offset="0.6" stop-color="#7359a1"/><stop offset="0.73" stop-color="#6262a6"/></linearGradient><linearGradient id="Безымянный_градиент_22" x1="300.17" y1="69.53" x2="359.86" y2="69.53" gradientUnits="userSpaceOnUse"><stop offset="0" stop-color="#6262a6"/><stop offset="0.34" stop-color="#984797"/><stop offset="0.63" stop-color="#c0338d"/><stop offset="0.86" stop-color="#d82686"/><stop offset="1" stop-color="#e12284"/></linearGradient><linearGradient id="Безымянный_градиент_72" x1="46.19" y1="148.87" x2="92.79" y2="148.87" gradientUnits="userSpaceOnUse"><stop offset="0.19" stop-color="#6262a6"/><stop offset="0.4" stop-color="#5b788d"/><stop offset="0.8" stop-color="#4e9e62"/><stop offset="1" stop-color="#49ad52"/></linearGradient><linearGradient id="Безымянный_градиент_72-2" x1="47.7" y1="103.63" x2="67.06" y2="103.63" xlink:href="#Безымянный_градиент_72"/><linearGradient id="Безымянный_градиент_71" x1="128.63" y1="100" x2="271.37" y2="100" gradientUnits="userSpaceOnUse"><stop offset="0.08" stop-color="#df1d4d"/><stop offset="0.23" stop-color="#e01e5d"/><stop offset="0.5" stop-color="#e02073"/><stop offset="0.76" stop-color="#e12280"/><stop offset="1" stop-color="#e12284"/></linearGradient><linearGradient id="Безымянный_градиент_71-2" x1="188.12" y1="54.79" x2="202.4" y2="54.79" xlink:href="#Безымянный_градиент_71"/><linearGradient id="Безымянный_градиент_71-3" x1="211.92" y1="54.79" x2="226.19" y2="54.79" xlink:href="#Безымянный_градиент_71"/><linearGradient id="Безымянный_градиент_71-4" x1="192.88" y1="75.02" x2="221.43" y2="75.02" xlink:href="#Безымянный_градиент_71"/><linearGradient id="Безымянный_градиент_71-5" x1="242.85" y1="92.86" x2="257.13" y2="92.86" xlink:href="#Безымянный_градиент_71"/><linearGradient id="Безымянный_градиент_71-6" x1="223.81" y1="113.09" x2="252.37" y2="113.09" xlink:href="#Безымянный_градиент_71"/></defs><path class="cls-1" d="M322.12,232.45s-45,7.59-36.66-22.28,101.63-44.25,54.1-100.43,30.21-62.94-2.49-94.51-29.79-81.85-29.79-81.85l136.08,18.2,72.21,264.49Z"/><polygon class="cls-2" points="166.19 362.3 -103.77 142.05 -88.83 16.16 207.11 263.56 166.19 362.3"/><polygon class="cls-3" points="175.06 -71.94 -71.72 218.37 -55.41 -128.1 175.06 -71.94"/><polygon class="cls-4" points="344.94 43.68 315.1 43.68 300.17 69.53 315.1 95.37 344.94 95.37 359.86 69.53 344.94 43.68"/><polygon class="cls-5" points="81.14 128.7 57.84 128.7 46.19 148.87 57.84 169.05 81.14 169.05 92.79 148.87 81.14 128.7"/><polygon class="cls-6" points="62.22 95.24 52.54 95.24 47.7 103.63 52.54 112.01 62.22 112.01 67.06 103.63 62.22 95.24"/><g id="Page-1"><g id="_052---Split-Personality" data-name="052---Split-Personality"><path id="Shape" class="cls-7" d="M132.13,117.59A18.43,18.43,0,0,0,134.6,119c1,.53,2.76,1.41,2.88,2a4.15,4.15,0,0,1-.28,2.41c-.36.76-.73,1.42-1,2-.87,1.54-2.33,4.12-.13,5.92.51.47,1.4,1.16,2.21,1.78a6,6,0,0,0-.77,3.43,3.41,3.41,0,0,0,1.41,2.35c.53.37,1.09.69,1.65,1,1.4.8,1.95,1.17,2.14,1.92a6.56,6.56,0,0,1-.24,2.85,18.76,18.76,0,0,0-.35,1.91,14.14,14.14,0,0,0,.78,6.41,8.9,8.9,0,0,0,8.41,6.48,9.1,9.1,0,0,0,2-.21,177.93,177.93,0,0,0,20.07-6c5.36,3.15,8.74,12.71,9.63,16.3a2.38,2.38,0,0,0,2.31,1.81l59.72-.17a2.38,2.38,0,0,0,2.27-3.09,18.36,18.36,0,0,0-2.41-4.52,22.52,22.52,0,0,1-1.54-2.58,44.8,44.8,0,0,1-2.69-6.77,79.5,79.5,0,0,1-2.81-14.07,38.79,38.79,0,0,1-.13-6.9l.45,0a33.31,33.31,0,0,0,18.68-60.88,66,66,0,0,0-1.82-9.14,39.72,39.72,0,0,0-14.22-20.46,69,69,0,0,0-19.83-11.26,1.66,1.66,0,0,0-.21-.06,33,33,0,0,0-13.52-2.89c-.48,0-.94.05-1.41.07l-.09,0c-1.95-.09-3.78-.07-5.6,0A159.55,159.55,0,0,0,177,32c-10.72,2.15-18.52,5.9-23.85,11.53a45.65,45.65,0,0,0-9.54,15.57,64.84,64.84,0,0,0-2.11,7.6l-.24,1a30,30,0,0,1-2,5.42c-.47,1.09-1,2.17-1.39,3.3a8,8,0,0,0-.63,4,9.1,9.1,0,0,0,3.47,5.32c1.16,1.07,1.93,1.82,1.94,2.48a4.18,4.18,0,0,1-.41,1,91.71,91.71,0,0,1-10.42,16.93c-1.72,2.1-3.52,4.54-3.14,7A7.3,7.3,0,0,0,132.13,117.59ZM266.65,100a28.6,28.6,0,0,1-28.56,28.56c-.81,0-1.6-.06-2.39-.12h0A28.3,28.3,0,0,1,210,95.1a32.89,32.89,0,0,0,9.07-2.1,7.14,7.14,0,1,0,10.42-6.42,33.26,33.26,0,0,0,9.56-15.08A28.58,28.58,0,0,1,266.65,100ZM207.16,33.37A28.56,28.56,0,1,1,178.6,61.93,28.56,28.56,0,0,1,207.16,33.37Zm21.41,59.49a2.38,2.38,0,1,1-2.38-2.38A2.37,2.37,0,0,1,228.57,92.86Zm21.8-28.26c.44,1.55.81,3.21,1.13,4.93a32.89,32.89,0,0,0-11.42-2.74,32.39,32.39,0,0,0-4.2-21.66l1.9,1.45A34.52,34.52,0,0,1,250.37,64.6ZM135.59,109a95.83,95.83,0,0,0,10.89-17.68,7.13,7.13,0,0,0,.92-3.22,8.33,8.33,0,0,0-3.48-5.94c-.95-.89-1.87-1.72-2-2.49a4.34,4.34,0,0,1,.36-1.63c.39-1,.84-2,1.29-3a34.34,34.34,0,0,0,2.33-6.28l.24-1a57.2,57.2,0,0,1,2-7,40.85,40.85,0,0,1,8.53-14C161.21,42,168.37,38.57,178,36.66c3.06-.63,6.4-1.26,9.85-1.81a33.25,33.25,0,0,0,17.34,60.29,33,33,0,0,0-.39,4.86,33.34,33.34,0,0,0,28.05,32.86,43.45,43.45,0,0,0,.21,7.9,85,85,0,0,0,3,14.92,49.8,49.8,0,0,0,3,7.45,26.2,26.2,0,0,0,1.84,3.11l.16.24-54,.15a38,38,0,0,0-8.38-15.2l2.23-.78c1.56-.54,2.73-1,3.34-1.14,10.19-3.22,15.29-7.85,15.15-13.8a2.38,2.38,0,1,0-4.76.11c.06,2.45-1.95,6-11.84,9.15-.64.2-1.84.62-3.45,1.19-1.78.62-4.06,1.42-6.58,2.27a184.79,184.79,0,0,1-20.47,6.19,4.23,4.23,0,0,1-4.91-3.17,9.48,9.48,0,0,1-.56-4.25c.07-.5.18-1,.29-1.49a10.49,10.49,0,0,0,.2-5.07,7.91,7.91,0,0,0-4.4-4.86l-.49-.28a8.65,8.65,0,0,1,.91-1.48,2.34,2.34,0,0,0,.49-1.78,2.38,2.38,0,0,0-.94-1.6c-.57-.42-1.92-1.43-2.91-2.22.12-.21.24-.44.36-.64.37-.66.8-1.43,1.22-2.3a9,9,0,0,0,.63-5.33c-.57-2.9-3.35-4.33-5.38-5.36a14.11,14.11,0,0,1-2-1.14,9.94,9.94,0,0,1-1.43-1.16C133.39,112.14,133.78,111.26,135.59,109Z"/><path id="Shape-2" data-name="Shape" class="cls-8" d="M195.26,61.93a7.14,7.14,0,1,0-7.14-7.14A7.14,7.14,0,0,0,195.26,61.93Zm0-9.52a2.38,2.38,0,1,1-2.38,2.38A2.39,2.39,0,0,1,195.26,52.41Z"/><path id="Shape-3" data-name="Shape" class="cls-9" d="M219.05,61.93a7.14,7.14,0,1,0-7.13-7.14A7.14,7.14,0,0,0,219.05,61.93Zm0-9.52a2.38,2.38,0,1,1-2.37,2.38A2.38,2.38,0,0,1,219.05,52.41Z"/><path id="Shape-4" data-name="Shape" class="cls-10" d="M197.64,69.07a2.38,2.38,0,0,0-4.76,0,14.28,14.28,0,1,0,28.55,0,2.38,2.38,0,1,0-4.75,0,9.52,9.52,0,0,1-19,0Z"/><path id="Shape-5" data-name="Shape" class="cls-11" d="M250,100a7.14,7.14,0,1,0-7.14-7.14A7.14,7.14,0,0,0,250,100Zm0-9.52a2.38,2.38,0,1,1-2.38,2.38A2.39,2.39,0,0,1,250,90.48Z"/><path id="Shape-6" data-name="Shape" class="cls-12" d="M238.09,104.76A14.3,14.3,0,0,0,223.81,119a2.38,2.38,0,1,0,4.76,0,9.52,9.52,0,0,1,19,0,2.38,2.38,0,1,0,4.76,0A14.3,14.3,0,0,0,238.09,104.76Z"/></g></g></svg>