<svg id="Слой_1" data-name="Слой 1" xmlns="http://www.w3.org/2000/svg" xmlns:xlink="http://www.w3.org/1999/xlink" viewBox="0 0 400 200"><defs><style>.cls-1{fill:url(#Безымянный_градиент_24);}.cls-2,.cls-29{fill:none;stroke-miterlimit:10;stroke-width:7px;}.cls-2{stroke:url(#Безымянный_градиент_79);}.cls-3{fill:url(#Безымянный_градиент_22);}.cls-4{fill:url(#Безымянный_градиент_22-2);}.cls-5{fill:url(#Безымянный_градиент_22-3);}.cls-6{fill:url(#Безымянный_градиент_22-4);}.cls-7{fill:url(#Безымянный_градиент_22-5);}.cls-8{fill:url(#Безымянный_градиент_22-6);}.cls-9{fill:url(#Безымянный_градиент_22-7);}.cls-10{fill:url(#Безымянный_градиент_22-8);}.cls-11{fill:url(#Безымянный_градиент_22-9);}.cls-12{fill:url(#Безымянный_градиент_22-10);}.cls-13{fill:url(#Безымянный_градиент_22-11);}.cls-14{fill:url(#Безымянный_градиент_22-12);}.cls-15{fill:url(#Безымянный_градиент_22-13);}.cls-16{fill:url(#Безымянный_градиент_22-14);}.cls-17{fill:url(#Безымянный_градиент_22-15);}.cls-18{fill:url(#Безымянный_градиент_22-16);}.cls-19{fill:url(#Безымянный_градиент_22-17);}.cls-20{fill:url(#Безымянный_градиент_22-18);}.cls-21{fill:url(#Безымянный_градиент_22-19);}.cls-22{fill:url(#Безымянный_градиент_22-20);}.cls-23{fill:url(#Безымянный_градиент_22-21);}.cls-24{fill:url(#Безымянный_градиент_22-22);}.cls-25{fill:url(#Безымянный_градиент_22-23);}.cls-26{fill:url(#Безымянный_градиент_22-24);}.cls-27{fill:url(#Безымянный_градиент_22-25);}.cls-28{fill:url(#Безымянный_градиент_22-26);}.cls-29{stroke:url(#Безымянный_градиент_22-27);}.cls-30{fill:url(#Безымянный_градиент_28);}.cls-31{fill:url(#Безымянный_градиент_24-2);}.cls-32{fill:url(#Безымянный_градиент_24-3);}</style><linearGradient id="Безымянный_градиент_24" x1="-3635.82" y1="3105.91" x2="-3507.52" y2="3105.91" gradientTransform="matrix(-0.66, -2.16, 1.74, -0.53, -7404.63, -6074.65)" gradientUnits="userSpaceOnUse"><stop offset="0" stop-color="#e12284"/><stop offset="0.33" stop-color="#a14295"/><stop offset="0.6" stop-color="#7359a1"/><stop offset="0.73" stop-color="#6262a6"/></linearGradient><linearGradient id="Безымянный_градиент_79" x1="-97.76" y1="21.35" x2="139.79" y2="307.03" gradientUnits="userSpaceOnUse"><stop offset="0.25" stop-color="#49ad52"/><stop offset="0.41" stop-color="#49ad54"/><stop offset="0.48" stop-color="#47ac5b"/><stop offset="0.52" stop-color="#45ac66"/><stop offset="0.55" stop-color="#41ab77"/><stop offset="0.58" stop-color="#3ca98d"/><stop offset="0.61" stop-color="#37a8a9"/><stop offset="0.63" stop-color="#30a6c8"/><stop offset="0.64" stop-color="#2da5d7"/><stop offset="0.91" stop-color="#2da5d7"/></linearGradient><linearGradient id="Безымянный_градиент_22" x1="124.27" y1="100" x2="275.73" y2="100" gradientUnits="userSpaceOnUse"><stop offset="0" stop-color="#6262a6"/><stop offset="0.34" stop-color="#984797"/><stop offset="0.63" stop-color="#c0338d"/><stop offset="0.86" stop-color="#d82686"/><stop offset="1" stop-color="#e12284"/></linearGradient><linearGradient id="Безымянный_градиент_22-2" x1="180.99" y1="54.96" x2="266.27" y2="54.96" xlink:href="#Безымянный_градиент_22"/><linearGradient id="Безымянный_градиент_22-3" x1="133.73" y1="54.96" x2="143.35" y2="54.96" xlink:href="#Безымянный_градиент_22"/><linearGradient id="Безымянный_градиент_22-4" x1="149.49" y1="54.96" x2="159.1" y2="54.96" xlink:href="#Безымянный_градиент_22"/><linearGradient id="Безымянный_градиент_22-5" x1="165.24" y1="54.96" x2="174.85" y2="54.96" xlink:href="#Безымянный_градиент_22"/><linearGradient id="Безымянный_градиент_22-6" x1="155.06" y1="85.25" x2="169.09" y2="85.25" xlink:href="#Безымянный_градиент_22"/><linearGradient id="Безымянный_градиент_22-7" x1="174.03" y1="85.25" x2="188.05" y2="85.25" xlink:href="#Безымянный_градиент_22"/><linearGradient id="Безымянный_градиент_22-8" x1="211.95" y1="85.25" x2="225.97" y2="85.25" xlink:href="#Безымянный_градиент_22"/><linearGradient id="Безымянный_градиент_22-9" x1="249.87" y1="85.25" x2="263.9" y2="85.25" xlink:href="#Безымянный_градиент_22"/><linearGradient id="Безымянный_градиент_22-10" x1="136.1" y1="111.17" x2="150.13" y2="111.17" xlink:href="#Безымянный_градиент_22"/><linearGradient id="Безымянный_градиент_22-11" x1="155.06" y1="111.17" x2="169.09" y2="111.17" xlink:href="#Безымянный_градиент_22"/><linearGradient id="Безымянный_градиент_22-12" x1="192.98" y1="111.17" x2="207.02" y2="111.17" xlink:href="#Безымянный_градиент_22"/><linearGradient id="Безымянный_градиент_22-13" x1="211.95" y1="111.17" x2="225.97" y2="111.17" xlink:href="#Безымянный_градиент_22"/><linearGradient id="Безымянный_градиент_22-14" x1="230.91" y1="111.17" x2="244.94" y2="111.17" xlink:href="#Безымянный_градиент_22"/><linearGradient id="Безымянный_градиент_22-15" x1="136.1" y1="137.08" x2="150.13" y2="137.08" xlink:href="#Безымянный_градиент_22"/><linearGradient id="Безымянный_градиент_22-16" x1="155.06" y1="137.08" x2="169.09" y2="137.08" xlink:href="#Безымянный_градиент_22"/><linearGradient id="Безымянный_градиент_22-17" x1="174.03" y1="137.08" x2="188.05" y2="137.08" xlink:href="#Безымянный_градиент_22"/><linearGradient id="Безымянный_градиент_22-18" x1="230.91" y1="137.08" x2="244.94" y2="137.08" xlink:href="#Безымянный_градиент_22"/><linearGradient id="Безымянный_градиент_22-19" x1="249.87" y1="137.08" x2="263.9" y2="137.08" xlink:href="#Безымянный_градиент_22"/><linearGradient id="Безымянный_градиент_22-20" x1="136.1" y1="85.25" x2="150.13" y2="85.25" xlink:href="#Безымянный_градиент_22"/><linearGradient id="Безымянный_градиент_22-21" x1="174.03" y1="111.17" x2="188.06" y2="111.17" xlink:href="#Безымянный_градиент_22"/><linearGradient id="Безымянный_градиент_22-22" x1="192.98" y1="137.08" x2="207.02" y2="137.08" xlink:href="#Безымянный_градиент_22"/><linearGradient id="Безымянный_градиент_22-23" x1="211.95" y1="137.08" x2="225.97" y2="137.08" xlink:href="#Безымянный_градиент_22"/><linearGradient id="Безымянный_градиент_22-24" x1="249.87" y1="111.17" x2="263.9" y2="111.17" xlink:href="#Безымянный_градиент_22"/><linearGradient id="Безымянный_градиент_22-25" x1="192.98" y1="85.25" x2="207.02" y2="85.25" xlink:href="#Безымянный_градиент_22"/><linearGradient id="Безымянный_градиент_22-26" x1="230.91" y1="85.25" x2="244.94" y2="85.25" xlink:href="#Безымянный_градиент_22"/><linearGradient id="Безымянный_градиент_22-27" x1="306.32" y1="181.95" x2="464.07" y2="181.95" xlink:href="#Безымянный_градиент_22"/><linearGradient id="Безымянный_градиент_28" x1="1542.31" y1="223.88" x2="1724.12" y2="223.88" gradientTransform="matrix(-0.04, 0.63, -0.94, -0.07, 641.2, -913.64)" gradientUnits="userSpaceOnUse"><stop offset="0" stop-color="#fbc31b"/><stop offset="0.05" stop-color="#f9b71e"/><stop offset="0.21" stop-color="#f29926"/><stop offset="0.38" stop-color="#ed812c"/><stop offset="0.56" stop-color="#ea7031"/><stop offset="0.76" stop-color="#e86633"/><stop offset="1" stop-color="#e76334"/></linearGradient><linearGradient id="Безымянный_градиент_24-2" x1="24.24" y1="120.4" x2="61.04" y2="120.4" gradientTransform="matrix(1, 0, 0, 1, 0, 0)" xlink:href="#Безымянный_градиент_24"/><linearGradient id="Безымянный_градиент_24-3" x1="42.64" y1="73.33" x2="60.67" y2="73.33" gradientTransform="matrix(1, 0, 0, 1, 0, 0)" xlink:href="#Безымянный_градиент_24"/></defs><polygon class="cls-1" points="463.15 111.11 229.34 -4.06 201.25 -111.99 459.33 19.19 463.15 111.11"/><polygon class="cls-2" points="-23.44 -35.16 117.23 308.37 -154.19 100.44 -23.44 -35.16"/><path class="cls-3" d="M267.75,41.72H132.25a8,8,0,0,0-8,8v101.2a7.37,7.37,0,0,0,7.36,7.37H268.37a7.37,7.37,0,0,0,7.36-7.37V49.71A8,8,0,0,0,267.75,41.72Zm3.84,109.19a3.22,3.22,0,0,1-3.22,3.23H131.63a3.23,3.23,0,0,1-3.22-3.23V68.2H271.59Zm0-86.86H128.41V49.71a3.84,3.84,0,0,1,3.84-3.85h135.5a3.84,3.84,0,0,1,3.84,3.85Z"/><path class="cls-4" d="M264.2,52.89H183.06a2.07,2.07,0,1,0,0,4.14H264.2a2.07,2.07,0,0,0,0-4.14Z"/><path class="cls-5" d="M141.28,52.89H135.8a2.07,2.07,0,0,0,0,4.14h5.48a2.07,2.07,0,0,0,0-4.14Z"/><path class="cls-6" d="M157,52.89h-5.47a2.07,2.07,0,1,0,0,4.14H157a2.07,2.07,0,0,0,0-4.14Z"/><path class="cls-7" d="M172.78,52.89h-5.47a2.07,2.07,0,1,0,0,4.14h5.47a2.07,2.07,0,0,0,0-4.14Z"/><path class="cls-8" d="M159.5,94.62h5.16a4.45,4.45,0,0,0,4.43-4.44V80.32a4.43,4.43,0,0,0-4.43-4.43H159.5a4.43,4.43,0,0,0-4.44,4.43v9.86A4.45,4.45,0,0,0,159.5,94.62Zm-.3-14.3a.3.3,0,0,1,.3-.29h5.16a.29.29,0,0,1,.29.29v9.86a.29.29,0,0,1-.29.29H159.5a.3.3,0,0,1-.3-.29Z"/><path class="cls-9" d="M178.46,94.62h5.16a4.45,4.45,0,0,0,4.43-4.44V80.32a4.43,4.43,0,0,0-4.44-4.43h-5.15A4.43,4.43,0,0,0,174,80.32v9.86A4.44,4.44,0,0,0,178.46,94.62Zm-.29-14.3a.29.29,0,0,1,.29-.29h5.16a.29.29,0,0,1,.29.29v9.86a.29.29,0,0,1-.29.29h-5.16a.29.29,0,0,1-.29-.29Z"/><path class="cls-10" d="M216.38,94.62h5.16A4.44,4.44,0,0,0,226,90.18V80.32a4.43,4.43,0,0,0-4.43-4.43h-5.16A4.43,4.43,0,0,0,212,80.32v9.86A4.44,4.44,0,0,0,216.38,94.62Zm-.29-14.3a.3.3,0,0,1,.3-.29h5.15a.29.29,0,0,1,.29.29v9.86a.29.29,0,0,1-.29.29h-5.16a.29.29,0,0,1-.29-.29Z"/><path class="cls-11" d="M254.31,94.62h5.15a4.45,4.45,0,0,0,4.44-4.44V80.32a4.43,4.43,0,0,0-4.44-4.43h-5.15a4.43,4.43,0,0,0-4.44,4.43v9.86A4.45,4.45,0,0,0,254.31,94.62Zm-.3-14.3a.29.29,0,0,1,.3-.29h5.15a.29.29,0,0,1,.3.29v9.86a.29.29,0,0,1-.3.29h-5.15a.29.29,0,0,1-.3-.29Z"/><path class="cls-12" d="M140.54,120.53h5.15a4.44,4.44,0,0,0,4.44-4.44v-9.85a4.44,4.44,0,0,0-4.44-4.44h-5.15a4.45,4.45,0,0,0-4.44,4.44v9.85A4.44,4.44,0,0,0,140.54,120.53Zm-.3-14.29a.3.3,0,0,1,.3-.3h5.15a.3.3,0,0,1,.3.3v9.85a.29.29,0,0,1-.3.3h-5.15a.29.29,0,0,1-.3-.3Z"/><path class="cls-13" d="M159.5,120.53h5.16a4.44,4.44,0,0,0,4.43-4.44v-9.85a4.45,4.45,0,0,0-4.43-4.44H159.5a4.45,4.45,0,0,0-4.44,4.44v9.85A4.44,4.44,0,0,0,159.5,120.53Zm-.3-14.29a.31.31,0,0,1,.3-.3h5.16a.3.3,0,0,1,.29.3v9.85a.29.29,0,0,1-.29.3H159.5a.3.3,0,0,1-.3-.3Z"/><path class="cls-14" d="M197.42,120.53h5.16a4.45,4.45,0,0,0,4.44-4.44v-9.85a4.46,4.46,0,0,0-4.44-4.44h-5.16a4.46,4.46,0,0,0-4.44,4.44v9.85A4.45,4.45,0,0,0,197.42,120.53Zm-.29-14.29a.3.3,0,0,1,.29-.3h5.16a.3.3,0,0,1,.29.3v9.85a.29.29,0,0,1-.29.3h-5.16a.29.29,0,0,1-.29-.3Z"/><path class="cls-15" d="M216.38,120.53h5.16a4.43,4.43,0,0,0,4.43-4.44v-9.85a4.43,4.43,0,0,0-4.43-4.44h-5.16a4.43,4.43,0,0,0-4.43,4.44v9.85A4.43,4.43,0,0,0,216.38,120.53Zm-.29-14.29a.31.31,0,0,1,.3-.3h5.15a.3.3,0,0,1,.29.3v9.85a.29.29,0,0,1-.29.3h-5.16a.29.29,0,0,1-.29-.3Z"/><path class="cls-16" d="M235.34,120.53h5.16a4.44,4.44,0,0,0,4.44-4.44v-9.85a4.45,4.45,0,0,0-4.44-4.44h-5.16a4.45,4.45,0,0,0-4.43,4.44v9.85A4.43,4.43,0,0,0,235.34,120.53Zm-.29-14.29a.3.3,0,0,1,.29-.3h5.16a.31.31,0,0,1,.3.3v9.85a.3.3,0,0,1-.3.3h-5.16a.29.29,0,0,1-.29-.3Z"/><path class="cls-17" d="M140.54,146.45h5.15a4.45,4.45,0,0,0,4.44-4.44v-9.86a4.43,4.43,0,0,0-4.44-4.43h-5.15a4.44,4.44,0,0,0-4.44,4.43V142A4.45,4.45,0,0,0,140.54,146.45Zm-.3-14.3a.29.29,0,0,1,.3-.29h5.15a.29.29,0,0,1,.3.29V142a.29.29,0,0,1-.3.29h-5.15a.29.29,0,0,1-.3-.29Z"/><path class="cls-18" d="M159.5,146.45h5.16a4.45,4.45,0,0,0,4.43-4.44v-9.86a4.44,4.44,0,0,0-4.43-4.43H159.5a4.44,4.44,0,0,0-4.44,4.43V142A4.45,4.45,0,0,0,159.5,146.45Zm-.3-14.3a.3.3,0,0,1,.3-.29h5.16a.29.29,0,0,1,.29.29V142a.29.29,0,0,1-.29.29H159.5a.3.3,0,0,1-.3-.29Z"/><path class="cls-19" d="M178.46,146.45h5.16a4.45,4.45,0,0,0,4.43-4.44v-9.86a4.43,4.43,0,0,0-4.44-4.43h-5.15a4.43,4.43,0,0,0-4.43,4.43V142A4.44,4.44,0,0,0,178.46,146.45Zm-.29-14.3a.29.29,0,0,1,.29-.29h5.16a.29.29,0,0,1,.29.29V142a.29.29,0,0,1-.29.29h-5.16a.29.29,0,0,1-.29-.29Z"/><path class="cls-20" d="M235.34,146.45h5.16a4.45,4.45,0,0,0,4.44-4.44v-9.86a4.44,4.44,0,0,0-4.44-4.43h-5.16a4.44,4.44,0,0,0-4.43,4.43V142A4.44,4.44,0,0,0,235.34,146.45Zm-.29-14.3a.29.29,0,0,1,.29-.29h5.16a.3.3,0,0,1,.3.29V142a.3.3,0,0,1-.3.29h-5.16a.29.29,0,0,1-.29-.29Z"/><path class="cls-21" d="M254.31,146.45h5.15A4.45,4.45,0,0,0,263.9,142v-9.86a4.44,4.44,0,0,0-4.44-4.43h-5.15a4.43,4.43,0,0,0-4.44,4.43V142A4.45,4.45,0,0,0,254.31,146.45Zm-.3-14.3a.29.29,0,0,1,.3-.29h5.15a.29.29,0,0,1,.3.29V142a.29.29,0,0,1-.3.29h-5.15a.29.29,0,0,1-.3-.29Z"/><path class="cls-22" d="M138.17,90.47a2.08,2.08,0,0,0,0,4.15h9.89a2.08,2.08,0,0,0,0-4.15h-2.87V78a2.07,2.07,0,0,0-2.07-2.07,2,2,0,0,0-1.28.44l-5,3.9a2.07,2.07,0,0,0,2.56,3.25l1.6-1.25v8.25Z"/><path class="cls-23" d="M176.1,120.53H186a2.07,2.07,0,1,0,0-4.14h-2.87V103.87A2.07,2.07,0,0,0,181,101.8a2,2,0,0,0-1.28.45l-4.95,3.89a2.08,2.08,0,0,0,2.57,3.26l1.59-1.26v8.25H176.1a2.07,2.07,0,1,0,0,4.14Z"/><path class="cls-24" d="M195.05,146.45H205a2.08,2.08,0,0,0,0-4.15h-2.88V129.79a2.07,2.07,0,0,0-2.07-2.07,2,2,0,0,0-1.28.44l-4.95,3.9a2.07,2.07,0,0,0,2.56,3.25l1.59-1.25v8.25h-2.87a2.07,2.07,0,0,0,0,4.14Z"/><path class="cls-25" d="M214,146.45h9.88a2.08,2.08,0,0,0,0-4.15H221V129.79a2.07,2.07,0,0,0-3.35-1.63l-4.94,3.9a2.07,2.07,0,1,0,2.56,3.25l1.59-1.25v8.25H214a2.07,2.07,0,0,0,0,4.14Z"/><path class="cls-26" d="M251.94,120.53h9.89a2.07,2.07,0,0,0,0-4.14H259V103.87a2.06,2.06,0,0,0-3.35-1.62l-4.94,3.89a2.07,2.07,0,0,0,2.56,3.26l1.59-1.26v8.25h-2.87a2.07,2.07,0,1,0,0,4.14Z"/><path class="cls-27" d="M195.05,90.47a2.08,2.08,0,0,0,0,4.15H205a2.08,2.08,0,0,0,0-4.15h-2.88V78a2.07,2.07,0,0,0-3.35-1.63l-4.95,3.9a2.07,2.07,0,0,0,2.56,3.25l1.6-1.25v8.24Z"/><path class="cls-28" d="M233,90.47a2.08,2.08,0,0,0,0,4.15h9.89a2.08,2.08,0,0,0,0-4.15H240V78a2.07,2.07,0,0,0-2.07-2.07,2,2,0,0,0-1.29.44l-4.94,3.9a2.07,2.07,0,0,0,2.56,3.25l1.59-1.25v8.24Z"/><circle class="cls-29" cx="385.2" cy="181.95" r="75.38"/><polygon class="cls-30" points="389.94 52.12 333.52 157.57 334.97 42.43 389.94 52.12"/><circle class="cls-31" cx="42.64" cy="120.4" r="18.4"/><circle class="cls-32" cx="51.65" cy="73.33" r="9.02"/></svg>