<svg id="Слой_1" data-name="Слой 1" xmlns="http://www.w3.org/2000/svg" xmlns:xlink="http://www.w3.org/1999/xlink" viewBox="0 0 400 200"><defs><style>.cls-1{fill:url(#Безымянный_градиент_17);}.cls-2{fill:url(#Безымянный_градиент_3);}.cls-3{fill:none;stroke-miterlimit:10;stroke-width:7px;stroke:url(#Безымянный_градиент_19);}.cls-4{fill:url(#Безымянный_градиент_71);}.cls-5{fill:url(#Безымянный_градиент_71-2);}.cls-6{fill:url(#Безымянный_градиент_71-3);}.cls-7{fill:url(#Безымянный_градиент_71-4);}.cls-8{fill:url(#Безымянный_градиент_71-5);}.cls-9{fill:url(#Безымянный_градиент_21);}.cls-10{fill:url(#Безымянный_градиент_25);}.cls-11{fill:url(#Безымянный_градиент_25-2);}</style><linearGradient id="Безымянный_градиент_17" x1="-738.33" y1="264.24" x2="-737.46" y2="414.73" gradientTransform="translate(3007.56 -390.6) scale(3.52 1.46)" gradientUnits="userSpaceOnUse"><stop offset="0" stop-color="#6262a6"/><stop offset="0.34" stop-color="#984797"/><stop offset="0.63" stop-color="#c0338d"/><stop offset="0.86" stop-color="#d82686"/><stop offset="1" stop-color="#e12284"/></linearGradient><linearGradient id="Безымянный_градиент_3" x1="-29.48" y1="106" x2="87.38" y2="106" gradientUnits="userSpaceOnUse"><stop offset="0" stop-color="#49ad52"/><stop offset="0.2" stop-color="#4e9e62"/><stop offset="0.6" stop-color="#5b788d"/><stop offset="0.81" stop-color="#6262a6"/></linearGradient><linearGradient id="Безымянный_градиент_19" x1="-123.39" y1="32.51" x2="76.87" y2="32.51" gradientTransform="translate(14.39 18.44) rotate(22.59)" gradientUnits="userSpaceOnUse"><stop offset="0.19" stop-color="#fbc31b"/><stop offset="0.34" stop-color="#f9b81e"/><stop offset="0.6" stop-color="#f39b25"/><stop offset="0.94" stop-color="#e96c32"/><stop offset="1" stop-color="#e76334"/></linearGradient><linearGradient id="Безымянный_градиент_71" x1="140.26" y1="59.53" x2="239.55" y2="59.53" gradientUnits="userSpaceOnUse"><stop offset="0.08" stop-color="#df1d4d"/><stop offset="0.23" stop-color="#e01e5d"/><stop offset="0.5" stop-color="#e02073"/><stop offset="0.76" stop-color="#e12280"/><stop offset="1" stop-color="#e12284"/></linearGradient><linearGradient id="Безымянный_градиент_71-2" x1="140.26" y1="82.76" x2="216.54" y2="82.76" xlink:href="#Безымянный_градиент_71"/><linearGradient id="Безымянный_градиент_71-3" x1="140.26" y1="106" x2="197.7" y2="106" xlink:href="#Безымянный_градиент_71"/><linearGradient id="Безымянный_градиент_71-4" x1="202.48" y1="82.26" x2="284.25" y2="82.26" xlink:href="#Безымянный_градиент_71"/><linearGradient id="Безымянный_градиент_71-5" x1="115.75" y1="100" x2="264.05" y2="100" xlink:href="#Безымянный_градиент_71"/><linearGradient id="Безымянный_градиент_21" x1="354.08" y1="142.42" x2="307.54" y2="142.94" gradientUnits="userSpaceOnUse"><stop offset="0" stop-color="#6262a6"/><stop offset="0.18" stop-color="#725aa2"/><stop offset="0.52" stop-color="#9d4496"/><stop offset="1" stop-color="#e12284"/></linearGradient><linearGradient id="Безымянный_градиент_25" x1="355.53" y1="80.09" x2="336.46" y2="80.31" gradientUnits="userSpaceOnUse"><stop offset="0" stop-color="#49ad52"/><stop offset="0.22" stop-color="#4da160"/><stop offset="0.64" stop-color="#588183"/><stop offset="1" stop-color="#6262a6"/></linearGradient><linearGradient id="Безымянный_градиент_25-2" x1="320.22" y1="40.09" x2="310.91" y2="40.19" xlink:href="#Безымянный_градиент_25"/></defs><rect class="cls-1" x="350.52" y="-55.75" width="117.96" height="322.85" transform="translate(-13.18 119.74) rotate(-16.38)"/><path class="cls-2" d="M42.46-23.12c34.36,57.18,0,46.42,0,80,0,22.34,39.84,30,41.73,58.63,1.8,27.37-24,19.51-15,58.8C80,221.77,87.38,235.11,87.38,235.11l-116.86-8.3,23-249.93Z"/><polygon class="cls-3" points="-88.18 -42.59 -29.85 193.53 125.8 -61 -88.18 -42.59"/><path class="cls-4" d="M239.55,59.53A2.51,2.51,0,0,0,237.08,57H142.73a2.55,2.55,0,0,0,0,5.09h94.35A2.51,2.51,0,0,0,239.55,59.53Z"/><path class="cls-5" d="M216.54,82.76a2.5,2.5,0,0,0-2.47-2.54H142.73a2.54,2.54,0,0,0,0,5.08h71.34A2.5,2.5,0,0,0,216.54,82.76Z"/><path class="cls-6" d="M142.73,103.45a2.55,2.55,0,0,0,0,5.09h52.5a2.55,2.55,0,0,0,0-5.09Z"/><path class="cls-7" d="M281.71,46.19l-3.34-3.44a8.46,8.46,0,0,0-12.21,0L212.33,98.2h0a22.12,22.12,0,0,0-4.48,6.78l-4.9,11.62c-1.95,4.61,2.6,9.29,7.07,7.29l11.29-5.05a21.37,21.37,0,0,0,6.58-4.62l53.83-55.46a9.07,9.07,0,0,0,0-12.58Zm-62.38,68-11.28,5a.44.44,0,0,1-.58-.6l4.9-11.62a16.92,16.92,0,0,1,1.83-3.28l8.31,8.56a16.68,16.68,0,0,1-3.18,1.89Zm6.81-5.35L217.56,100,254,62.43l8.58,8.84Zm40-41.17-8.58-8.84,3.6-3.7L269.7,64Zm12.12-12.49-5,5.19-8.58-8.84,5-5.19a3.64,3.64,0,0,1,5.23,0l3.34,3.45A3.88,3.88,0,0,1,278.22,55.18Z"/><path class="cls-8" d="M261.58,86.41A2.5,2.5,0,0,0,259.12,89v30.91A15,15,0,0,1,244.4,135H170a7.89,7.89,0,0,0-5.53,2.27l-26.53,25.95,3.9-22.34A5,5,0,0,0,137,135h-1.62a15,15,0,0,1-14.72-15.16V50.76A15,15,0,0,1,135.41,35.6h109A14.55,14.55,0,0,1,255.62,41a2.41,2.41,0,0,0,3.47.29,2.61,2.61,0,0,0,.29-3.59,19.43,19.43,0,0,0-15-7.13h-109c-10.84,0-19.66,9.08-19.66,20.24v69.11c0,11.16,8.82,20.24,19.66,20.24h1.52l-4.21,24.12a4.49,4.49,0,0,0,2.2,4.71,4.22,4.22,0,0,0,5-.69L167.84,141a3,3,0,0,1,2.13-.88H244.4c10.84,0,19.65-9.08,19.65-20.24V89A2.51,2.51,0,0,0,261.58,86.41Z"/><polygon class="cls-9" points="359.15 108.54 319.84 108.54 300.19 142.58 319.84 176.62 359.15 176.62 378.81 142.58 359.15 108.54"/><polygon class="cls-10" points="352.51 66.27 336.4 66.27 328.35 80.22 336.4 94.17 352.51 94.17 360.57 80.22 352.51 66.27"/><polygon class="cls-11" points="318.75 33.34 310.88 33.34 306.95 40.15 310.88 46.95 318.75 46.95 322.68 40.15 318.75 33.34"/></svg>