<svg id="Слой_1" data-name="Слой 1" xmlns="http://www.w3.org/2000/svg" xmlns:xlink="http://www.w3.org/1999/xlink" viewBox="0 0 400 200"><defs><style>.cls-1{fill:url(#Безымянный_градиент_71);}.cls-2{fill:url(#Безымянный_градиент_3);}.cls-3{fill:url(#Безымянный_градиент_4);}.cls-4,.cls-5{fill:none;stroke-miterlimit:10;stroke-width:7px;}.cls-4{stroke:url(#Безымянный_градиент_22);}.cls-5{stroke:url(#Безымянный_градиент_79);}.cls-6{fill:url(#Безымянный_градиент_28);}.cls-7{fill:url(#Безымянный_градиент_28-2);}.cls-8{fill:url(#Безымянный_градиент_28-3);}</style><linearGradient id="Безымянный_градиент_71" x1="145.42" y1="100" x2="254.58" y2="100" gradientUnits="userSpaceOnUse"><stop offset="0.08" stop-color="#df1d4d"/><stop offset="0.23" stop-color="#e01e5d"/><stop offset="0.5" stop-color="#e02073"/><stop offset="0.76" stop-color="#e12280"/><stop offset="1" stop-color="#e12284"/></linearGradient><linearGradient id="Безымянный_градиент_3" x1="319.56" y1="79" x2="473.29" y2="79" gradientTransform="translate(19.19 -66.21) rotate(9.78)" gradientUnits="userSpaceOnUse"><stop offset="0" stop-color="#49ad52"/><stop offset="0.2" stop-color="#4e9e62"/><stop offset="0.6" stop-color="#5b788d"/><stop offset="0.81" stop-color="#6262a6"/></linearGradient><linearGradient id="Безымянный_градиент_4" x1="271.16" y1="144.18" x2="335.83" y2="144.18" gradientTransform="matrix(-0.19, -0.92, 0.92, -0.19, 250.7, 400.28)" gradientUnits="userSpaceOnUse"><stop offset="0.19" stop-color="#6262a6"/><stop offset="0.4" stop-color="#5b788d"/><stop offset="0.8" stop-color="#4e9e62"/><stop offset="1" stop-color="#49ad52"/></linearGradient><linearGradient id="Безымянный_градиент_22" x1="-63.06" y1="146.53" x2="141.04" y2="146.53" gradientTransform="matrix(0.98, 0.35, -0.4, 1.13, 71, -18.88)" gradientUnits="userSpaceOnUse"><stop offset="0" stop-color="#6262a6"/><stop offset="0.34" stop-color="#984797"/><stop offset="0.63" stop-color="#c0338d"/><stop offset="0.86" stop-color="#d82686"/><stop offset="1" stop-color="#e12284"/></linearGradient><linearGradient id="Безымянный_градиент_79" x1="-111.58" y1="89.52" x2="-12.03" y2="89.52" gradientTransform="matrix(0.97, -0.39, 0.45, 1.12, 65.24, -14.84)" gradientUnits="userSpaceOnUse"><stop offset="0.25" stop-color="#49ad52"/><stop offset="0.41" stop-color="#49ad54"/><stop offset="0.48" stop-color="#47ac5b"/><stop offset="0.52" stop-color="#45ac66"/><stop offset="0.55" stop-color="#41ab77"/><stop offset="0.58" stop-color="#3ca98d"/><stop offset="0.61" stop-color="#37a8a9"/><stop offset="0.63" stop-color="#30a6c8"/><stop offset="0.64" stop-color="#2da5d7"/><stop offset="0.91" stop-color="#2da5d7"/></linearGradient><linearGradient id="Безымянный_градиент_28" x1="55.56" y1="57.84" x2="79.68" y2="57.84" gradientUnits="userSpaceOnUse"><stop offset="0" stop-color="#fbc31b"/><stop offset="0.05" stop-color="#f9b71e"/><stop offset="0.21" stop-color="#f29926"/><stop offset="0.38" stop-color="#ed812c"/><stop offset="0.56" stop-color="#ea7031"/><stop offset="0.76" stop-color="#e86633"/><stop offset="1" stop-color="#e76334"/></linearGradient><linearGradient id="Безымянный_градиент_28-2" x1="100.3" y1="38.4" x2="112.36" y2="38.4" xlink:href="#Безымянный_градиент_28"/><linearGradient id="Безымянный_градиент_28-3" x1="10.96" y1="8.91" x2="71.2" y2="8.91" xlink:href="#Безымянный_градиент_28"/></defs><path class="cls-1" d="M254.24,135.27l-4.54-6.92a2,2,0,0,0-2.83-.59l-1.34.87c-7.11,0-10.88-7.08-11.66-8.69V103.27a28.25,28.25,0,0,0,8.29-3.69l1.83-1.2a2.05,2.05,0,0,0,.59-2.84L240,88.61A2,2,0,0,0,237.2,88l-.9.59A21.48,21.48,0,0,1,225,76.8V62.86a28.17,28.17,0,0,0,6.1-3l1.84-1.2a2.06,2.06,0,0,0,.59-2.84L229,48.87a2.06,2.06,0,0,0-2.84-.59l-1.18.78a30.74,30.74,0,0,1-16.69-9.49,9,9,0,0,0,.08-1.17,8.37,8.37,0,0,0-16.74,0,9,9,0,0,0,.08,1.17A30.8,30.8,0,0,1,175,49.06l-1.18-.78A2.09,2.09,0,0,0,172.3,48a2,2,0,0,0-1.3.89l-4.54,6.92a2.06,2.06,0,0,0,.59,2.84l1.84,1.2a28.17,28.17,0,0,0,6.1,3V76.8A21.46,21.46,0,0,1,163.7,88.61l-.9-.59a2.06,2.06,0,0,0-2.84.59l-4.54,6.93a2.05,2.05,0,0,0,.59,2.84l1.83,1.2a28.25,28.25,0,0,0,8.29,3.69v16.67c-.78,1.62-4.55,8.66-11.66,8.69l-1.33-.87a2,2,0,0,0-2.84.59l-4.54,6.92a2,2,0,0,0,.59,2.84l1.83,1.2a28.46,28.46,0,0,0,3.62,2v26.6a2,2,0,0,0,2,2.05h92.31a2.05,2.05,0,0,0,2.05-2.05v-26.6a29,29,0,0,0,3.61-2l1.83-1.2a2.05,2.05,0,0,0,.59-2.84ZM200,34.13a4.27,4.27,0,0,1,4.27,4.27,4.27,4.27,0,1,1-8.54,0A4.27,4.27,0,0,1,200,34.13Zm-6.52,9.52a8.41,8.41,0,0,0,5.09,3h0a8.21,8.21,0,0,0,2.84,0h0a8.38,8.38,0,0,0,5.09-3,35.13,35.13,0,0,0,12.62,8h0a15,15,0,0,1-3.47.39H184.36a16.84,16.84,0,0,1-3.47-.38h0A34.83,34.83,0,0,0,193.48,43.65ZM171.13,56.41l-.12-.08,2.3-3.49.12.08a19.89,19.89,0,0,0,10.93,3.26h31.28a20.06,20.06,0,0,0,10.94-3.27l.11-.07,2.3,3.49-.12.08a24.12,24.12,0,0,1-13.23,4H184.36a24.12,24.12,0,0,1-13.23-4Zm43.52,10.74h-8.33a2.05,2.05,0,0,0-2,2v5.88h-8.54V69.2a2.05,2.05,0,0,0-2-2h-8.32a2,2,0,0,0-2.05,2v5.88h-4.22V64h0l.42.08a27.87,27.87,0,0,0,4.83.41h31.28a28.81,28.81,0,0,0,5.25-.49h0V75.08H216.7V69.2A2.05,2.05,0,0,0,214.65,67.15Zm-2.05,4.1v3.83h-4.23V71.25Zm-21,0v3.83H187.4V71.25Zm-31.54,24.9-.12-.08,2.29-3.5.12.08a20,20,0,0,0,10.94,3.26h10a2,2,0,1,0,0-4.1h-10a15.87,15.87,0,0,1-5.16-.86l-.07,0a25.79,25.79,0,0,0,10.37-11.76h43.08a25.89,25.89,0,0,0,10.37,11.75l-.07,0a15.87,15.87,0,0,1-5.16.86H191.43a2.05,2.05,0,0,0,0,4.1h35.25a20.14,20.14,0,0,0,10.94-3.26l.12-.08,2.29,3.5-.12.08a24.21,24.21,0,0,1-13.23,3.94H173.32a24.21,24.21,0,0,1-13.23-3.94Zm61.27,10H208.53a2.05,2.05,0,0,0-2.05,2v10.17h-13V108.16a2.05,2.05,0,0,0-2.05-2H178.64a2.05,2.05,0,0,0-2,2v10.17h-6.36V104l.52,0c.85.08,1.71.13,2.57.13h53.36a28.94,28.94,0,0,0,3.09-.17v14.3h-6.36V108.16A2.05,2.05,0,0,0,221.36,106.11Zm-2.05,4.1v8.12h-8.73v-8.12Zm-29.89,0v8.12h-8.73v-8.12Zm-19.95,12.22h61.07a23.9,23.9,0,0,0,3,4.45,17.92,17.92,0,0,0,5.65,4.41,15.43,15.43,0,0,1-2.88.26H163.66a16.49,16.49,0,0,1-2.81-.25h0C165.55,129,168.33,124.61,169.47,122.43Zm37,43.44h-13V152.81h13Zm37.63,0H210.58V150.76a2.05,2.05,0,0,0-2.05-2H191.47a2.05,2.05,0,0,0-2.05,2v15.11H155.9v-23l.15,0a28.34,28.34,0,0,0,7.61,1h72.68a28,28,0,0,0,7.77-1.09Zm5.46-30a23.55,23.55,0,0,1-4.19,2.19,24.19,24.19,0,0,1-9,1.76H163.64a24.2,24.2,0,0,1-13.21-4l-.12-.07,2.29-3.5.12.08a20.92,20.92,0,0,0,3.64,1.88,19.89,19.89,0,0,0,7.3,1.38h72.68a20.05,20.05,0,0,0,10.94-3.26l.12-.08,2.29,3.5Z"/><polygon class="cls-2" points="356.49 -87.18 294 220.62 477.31 62.24 356.49 -87.18"/><polygon class="cls-3" points="300.01 126.9 365.13 117.28 314.56 65.77 300.01 126.9"/><polygon class="cls-4" points="-7.23 42.82 106.33 279.64 -60.47 165.85 -7.23 42.82"/><polygon class="cls-5" points="27.1 81.97 99.98 125.43 17.45 158.75 27.1 81.97"/><circle class="cls-6" cx="67.62" cy="57.84" r="12.06"/><circle class="cls-7" cx="106.33" cy="38.4" r="6.03"/><circle class="cls-8" cx="41.08" cy="8.91" r="30.12"/></svg>