<svg id="Слой_1" data-name="Слой 1" xmlns="http://www.w3.org/2000/svg" xmlns:xlink="http://www.w3.org/1999/xlink" viewBox="0 0 400 200"><defs><style>.cls-1,.cls-3{fill:none;stroke-miterlimit:10;stroke-width:7px;}.cls-1{stroke:url(#Безымянный_градиент_95);}.cls-2{fill:url(#Безымянный_градиент_3);}.cls-3{stroke:url(#Безымянный_градиент_3-2);}.cls-4{fill:url(#Безымянный_градиент_16);}.cls-5{fill:url(#Безымянный_градиент_16-2);}.cls-6{fill:url(#Безымянный_градиент_16-3);}.cls-7{fill:url(#Безымянный_градиент_16-4);}.cls-8{fill:url(#Безымянный_градиент_16-5);}.cls-9{fill:url(#Безымянный_градиент_16-6);}.cls-10{fill:url(#Безымянный_градиент_16-7);}.cls-11{fill:url(#Безымянный_градиент_16-8);}.cls-12{fill:url(#Безымянный_градиент_16-9);}.cls-13{fill:url(#Безымянный_градиент_16-10);}.cls-14{fill:url(#Безымянный_градиент_16-11);}.cls-15{fill:url(#Безымянный_градиент_28);}.cls-16{fill:url(#Безымянный_градиент_28-2);}.cls-17{fill:url(#Безымянный_градиент_70);}</style><linearGradient id="Безымянный_градиент_95" x1="292.75" y1="93.7" x2="465.69" y2="93.7" gradientUnits="userSpaceOnUse"><stop offset="0" stop-color="#e12284"/><stop offset="0.14" stop-color="#d82686"/><stop offset="0.37" stop-color="#c0338d"/><stop offset="0.66" stop-color="#984797"/><stop offset="1" stop-color="#6262a6"/></linearGradient><linearGradient id="Безымянный_градиент_3" x1="-985.7" y1="-80.83" x2="-761.7" y2="-80.83" gradientTransform="matrix(0.56, 1.18, -2.6, 1.23, 332.15, 1246.47)" gradientUnits="userSpaceOnUse"><stop offset="0" stop-color="#49ad52"/><stop offset="0.2" stop-color="#4e9e62"/><stop offset="0.6" stop-color="#5b788d"/><stop offset="0.81" stop-color="#6262a6"/></linearGradient><linearGradient id="Безымянный_градиент_3-2" x1="66.52" y1="258.26" x2="107.42" y2="165.79" gradientTransform="translate(245.7 46.73) rotate(66.14)" xlink:href="#Безымянный_градиент_3"/><linearGradient id="Безымянный_градиент_16" x1="176.44" y1="100" x2="226.48" y2="100" gradientUnits="userSpaceOnUse"><stop offset="0" stop-color="#e12284"/><stop offset="0.05" stop-color="#d52887"/><stop offset="0.29" stop-color="#a44194"/><stop offset="0.5" stop-color="#80539e"/><stop offset="0.68" stop-color="#6a5ea4"/><stop offset="0.79" stop-color="#6262a6"/></linearGradient><linearGradient id="Безымянный_градиент_16-2" x1="140.58" x2="262.34" xlink:href="#Безымянный_градиент_16"/><linearGradient id="Безымянный_градиент_16-3" x1="140.58" x2="262.34" xlink:href="#Безымянный_градиент_16"/><linearGradient id="Безымянный_градиент_16-4" x1="190.29" x2="212.64" xlink:href="#Безымянный_градиент_16"/><linearGradient id="Безымянный_градиент_16-5" x1="188.81" y1="99.99" x2="214.14" y2="99.99" xlink:href="#Безымянный_градиент_16"/><linearGradient id="Безымянный_градиент_16-6" x1="161.64" y1="62.91" x2="171.36" y2="62.91" xlink:href="#Безымянный_градиент_16"/><linearGradient id="Безымянный_градиент_16-7" x1="160.15" y1="62.9" x2="172.86" y2="62.9" xlink:href="#Безымянный_градиент_16"/><linearGradient id="Безымянный_градиент_16-8" x1="211.15" y1="152.3" x2="220.88" y2="152.3" xlink:href="#Безымянный_градиент_16"/><linearGradient id="Безымянный_градиент_16-9" x1="209.66" y1="152.28" x2="222.38" y2="152.28" xlink:href="#Безымянный_градиент_16"/><linearGradient id="Безымянный_градиент_16-10" x1="139.15" y1="122.87" x2="148.88" y2="122.87" xlink:href="#Безымянный_градиент_16"/><linearGradient id="Безымянный_градиент_16-11" x1="137.66" y1="122.85" x2="150.38" y2="122.85" xlink:href="#Безымянный_градиент_16"/><linearGradient id="Безымянный_градиент_28" x1="1684.73" y1="606.94" x2="1861.65" y2="606.94" gradientTransform="matrix(0.34, -0.13, 0.34, 0.88, -716.61, -171.48)" gradientUnits="userSpaceOnUse"><stop offset="0" stop-color="#fbc31b"/><stop offset="0.05" stop-color="#f9b71e"/><stop offset="0.21" stop-color="#f29926"/><stop offset="0.38" stop-color="#ed812c"/><stop offset="0.56" stop-color="#ea7031"/><stop offset="0.76" stop-color="#e86633"/><stop offset="1" stop-color="#e76334"/></linearGradient><linearGradient id="Безымянный_градиент_28-2" x1="1726.4" y1="523.01" x2="1903.33" y2="523.01" gradientTransform="matrix(0.21, 0.12, -0.3, 0.53, -166.24, -449.24)" xlink:href="#Безымянный_градиент_28"/><linearGradient id="Безымянный_градиент_70" x1="283.23" y1="152.3" x2="336.49" y2="152.3" gradientUnits="userSpaceOnUse"><stop offset="0.26" stop-color="#6262a6"/><stop offset="0.39" stop-color="#6660a5"/><stop offset="0.52" stop-color="#725aa2"/><stop offset="0.65" stop-color="#86509c"/><stop offset="0.79" stop-color="#a34195"/><stop offset="0.92" stop-color="#c72f8b"/><stop offset="1" stop-color="#e12284"/></linearGradient></defs><path class="cls-1" d="M308.67-28s62,53.2,30.26,95.07-52.67,98.46-37.8,164.33S422.35,229,422.35,229L461.53-71.33Z"/><polygon class="cls-2" points="93.72 -45.25 45.86 283.95 -101.51 30.79 93.72 -45.25"/><rect class="cls-3" x="39.91" y="-46.18" width="94.11" height="516.41" transform="translate(-142.12 205.8) rotate(-66.14)"/><path class="cls-4" d="M201.46,168.72c-14,0-25-30.19-25-68.72s11-68.72,25-68.72,25,30.19,25,68.72S215.49,168.72,201.46,168.72Zm0-133.44c-10.15,0-21,26-21,64.72s10.87,64.72,21,64.72,21-26,21-64.72S211.61,35.28,201.46,35.28Z"/><path class="cls-5" d="M245.07,140.78c-13.94,0-34.67-6.73-56.12-19.11-33.37-19.27-54-43.88-47-56s38.65-6.57,72,12.69,54,43.88,47,56C258.47,138.7,252.81,140.78,245.07,140.78ZM157.8,63.1c-6.31,0-10.66,1.56-12.39,4.54-5.07,8.79,12,31.21,45.54,50.56s61.48,23,66.56,14.16-12-31.21-45.54-50.56C189.82,69,170.1,63.1,157.8,63.1Z"/><path class="cls-6" d="M157.85,140.78c-7.75,0-13.39-2.08-15.9-6.42-7-12.15,13.63-36.76,47-56s65-24.84,72-12.69-13.63,36.76-47,56C192.52,134.05,171.79,140.78,157.85,140.78ZM245.12,63.1c-12.3,0-32,5.91-54.17,18.7h0c-33.52,19.35-50.61,41.77-45.54,50.56s33,5.2,66.56-14.16,50.61-41.77,45.54-50.56C255.78,64.66,251.43,63.1,245.12,63.1Z"/><circle class="cls-7" cx="201.46" cy="100" r="11.17"/><path class="cls-8" d="M211.14,100a9.68,9.68,0,1,1-7.94-9.52,9.78,9.78,0,0,1,7.94,9.52,1.5,1.5,0,0,0,3,0,12.68,12.68,0,1,0-10.29,12.44A12.86,12.86,0,0,0,214.14,100,1.5,1.5,0,0,0,211.14,100Z"/><circle class="cls-9" cx="166.5" cy="62.91" r="4.86"/><path class="cls-10" d="M169.86,62.91c0,.14,0,.27,0,.41s0,.06,0,0a4.58,4.58,0,0,1-.15.64c0,.12-.08.25-.13.37,0-.07.13-.25,0,0s-.25.44-.39.65.12-.13,0,.05a2.39,2.39,0,0,1-.22.23l-.18.18s-.36.3-.08.09a5,5,0,0,1-.54.35,2.39,2.39,0,0,0-.22.12c-.16.07-.16.07,0,0l-.19.07a6.32,6.32,0,0,1-.62.18c-.08,0-.37,0-.06,0a1.87,1.87,0,0,1-.34,0c-.22,0-.45,0-.67,0s.34.08-.06,0l-.39-.09-.37-.12c-.06,0-.24-.13,0,0-.19-.1-.38-.19-.56-.3l-.27-.18c-.19-.14.24.23,0,0s-.36-.36-.53-.55c.18.21,0,.06,0,0a3.45,3.45,0,0,1-.2-.32,1.59,1.59,0,0,1-.13-.22s-.19-.43-.06-.1a5,5,0,0,1-.2-.62l-.06-.26c0-.17,0-.17,0,0,0-.07,0-.13,0-.2a4.14,4.14,0,0,1,0-.61c0-.06.07-.48,0-.13a2,2,0,0,1,0-.26,4.54,4.54,0,0,1,.18-.63c.13-.38-.15.24.05-.11.07-.11.12-.23.19-.34s.11-.17.17-.26.23-.28,0,0a4.78,4.78,0,0,1,.44-.46s.31-.27.14-.13l.15-.11a5.44,5.44,0,0,1,.67-.37c-.06,0-.28.09,0,0l.37-.12.26-.06.19,0,.2,0h.68c.35,0-.19-.06.12,0s.51.13.76.21-.12-.1.05,0,.27.13.39.21l.22.13.21.15c-.14-.11-.14-.1,0,0l.45.45c.28.28-.15-.24.08.1l.2.31c.07.11.12.23.19.34.15.27-.06-.21.05.11s.15.5.21.76c0,.06,0,.29,0,0a4.89,4.89,0,0,1,0,.54,1.5,1.5,0,0,0,3,0,6.45,6.45,0,0,0-4.22-6,6.35,6.35,0,0,0-7,1.87,6.36,6.36,0,1,0,11.2,4.12,1.5,1.5,0,0,0-1.5-1.5A1.54,1.54,0,0,0,169.86,62.91Z"/><circle class="cls-11" cx="216.01" cy="152.3" r="4.86"/><path class="cls-12" d="M219.38,152.3c0,.13,0,.27,0,.4,0,.29,0,.06,0,0a3.71,3.71,0,0,1-.15.64,2.6,2.6,0,0,1-.13.36c0-.06.13-.24,0,0s-.25.45-.39.66.12-.13,0,.05l-.21.23-.19.18s-.35.29-.08.09a6,6,0,0,1-.53.34l-.23.12c-.16.07-.15.08,0,0l-.18.07c-.21.06-.42.13-.63.17s-.37,0-.06,0l-.33,0-.68,0c-.25,0,.34.08-.06,0a2.34,2.34,0,0,1-.38-.09c-.13,0-.25-.08-.37-.12s-.25-.12,0,0a6.12,6.12,0,0,1-.56-.31,1.51,1.51,0,0,1-.26-.18c-.2-.14.23.24,0,0s-.36-.35-.53-.54c.19.21,0,.05,0,0s-.15-.21-.21-.32a2.53,2.53,0,0,1-.13-.22s-.19-.43-.06-.11a4.48,4.48,0,0,1-.2-.62l-.06-.25h0a1.23,1.23,0,0,1,0-.2,4.12,4.12,0,0,1,0-.61c0-.05.07-.48,0-.13,0-.08,0-.17.05-.26s.11-.41.18-.62c.13-.38-.14.24.05-.11.07-.11.12-.23.19-.34s.11-.18.17-.27.23-.27,0,0a6.33,6.33,0,0,1,.44-.46l.14-.12.15-.11a7.26,7.26,0,0,1,.67-.38c-.06,0-.27.1,0,0a2.29,2.29,0,0,1,.37-.12l.25-.07s.42-.07.19,0,.2,0,.2,0h.34l.34,0c.35,0-.19-.06.12,0a6.57,6.57,0,0,1,.76.21c.36.11-.12-.11,0,0a3,3,0,0,0,.4.21l.21.14.21.14c-.14-.1-.14-.1,0,0l.45.45c.28.28-.14-.24.08.09l.21.32.18.34c.15.27-.06-.21,0,.11s.15.5.21.75c0,.07,0,.29,0,0,0,.18,0,.35,0,.54a1.5,1.5,0,0,0,3,0,6.47,6.47,0,0,0-4.23-6,6.36,6.36,0,0,0-7,1.86,6.36,6.36,0,1,0,11.21,4.13,1.5,1.5,0,0,0-3,0Z"/><circle class="cls-13" cx="144.01" cy="122.87" r="4.86"/><path class="cls-14" d="M147.38,122.87c0,.13,0,.27,0,.4,0,.3,0,.06,0,0a3.71,3.71,0,0,1-.15.64,2.6,2.6,0,0,1-.13.36c0-.06.13-.24,0,0s-.25.45-.39.66.12-.13,0,0l-.21.23-.19.18s-.35.29-.08.09a4.32,4.32,0,0,1-.53.34l-.23.12c-.16.08-.15.08,0,0l-.18.07c-.21.06-.42.13-.63.17s-.37,0-.06,0l-.33,0c-.23,0-.45,0-.68,0s.34.08-.06,0l-.38-.1-.37-.11h0a6.12,6.12,0,0,1-.56-.31,1.51,1.51,0,0,1-.26-.18c-.2-.14.23.24,0,0s-.36-.35-.53-.54c.19.21,0,.06,0,0s-.15-.21-.21-.32a2.53,2.53,0,0,1-.13-.22s-.19-.43-.06-.11a4.82,4.82,0,0,1-.2-.61l-.06-.26c0-.18,0-.17,0,0a1.49,1.49,0,0,1,0-.21,4.12,4.12,0,0,1,0-.61s.07-.48,0-.13c0-.08,0-.17.05-.26s.11-.41.18-.62c.13-.38-.14.24.05-.11.07-.11.12-.23.19-.34s.11-.18.17-.27.23-.27,0,0a4.67,4.67,0,0,1,.44-.45s.31-.27.14-.13l.15-.11a7.26,7.26,0,0,1,.67-.38c-.06,0-.27.1,0,0a2.29,2.29,0,0,1,.37-.12l.25-.07s.42-.07.19,0,.2,0,.2,0h.34l.34,0c.35,0-.19-.06.12,0s.51.13.76.21-.12-.11,0,0a3,3,0,0,0,.4.21l.21.14c.07,0,.14.09.21.15-.14-.11-.14-.11,0,0l.45.45c.28.28-.14-.24.08.09l.21.32.18.34c.15.27-.06-.21,0,.11s.15.5.21.75c0,.07,0,.29,0,0l0,.54a1.5,1.5,0,0,0,3,0,6.47,6.47,0,0,0-4.23-6,6.36,6.36,0,0,0-7,1.86,6.36,6.36,0,1,0,11.21,4.13,1.5,1.5,0,0,0-3,0Z"/><polygon class="cls-15" points="46.95 117.97 120.38 140.71 63.33 169.54 46.95 117.97"/><polygon class="cls-16" points="46.45 12.24 66.25 58.33 27.66 41.44 46.45 12.24"/><circle class="cls-17" cx="309.86" cy="152.3" r="26.63"/></svg>