<svg id="Слой_1" data-name="Слой 1" xmlns="http://www.w3.org/2000/svg" xmlns:xlink="http://www.w3.org/1999/xlink" viewBox="0 0 400 200"><defs><style>.cls-1,.cls-2,.cls-5{fill:none;stroke-miterlimit:10;stroke-width:7px;}.cls-1{stroke:url(#Безымянный_градиент_3);}.cls-2{stroke:url(#Безымянный_градиент_95);}.cls-3{fill:url(#Безымянный_градиент_3-2);}.cls-4{fill:url(#Безымянный_градиент_3-3);}.cls-5{stroke:url(#Безымянный_градиент_101);}.cls-6{fill:url(#Безымянный_градиент_101-2);}.cls-7{fill:url(#Безымянный_градиент_22);}</style><linearGradient id="Безымянный_градиент_3" x1="242" y1="62.61" x2="469.05" y2="14.65" gradientTransform="matrix(1.01, 0.02, 0.02, 1.1, 0.92, 3.99)" gradientUnits="userSpaceOnUse"><stop offset="0" stop-color="#49ad52"/><stop offset="0.2" stop-color="#4e9e62"/><stop offset="0.6" stop-color="#5b788d"/><stop offset="0.81" stop-color="#6262a6"/></linearGradient><linearGradient id="Безымянный_градиент_95" x1="65.42" y1="361.93" x2="87.11" y2="21.15" gradientUnits="userSpaceOnUse"><stop offset="0" stop-color="#e12284"/><stop offset="0.14" stop-color="#d82686"/><stop offset="0.37" stop-color="#c0338d"/><stop offset="0.66" stop-color="#984797"/><stop offset="1" stop-color="#6262a6"/></linearGradient><linearGradient id="Безымянный_градиент_3-2" x1="115.9" y1="82.98" x2="210.51" y2="82.98" gradientTransform="matrix(1, 0, 0, 1, 0, 0)" xlink:href="#Безымянный_градиент_3"/><linearGradient id="Безымянный_градиент_3-3" x1="204.84" y1="119.15" x2="284.1" y2="119.15" gradientTransform="matrix(1, 0, 0, 1, 0, 0)" xlink:href="#Безымянный_градиент_3"/><linearGradient id="Безымянный_градиент_101" x1="507.71" y1="117.53" x2="230.86" y2="309.72" gradientUnits="userSpaceOnUse"><stop offset="0.08" stop-color="#df1d4d"/><stop offset="0.41" stop-color="#e01e5d"/><stop offset="1" stop-color="#e12284"/></linearGradient><linearGradient id="Безымянный_градиент_101-2" x1="-1319.84" y1="387.49" x2="-1095.84" y2="387.49" gradientTransform="matrix(0.04, 1.43, -2.74, 0.07, 1165.98, 1740.71)" xlink:href="#Безымянный_градиент_101"/><linearGradient id="Безымянный_градиент_22" x1="43.03" y1="61.3" x2="102.72" y2="61.3" gradientUnits="userSpaceOnUse"><stop offset="0" stop-color="#6262a6"/><stop offset="0.34" stop-color="#984797"/><stop offset="0.63" stop-color="#c0338d"/><stop offset="0.86" stop-color="#d82686"/><stop offset="1" stop-color="#e12284"/></linearGradient></defs><path class="cls-1" d="M252.07-68.16S208.32-55,229.41-29.74s111.1-3.18,94.17,73.22,55.71,47.57,40.83,93.24S375,230.06,375,230.06l113.49-79.74L432.65-140.34Z"/><polygon class="cls-2" points="189.67 364.25 -80.29 143.99 -65.35 18.1 230.59 265.5 189.67 364.25"/><path class="cls-3" d="M206.64,31a3.79,3.79,0,0,0-1.07.15h0L194.44,34.3a3.88,3.88,0,1,0,2.12,7.46l6.2-1.77V53.73l-48.09,13.7V53.7L163,51.32a3.87,3.87,0,0,0-2.13-7.45L149.73,47h0a3.89,3.89,0,0,0-2.81,3.73v49.32a19.39,19.39,0,1,0,7.75,15.5V75.5l48.09-13.71V84.18a19.39,19.39,0,1,0,7.75,15.5V34.85A3.87,3.87,0,0,0,206.64,31Zm-71.35,96.25a11.64,11.64,0,1,1,11.63-11.64A11.65,11.65,0,0,1,135.29,127.23Zm55.83-15.92a11.63,11.63,0,1,1,11.64-11.63A11.65,11.65,0,0,1,191.12,111.31Z"/><path class="cls-4" d="M282.56,70a3.89,3.89,0,0,0-3.41-.62L238.67,81.08a3.88,3.88,0,0,0-2.81,3.73v49.33a19.37,19.37,0,1,0,7.76,15.5V109.53L281.3,98.67a3.88,3.88,0,0,0,2.8-3.73V73.14a3.89,3.89,0,0,0-1.54-3.1Zm-58.33,91.23a11.64,11.64,0,1,1,11.63-11.63A11.65,11.65,0,0,1,224.23,161.27ZM276.35,92l-32.73,9.44V87.73l32.73-9.43Z"/><polygon class="cls-5" points="541.13 200.86 202.58 246.4 453.65 46.43 541.13 200.86"/><polygon class="cls-6" points="157.47 -105.53 -10.16 202.85 -41.93 -116.74 157.47 -105.53"/><polygon class="cls-7" points="87.8 35.45 57.95 35.45 43.03 61.3 57.95 87.14 87.8 87.14 102.72 61.3 87.8 35.45"/></svg>