<svg id="Слой_1" data-name="Слой 1" xmlns="http://www.w3.org/2000/svg" xmlns:xlink="http://www.w3.org/1999/xlink" viewBox="0 0 400 200"><defs><style>.cls-1{fill:url(#Безымянный_градиент_95);}.cls-2{fill:url(#Безымянный_градиент_95-2);}.cls-3{fill:url(#Безымянный_градиент_95-3);}.cls-4{fill:url(#Безымянный_градиент_95-4);}.cls-5{fill:url(#Безымянный_градиент_28);}.cls-6,.cls-7,.cls-9{fill:none;stroke-miterlimit:10;stroke-width:7px;}.cls-6{stroke:url(#Безымянный_градиент_95-5);}.cls-7{stroke:url(#Безымянный_градиент_19);}.cls-8{fill:url(#Безымянный_градиент_19-2);}.cls-9{stroke:url(#Безымянный_градиент_19-3);}.cls-10{fill:url(#Безымянный_градиент_19-4);}</style><linearGradient id="Безымянный_градиент_95" x1="136.16" y1="138.57" x2="196.45" y2="138.57" gradientUnits="userSpaceOnUse"><stop offset="0" stop-color="#e12284"/><stop offset="0.14" stop-color="#d82686"/><stop offset="0.37" stop-color="#c0338d"/><stop offset="0.66" stop-color="#984797"/><stop offset="1" stop-color="#6262a6"/></linearGradient><linearGradient id="Безымянный_градиент_95-2" x1="127.1" y1="100" x2="272.9" y2="100" xlink:href="#Безымянный_градиент_95"/><linearGradient id="Безымянный_градиент_95-3" x1="154.95" y1="137.58" x2="166.64" y2="137.58" xlink:href="#Безымянный_градиент_95"/><linearGradient id="Безымянный_градиент_95-4" x1="175.24" y1="130.35" x2="186.93" y2="130.35" xlink:href="#Безымянный_градиент_95"/><linearGradient id="Безымянный_градиент_28" x1="-20.22" y1="98.73" x2="92.16" y2="98.73" gradientUnits="userSpaceOnUse"><stop offset="0" stop-color="#fbc31b"/><stop offset="0.05" stop-color="#f9b71e"/><stop offset="0.21" stop-color="#f29926"/><stop offset="0.38" stop-color="#ed812c"/><stop offset="0.56" stop-color="#ea7031"/><stop offset="0.76" stop-color="#e86633"/><stop offset="1" stop-color="#e76334"/></linearGradient><linearGradient id="Безымянный_градиент_95-5" x1="296.37" y1="79.53" x2="424.46" y2="79.53" xlink:href="#Безымянный_градиент_95"/><linearGradient id="Безымянный_градиент_19" x1="24.08" y1="54.81" x2="107.08" y2="54.81" gradientUnits="userSpaceOnUse"><stop offset="0.19" stop-color="#fbc31b"/><stop offset="0.34" stop-color="#f9b81e"/><stop offset="0.6" stop-color="#f39b25"/><stop offset="0.94" stop-color="#e96c32"/><stop offset="1" stop-color="#e76334"/></linearGradient><linearGradient id="Безымянный_градиент_19-2" x1="300.38" y1="94.65" x2="335.45" y2="94.65" xlink:href="#Безымянный_градиент_19"/><linearGradient id="Безымянный_градиент_19-3" x1="284.64" y1="32.24" x2="484.9" y2="32.24" xlink:href="#Безымянный_градиент_19"/><linearGradient id="Безымянный_градиент_19-4" x1="296.95" y1="63.47" x2="314.27" y2="63.47" xlink:href="#Безымянный_градиент_19"/></defs><path class="cls-1" d="M195.53,120.59a2.17,2.17,0,0,0-2.09-1.62H139.18a2.15,2.15,0,0,0-2.09,1.62,29.84,29.84,0,0,0-.93,7.4,30.15,30.15,0,1,0,59.36-7.4Zm-29.22,33.24a25.8,25.8,0,0,1-25.4-30.55h50.8a25.79,25.79,0,0,1-25.4,30.55Z"/><path class="cls-2" d="M270.75,161.21h-8.08V156a2.15,2.15,0,0,0-2.15-2.15H259V60.56h8.84A2.16,2.16,0,0,0,270,58.4V51a2.15,2.15,0,0,0-2.15-2.15H259V39.94a2.16,2.16,0,0,0-2.16-2.15h-7.38a2.15,2.15,0,0,0-2.15,2.15v8.93H238V38.75a5.83,5.83,0,0,0-.32-11.65H211.84a5.83,5.83,0,0,0-.3,11.66V48.87h-3.39A2.15,2.15,0,0,0,206,51V58.4a2.16,2.16,0,0,0,2.15,2.16h3.39v55.58a13.23,13.23,0,0,0,26.46,0V60.56h9.3v93.27h-1.54A2.16,2.16,0,0,0,243.6,156v5.23H183.74a37.51,37.51,0,0,0-.51-66.71V47.09a5.83,5.83,0,0,0-.3-11.66H149.71a5.83,5.83,0,0,0-.32,11.66V94.5a37.51,37.51,0,0,0-.5,66.71H129.25a2.16,2.16,0,0,0-2.15,2.16v7.38a2.15,2.15,0,0,0,2.15,2.15h141.5a2.15,2.15,0,0,0,2.15-2.15v-7.38A2.16,2.16,0,0,0,270.75,161.21ZM251.6,42.1h3.08v6.76H251.6Zm-41.29-9.16a1.55,1.55,0,0,1,1.53-1.54h25.84a1.54,1.54,0,0,1,0,3.08H211.84A1.54,1.54,0,0,1,210.31,32.94Zm5.53,5.85h17.84V48.87H215.85Zm-5.53,14.38h55.36v3.08H210.31Zm23.37,11.38h-5.23a2.16,2.16,0,0,0,0,4.31h5.24v4h-5.24a2.16,2.16,0,0,0,0,4.31h5.24v4h-5.24a2.16,2.16,0,0,0,0,4.31h5.24v4h-5.24a2.16,2.16,0,0,0,0,4.31h5.24v4h-5.24a2.15,2.15,0,1,0,0,4.3h5.24v14.06a8.92,8.92,0,1,1-17.84,0V60.56h17.84Zm17.92-4h3.07v93.27H251.6Zm-3.69,97.58h10.46v3.07H247.91ZM148.17,41.28a1.54,1.54,0,0,1,1.54-1.54h33.22a1.54,1.54,0,0,1,0,3.08H149.71A1.54,1.54,0,0,1,148.17,41.28ZM133.09,128a33.31,33.31,0,0,1,19.36-30.18,2.16,2.16,0,0,0,1.25-2V47.12h25.22V52H173.7a2.16,2.16,0,0,0,0,4.31h5.22v4H173.7a2.16,2.16,0,0,0,0,4.31h5.22v4H173.7a2.16,2.16,0,0,0,0,4.31h5.22v4H173.7a2.16,2.16,0,0,0,0,4.31h5.22v4H173.7a2.15,2.15,0,1,0,0,4.3h5.22v6.31a2.15,2.15,0,0,0,1.26,2A33.22,33.22,0,1,1,133.09,128ZM268.6,168.6H131.4v-3.08H268.6Z"/><path class="cls-3" d="M160.8,131.73a5.85,5.85,0,1,0,5.84,5.85A5.85,5.85,0,0,0,160.8,131.73Zm0,7.39a1.54,1.54,0,1,1,1.53-1.54A1.54,1.54,0,0,1,160.8,139.12Z"/><path class="cls-4" d="M181.08,124.51a5.85,5.85,0,1,0,5.85,5.84A5.83,5.83,0,0,0,181.08,124.51Zm0,7.38a1.54,1.54,0,1,1,1.54-1.54A1.54,1.54,0,0,1,181.08,131.89Z"/><path class="cls-5" d="M73.89-17.2S109,8.87,81.83,63.87,68.22,113.75,79,159.68s-20.41,55-20.41,55l-78.8-6.8L-14.55-17.2Z"/><path class="cls-6" d="M351.11-8.7s36.19,47.62,17.76,77.1-41,31.6-11.84,91.28c17.18,35.15-42.76,59.52-42.76,59.52h102l4.61-276.09Z"/><circle class="cls-7" cx="65.58" cy="54.81" r="38"/><circle class="cls-8" cx="317.92" cy="94.65" r="17.53"/><polygon class="cls-9" points="289.89 -17.2 434.46 178.39 480.38 -116.42 289.89 -17.2"/><circle class="cls-10" cx="305.61" cy="63.47" r="8.66"/></svg>