<svg id="Слой_1" data-name="Слой 1" xmlns="http://www.w3.org/2000/svg" xmlns:xlink="http://www.w3.org/1999/xlink" viewBox="0 0 400 200"><defs><style>.cls-1{fill:url(#Безымянный_градиент_24);}.cls-2{fill:url(#Безымянный_градиент_3);}.cls-3{fill:url(#Безымянный_градиент_28);}.cls-4{fill:url(#Безымянный_градиент_28-2);}.cls-5{fill:url(#Безымянный_градиент_28-3);}.cls-6{fill:url(#Безымянный_градиент_14);}.cls-7{fill:url(#Безымянный_градиент_48);}.cls-8{fill:url(#Безымянный_градиент_48-2);}.cls-9{fill:none;stroke-miterlimit:10;stroke-width:7px;stroke:url(#Безымянный_градиент_101);}</style><linearGradient id="Безымянный_градиент_24" x1="-2993.61" y1="3674.88" x2="-2926.18" y2="3674.88" gradientTransform="matrix(-4.52, 1.36, -1.09, -3.63, -9353.2, 17425.78)" gradientUnits="userSpaceOnUse"><stop offset="0" stop-color="#e12284"/><stop offset="0.33" stop-color="#a14295"/><stop offset="0.6" stop-color="#7359a1"/><stop offset="0.73" stop-color="#6262a6"/></linearGradient><linearGradient id="Безымянный_градиент_3" x1="-3073.07" y1="3619.21" x2="-3005.64" y2="3619.21" gradientTransform="matrix(-2.56, 3.97, -3.19, -2.05, 4152.44, 19587.72)" gradientUnits="userSpaceOnUse"><stop offset="0" stop-color="#49ad52"/><stop offset="0.2" stop-color="#4e9e62"/><stop offset="0.6" stop-color="#5b788d"/><stop offset="0.81" stop-color="#6262a6"/></linearGradient><linearGradient id="Безымянный_градиент_28" x1="-58.91" y1="180.31" x2="88.36" y2="180.31" gradientUnits="userSpaceOnUse"><stop offset="0" stop-color="#fbc31b"/><stop offset="0.05" stop-color="#f9b71e"/><stop offset="0.21" stop-color="#f29926"/><stop offset="0.38" stop-color="#ed812c"/><stop offset="0.56" stop-color="#ea7031"/><stop offset="0.76" stop-color="#e86633"/><stop offset="1" stop-color="#e76334"/></linearGradient><linearGradient id="Безымянный_градиент_28-2" x1="282.35" y1="37.67" x2="320.1" y2="37.67" xlink:href="#Безымянный_градиент_28"/><linearGradient id="Безымянный_градиент_28-3" x1="100.55" y1="180.7" x2="119.7" y2="180.7" xlink:href="#Безымянный_градиент_28"/><linearGradient id="Безымянный_градиент_14" x1="38.75" y1="66.92" x2="97.24" y2="66.92" gradientUnits="userSpaceOnUse"><stop offset="0" stop-color="#e12284"/><stop offset="0.14" stop-color="#dc2585"/><stop offset="0.32" stop-color="#cd2c89"/><stop offset="0.51" stop-color="#b53890"/><stop offset="0.71" stop-color="#924a99"/><stop offset="0.91" stop-color="#6760a5"/><stop offset="0.94" stop-color="#6262a6"/></linearGradient><linearGradient id="Безымянный_градиент_48" x1="193.45" y1="127.94" x2="285.27" y2="127.94" gradientTransform="matrix(1, 0, 0, 1, 0, 0)" xlink:href="#Безымянный_градиент_3"/><linearGradient id="Безымянный_градиент_48-2" x1="114.73" y1="72.06" x2="206.55" y2="72.06" gradientTransform="matrix(1, 0, 0, 1, 0, 0)" xlink:href="#Безымянный_градиент_3"/><linearGradient id="Безымянный_градиент_101" x1="272.5" y1="134.01" x2="496.02" y2="134.01" gradientUnits="userSpaceOnUse"><stop offset="0.08" stop-color="#df1d4d"/><stop offset="0.41" stop-color="#e01e5d"/><stop offset="1" stop-color="#e12284"/></linearGradient></defs><polygon class="cls-1" points="145.57 -94.71 17.97 161.79 -100.8 192.23 44.51 -90.89 145.57 -94.71"/><polygon class="cls-2" points="386.04 -107.07 455.47 170.88 384.88 271.13 311.64 -38.55 386.04 -107.07"/><circle class="cls-3" cx="14.72" cy="180.31" r="73.64"/><circle class="cls-4" cx="301.23" cy="37.67" r="18.88"/><circle class="cls-5" cx="110.13" cy="180.7" r="9.58"/><circle class="cls-6" cx="68" cy="66.92" r="29.24"/><path class="cls-7" d="M257.33,110V82H221.39V110H193.45v35.94h27.94v27.94h35.94V145.91h27.94V110ZM229.39,90h19.94V110H229.39Zm19.94,47.88H229.39V118h19.94Zm-47.88,0V118h19.94v19.94Zm47.88,27.94H229.39V145.91h19.94Zm27.94-27.94H257.33V118h19.94Z"/><path class="cls-8" d="M206.55,26.15H142.67V82H114.73V118h63.88V62.09h27.94Zm-55.88,8h19.94V54.09H150.67Zm-8,75.82H122.73V90h19.94Zm27.94,0H150.67V90h19.94Zm0-27.94H150.67V62.09h19.94Zm27.94-27.94H178.61V34.15h19.94Z"/><path class="cls-9" d="M440.57,27.46S355.2,7.77,354.39,73.29s16.93,50.89-24.94,92.56S277.27,243,277.27,243L491.59,226.8Z"/></svg>