<svg id="Слой_1" data-name="Слой 1" xmlns="http://www.w3.org/2000/svg" xmlns:xlink="http://www.w3.org/1999/xlink" viewBox="0 0 400 200"><defs><style>.cls-1{fill:url(#Безымянный_градиент_24);}.cls-2{fill:url(#Безымянный_градиент_3);}.cls-3{fill:url(#Безымянный_градиент_71);}.cls-4{fill:url(#Безымянный_градиент_71-2);}.cls-5{fill:url(#Безымянный_градиент_71-3);}.cls-6,.cls-7{fill:none;stroke-miterlimit:10;stroke-width:7px;}.cls-6{stroke:url(#Безымянный_градиент_76);}.cls-7{stroke:url(#Безымянный_градиент_28);}.cls-8{fill:url(#Безымянный_градиент_76-2);}.cls-9{fill:url(#Безымянный_градиент_15);}</style><linearGradient id="Безымянный_градиент_24" x1="258.75" y1="129" x2="437.73" y2="129" gradientUnits="userSpaceOnUse"><stop offset="0" stop-color="#e12284"/><stop offset="0.33" stop-color="#a14295"/><stop offset="0.6" stop-color="#7359a1"/><stop offset="0.73" stop-color="#6262a6"/></linearGradient><linearGradient id="Безымянный_градиент_3" x1="184.44" y1="37.84" x2="378.44" y2="37.84" gradientTransform="matrix(-0.06, -0.95, 0.67, -0.05, 344.78, 324.62)" gradientUnits="userSpaceOnUse"><stop offset="0" stop-color="#49ad52"/><stop offset="0.2" stop-color="#4e9e62"/><stop offset="0.6" stop-color="#5b788d"/><stop offset="0.81" stop-color="#6262a6"/></linearGradient><linearGradient id="Безымянный_градиент_71" x1="117.27" y1="100" x2="282.73" y2="100" gradientUnits="userSpaceOnUse"><stop offset="0.08" stop-color="#df1d4d"/><stop offset="0.23" stop-color="#e01e5d"/><stop offset="0.5" stop-color="#e02073"/><stop offset="0.76" stop-color="#e12280"/><stop offset="1" stop-color="#e12284"/></linearGradient><linearGradient id="Безымянный_градиент_71-2" x1="191.03" y1="56.92" x2="208.97" y2="56.92" xlink:href="#Безымянный_градиент_71"/><linearGradient id="Безымянный_градиент_71-3" x1="-20.14" y1="75.99" x2="117.27" y2="75.99" xlink:href="#Безымянный_градиент_71"/><linearGradient id="Безымянный_градиент_76" x1="-31.19" y1="164.64" x2="103.32" y2="164.64" gradientUnits="userSpaceOnUse"><stop offset="0" stop-color="#49ad52"/><stop offset="0.14" stop-color="#44ac68"/><stop offset="0.42" stop-color="#38a8a2"/><stop offset="0.66" stop-color="#2da5d7"/></linearGradient><linearGradient id="Безымянный_градиент_28" x1="309.53" y1="54.46" x2="518.89" y2="54.46" gradientUnits="userSpaceOnUse"><stop offset="0" stop-color="#fbc31b"/><stop offset="0.05" stop-color="#f9b71e"/><stop offset="0.21" stop-color="#f29926"/><stop offset="0.38" stop-color="#ed812c"/><stop offset="0.56" stop-color="#ea7031"/><stop offset="0.76" stop-color="#e86633"/><stop offset="1" stop-color="#e76334"/></linearGradient><linearGradient id="Безымянный_градиент_76-2" x1="67.11" y1="86.1" x2="90.47" y2="86.1" xlink:href="#Безымянный_градиент_76"/><linearGradient id="Безымянный_градиент_15" x1="50.27" y1="31.69" x2="93.29" y2="31.69" gradientUnits="userSpaceOnUse"><stop offset="0" stop-color="#49ad52"/><stop offset="0.18" stop-color="#44ac68"/><stop offset="0.54" stop-color="#38a8a2"/><stop offset="0.85" stop-color="#2da5d7"/></linearGradient></defs><polygon class="cls-1" points="437.73 13.06 258.75 244.94 420.47 219.99 437.73 13.06"/><polygon class="cls-2" points="268.22 -32.7 435.77 141.83 407.82 -24.19 268.22 -32.7"/><path class="cls-3" d="M267.93,141.75l-6.68-2.32a16.14,16.14,0,0,0,6.14-12.67v-4.89a16.43,16.43,0,0,0-.32-3.22,2.45,2.45,0,1,0-4.8,1,11.23,11.23,0,0,1,.23,2.25v4.89a11.26,11.26,0,1,1-22.52,0v-4.89a11.26,11.26,0,0,1,17-9.69,2.45,2.45,0,0,0,2.5-4.21,16.22,16.22,0,0,0-5.79-2.07V76.5a22.06,22.06,0,0,0-22-22h-9.47l7.45-4.3a2.45,2.45,0,0,0,.9-3.34L224,35.52a2.46,2.46,0,0,0-1.48-1.14,2.42,2.42,0,0,0-1.86.25l-7.74,4.46a21.69,21.69,0,0,0-4-2.29V27.88a2.44,2.44,0,0,0-2.44-2.45H193.47A2.44,2.44,0,0,0,191,27.88V36.8a21.69,21.69,0,0,0-4,2.29l-7.74-4.46a2.4,2.4,0,0,0-1.85-.25A2.45,2.45,0,0,0,176,35.52l-6.53,11.31a2.45,2.45,0,0,0,.9,3.34l7.45,4.3h-9.47a22.06,22.06,0,0,0-22,22v29.4a16.28,16.28,0,0,0-5.79,2.07,2.45,2.45,0,0,0,2.5,4.21,11.26,11.26,0,0,1,17,9.69v4.89a11.26,11.26,0,0,1-22.52,0v-4.89a11.23,11.23,0,0,1,.23-2.25,2.45,2.45,0,1,0-4.8-1,16.43,16.43,0,0,0-.32,3.22v4.89a16.14,16.14,0,0,0,6.14,12.67l-6.68,2.32a22,22,0,0,0-14.8,20.81v9.56a2.45,2.45,0,0,0,2.45,2.45h67.39a2.45,2.45,0,1,0,0-4.89H173.4v-7.12a17.15,17.15,0,0,1,11.52-16.19l2.86-1,10.1,17.53a2.44,2.44,0,0,0,4.24,0l10.1-17.53,2.86,1a17.15,17.15,0,0,1,11.52,16.19v7.12h-28a2.45,2.45,0,1,0,0,4.89h81.73a2.45,2.45,0,0,0,2.45-2.45v-9.56A22,22,0,0,0,267.93,141.75Zm-11.56,1.17,2.38.82-7.51,13-7.51-13,2.37-.82ZM179,40.09l7.05,4.07a2.45,2.45,0,0,0,2.81-.26,17,17,0,0,1,5.42-3.13,2.45,2.45,0,0,0,1.63-2.31V30.32h8.16v8.14a2.45,2.45,0,0,0,1.63,2.31,16.91,16.91,0,0,1,5.42,3.13,2.45,2.45,0,0,0,2.81.26L221,40.09l4.08,7.06L218,51.22a2.47,2.47,0,0,0-1.19,2.57,17,17,0,0,1,0,6.26A2.47,2.47,0,0,0,218,62.62l7.05,4.07L221,73.75l-7.06-4.07a2.45,2.45,0,0,0-2.81.26,17.12,17.12,0,0,1-5.42,3.14,2.43,2.43,0,0,0-1.63,2.3v8.14h-8.16V75.38a2.43,2.43,0,0,0-1.63-2.3,17.23,17.23,0,0,1-5.42-3.14,2.45,2.45,0,0,0-2.81-.26L179,73.75l-4.08-7.06,7-4.07a2.46,2.46,0,0,0,1.18-2.57,17,17,0,0,1,0-6.26A2.46,2.46,0,0,0,182,51.22l-7-4.07ZM200,138a11.27,11.27,0,0,1-11.26-11.26v-4.89a11.26,11.26,0,0,1,22.52,0v4.89A11.27,11.27,0,0,1,200,138Zm-46.1,4.9,2.38.82-7.52,13-7.51-13,2.38-.82Zm-31.73,26.76v-7.12a17.13,17.13,0,0,1,11.51-16.19l2.86-1,10.1,17.52a2.44,2.44,0,0,0,4.24,0L161,145.38l2.87,1a17,17,0,0,1,7.57,5.25,22,22,0,0,0-2.91,10.94v7.12Zm61.14-27.93a21.94,21.94,0,0,0-8.92,5.83,21.76,21.76,0,0,0-8.94-5.83l-6.68-2.32a16.15,16.15,0,0,0,6.15-12.67v-4.89a16.18,16.18,0,0,0-13.71-16V76.5a17.15,17.15,0,0,1,17.13-17.13h9.47l-7.45,4.3a2.45,2.45,0,0,0-.9,3.34L176,78.32a2.45,2.45,0,0,0,3.34.9l7.74-4.47A21.69,21.69,0,0,0,191,77V86a2.44,2.44,0,0,0,2.44,2.44h4.08V105.9a16.17,16.17,0,0,0-13.7,16v4.89A16.14,16.14,0,0,0,190,139.43Zm16.69,15-7.51-13,2.38-.82h10.27l2.37.82Zm16.69-15L210,139.43a16.15,16.15,0,0,0,6.15-12.67v-4.89a16.18,16.18,0,0,0-13.71-16V88.41h4.08A2.44,2.44,0,0,0,209,86V77a21.69,21.69,0,0,0,4-2.29l7.74,4.47a2.45,2.45,0,0,0,3.34-.9L230.54,67a2.45,2.45,0,0,0-.9-3.34l-7.45-4.3h9.47A17.15,17.15,0,0,1,248.79,76.5v29.4a16.18,16.18,0,0,0-13.71,16v4.89a16.15,16.15,0,0,0,6.15,12.67l-6.68,2.32a21.66,21.66,0,0,0-8.93,5.83A22,22,0,0,0,216.69,141.75Zm61.15,27.93H231.49v-7.12a22,22,0,0,0-2.91-10.94,17,17,0,0,1,7.57-5.25l2.87-1,10.1,17.53a2.44,2.44,0,0,0,4.24,0l10.1-17.53,2.86,1a17.14,17.14,0,0,1,11.52,16.18Z"/><path class="cls-4" d="M200,65.9a9,9,0,1,0-9-9A9,9,0,0,0,200,65.9Zm0-13.06a4.08,4.08,0,1,1-4.08,4.08A4.08,4.08,0,0,1,200,52.84Z"/><path class="cls-5" d="M110-25.49s21.69,53.55-9.92,81.15S42.9,34.42,25.1,65.91c-10.53,18.65,33.47,49.5,19.22,83.16S-15.8,177.12-15.8,177.12L-20.14-17.07Z"/><polygon class="cls-6" points="67.67 109.89 4.46 109.89 -27.15 164.63 4.46 219.38 67.67 219.38 99.28 164.63 67.67 109.89"/><polygon class="cls-7" points="464.53 -32.7 363.89 -32.7 313.57 54.46 363.89 141.61 464.53 141.61 514.85 54.46 464.53 -32.7"/><polygon class="cls-8" points="84.63 75.99 72.95 75.99 67.11 86.11 72.95 96.22 84.63 96.22 90.47 86.11 84.63 75.99"/><polygon class="cls-9" points="82.53 13.06 61.02 13.06 50.27 31.69 61.02 50.32 82.53 50.32 93.29 31.69 82.53 13.06"/></svg>