<svg id="Слой_1" data-name="Слой 1" xmlns="http://www.w3.org/2000/svg" xmlns:xlink="http://www.w3.org/1999/xlink" viewBox="0 0 400 200"><defs><style>.cls-1{fill:url(#Безымянный_градиент_6);}.cls-2{fill:url(#Безымянный_градиент_18);}.cls-3{fill:url(#Безымянный_градиент_3);}.cls-4{fill:url(#Безымянный_градиент_105);}.cls-5{fill:url(#Безымянный_градиент_105-2);}.cls-6{fill:url(#Безымянный_градиент_105-3);}.cls-7{fill:url(#Безымянный_градиент_28);}.cls-8{fill:none;stroke-miterlimit:10;stroke-width:7px;stroke:url(#Безымянный_градиент_101);}.cls-9{fill:url(#Безымянный_градиент_101-2);}.cls-10{fill:url(#Безымянный_градиент_101-3);}</style><linearGradient id="Безымянный_градиент_6" x1="163.31" y1="62.94" x2="540.09" y2="61.58" gradientTransform="matrix(0.53, -0.56, 0.73, 0.69, 90.01, 267.25)" gradientUnits="userSpaceOnUse"><stop offset="0.51" stop-color="#6262a6"/><stop offset="0.68" stop-color="#984797"/><stop offset="0.82" stop-color="#c0338d"/><stop offset="0.93" stop-color="#d82686"/><stop offset="1" stop-color="#e12284"/></linearGradient><linearGradient id="Безымянный_градиент_18" x1="312.25" y1="83.05" x2="370" y2="83.05" gradientUnits="userSpaceOnUse"><stop offset="0" stop-color="#e12284"/><stop offset="0.08" stop-color="#c72f8b"/><stop offset="0.21" stop-color="#a34195"/><stop offset="0.35" stop-color="#86509c"/><stop offset="0.48" stop-color="#725aa2"/><stop offset="0.61" stop-color="#6660a5"/><stop offset="0.74" stop-color="#6262a6"/></linearGradient><linearGradient id="Безымянный_градиент_3" x1="-95.13" y1="19.13" x2="95.21" y2="191.05" gradientUnits="userSpaceOnUse"><stop offset="0" stop-color="#49ad52"/><stop offset="0.2" stop-color="#4e9e62"/><stop offset="0.6" stop-color="#5b788d"/><stop offset="0.81" stop-color="#6262a6"/></linearGradient><linearGradient id="Безымянный_градиент_105" x1="196.59" y1="152.99" x2="202.29" y2="152.99" gradientUnits="userSpaceOnUse"><stop offset="0" stop-color="#fbc31b"/><stop offset="0.18" stop-color="#f6ad21"/><stop offset="0.54" stop-color="#ee852b"/><stop offset="0.83" stop-color="#e96c32"/><stop offset="1" stop-color="#e76334"/></linearGradient><linearGradient id="Безымянный_градиент_105-2" x1="145.31" y1="100" x2="254.69" y2="100" xlink:href="#Безымянный_градиент_105"/><linearGradient id="Безымянный_градиент_105-3" x1="182.35" y1="68.66" x2="193.74" y2="68.66" xlink:href="#Безымянный_градиент_105"/><linearGradient id="Безымянный_градиент_28" x1="2659.18" y1="311.07" x2="2828.71" y2="311.07" gradientTransform="matrix(-0.21, 0.41, -0.89, -0.46, 931.89, -913.15)" gradientUnits="userSpaceOnUse"><stop offset="0" stop-color="#fbc31b"/><stop offset="0.05" stop-color="#f9b71e"/><stop offset="0.21" stop-color="#f29926"/><stop offset="0.38" stop-color="#ed812c"/><stop offset="0.56" stop-color="#ea7031"/><stop offset="0.76" stop-color="#e86633"/><stop offset="1" stop-color="#e76334"/></linearGradient><linearGradient id="Безымянный_градиент_101" x1="-165" y1="95.98" x2="172.09" y2="325.84" gradientTransform="matrix(0.79, -0.56, 0.54, 0.83, -121.01, 34.07)" gradientUnits="userSpaceOnUse"><stop offset="0.08" stop-color="#df1d4d"/><stop offset="0.41" stop-color="#e01e5d"/><stop offset="1" stop-color="#e12284"/></linearGradient><linearGradient id="Безымянный_градиент_101-2" x1="20.78" y1="145.98" x2="74.86" y2="145.98" gradientTransform="matrix(1, 0, 0, 1, 0, 0)" xlink:href="#Безымянный_градиент_101"/><linearGradient id="Безымянный_градиент_101-3" x1="82.37" y1="115.19" x2="102.11" y2="115.19" gradientTransform="matrix(1, 0, 0, 1, 0, 0)" xlink:href="#Безымянный_градиент_101"/></defs><path class="cls-1" d="M301.1-38.26s86.25,64.13,35.32,166.14S301.19,307.3,301.19,307.3L501.1,96.75,343.78-52.61Z"/><circle class="cls-2" cx="341.13" cy="83.05" r="28.87"/><path class="cls-3" d="M72.23-6.54S54.77-2,69.38,44.09C79.2,75,87.21,79.51,93,123.21c6.44,48.5-21.16,93.71-21.16,93.71H-71.94V-6.54Z"/><path class="cls-4" d="M202.29,153a2.85,2.85,0,1,1-2.85-2.85A2.86,2.86,0,0,1,202.29,153Z"/><path class="cls-5" d="M185.4,100.71a46.13,46.13,0,0,0-17.55,30.63,8.56,8.56,0,0,0-8.29,8.54V151a19.85,19.85,0,0,0-14.25,19.11,2.86,2.86,0,0,0,2.85,2.85H250.72a2.85,2.85,0,0,0,2.84-2.85A19.84,19.84,0,0,0,239.32,151V139.88a8.55,8.55,0,0,0-8-8.52,24.82,24.82,0,0,1,.8-12.84h15.16a2.84,2.84,0,0,0,2.72-2c3.71-11.92,7.24-26.39,2-47.25C246,44.93,222.52,27.07,202.78,27.07H188.33a2.86,2.86,0,0,0-2.85,2.85V46a19.87,19.87,0,0,0-16.9,18.45l-12.2,12.19a8.55,8.55,0,0,0,0,12.09l7,7a11.35,11.35,0,0,0,15.91.16c1.79-1.44,7.32-9.52,16.2-6.33A39.37,39.37,0,0,1,185.4,100.71Zm48.22,39.17v10.26H210.83a2.85,2.85,0,0,0,0,5.7h22.79a14.19,14.19,0,0,1,14,11.39h-96.3a14.19,14.19,0,0,1,14-11.39H188a2.85,2.85,0,0,0,0-5.7H165.25V139.88A2.86,2.86,0,0,1,168.1,137h62.68A2.85,2.85,0,0,1,233.62,139.88Zm12.91-69.24c4.58,18.33,2,31-1.33,42.18H234c3.54-11.19,6.54-22.13,2.2-39.49-3-12-13.56-23.35-27.88-26.73V38.43a11.27,11.27,0,0,0-1.35-5.36C223.32,35.38,241.55,50.73,246.53,70.64Zm-45.7,21c5.75,1.54,10.64-.26,14.38-2.1a2.85,2.85,0,1,0-2.53-5.11c-4.5,2.22-8.36,3-13,.72a17.34,17.34,0,0,0-15.63-.39c-4.19,2-6.73,4.93-8.71,6.9a5.64,5.64,0,0,1-8,0l-7-7a2.85,2.85,0,0,1,0-4l13-13a2.85,2.85,0,0,0,.84-2A14.15,14.15,0,0,1,188.33,51.5a2.86,2.86,0,0,0,2.85-2.85V32.77h5.74a5.66,5.66,0,0,1,5.65,5.66V48.92a2.85,2.85,0,0,0,2.37,2.81c13.22,2.27,23.05,12.42,25.68,23,4.26,17,1,26.6-3.28,40.09-1.67,5.3-2.88,10-1.79,16.54h-52a40.3,40.3,0,0,1,15.22-26.07A44.89,44.89,0,0,0,200.83,91.66Z"/><path class="cls-6" d="M190.89,65.82H185.2a2.85,2.85,0,1,0,0,5.69h5.69a2.85,2.85,0,1,0,0-5.69Z"/><polygon class="cls-7" points="117.5 39.98 40.56 83.05 70.5 11.15 117.5 39.98"/><rect class="cls-8" x="-195.84" y="131.94" width="381.05" height="148.77" transform="translate(94.24 25.53) rotate(27.36)"/><polygon class="cls-9" points="61.34 122.56 34.3 122.56 20.78 145.98 34.3 169.4 61.34 169.4 74.86 145.98 61.34 122.56"/><polygon class="cls-10" points="97.18 106.64 87.31 106.64 82.37 115.19 87.31 123.74 97.18 123.74 102.11 115.19 97.18 106.64"/></svg>