<svg id="Слой_1" data-name="Слой 1" xmlns="http://www.w3.org/2000/svg" xmlns:xlink="http://www.w3.org/1999/xlink" viewBox="0 0 400 200"><defs><style>.cls-1{fill:url(#Безымянный_градиент_7);}.cls-2{fill:url(#Безымянный_градиент_22);}.cls-3{fill:url(#Безымянный_градиент_71);}.cls-4{fill:url(#Безымянный_градиент_71-2);}.cls-5{fill:url(#Безымянный_градиент_71-3);}.cls-6{fill:url(#Безымянный_градиент_71-4);}.cls-7{fill:url(#Безымянный_градиент_71-5);}.cls-8{fill:url(#Безымянный_градиент_71-6);}.cls-9{fill:url(#Безымянный_градиент_71-7);}.cls-10{fill:url(#Безымянный_градиент_28);}.cls-11{fill:url(#Безымянный_градиент_28-2);}.cls-12{fill:none;stroke-miterlimit:10;stroke-width:7px;stroke:url(#Безымянный_градиент_3);}</style><linearGradient id="Безымянный_градиент_7" x1="354.97" y1="149.31" x2="355.95" y2="-16.15" gradientTransform="translate(0.56 -18.81)" gradientUnits="userSpaceOnUse"><stop offset="0" stop-color="#fbc31b"/><stop offset="0.39" stop-color="#f29826"/><stop offset="0.79" stop-color="#ea7230"/><stop offset="1" stop-color="#e76334"/></linearGradient><linearGradient id="Безымянный_градиент_22" x1="-56.79" y1="91.68" x2="114.99" y2="91.68" gradientUnits="userSpaceOnUse"><stop offset="0" stop-color="#6262a6"/><stop offset="0.34" stop-color="#984797"/><stop offset="0.63" stop-color="#c0338d"/><stop offset="0.86" stop-color="#d82686"/><stop offset="1" stop-color="#e12284"/></linearGradient><linearGradient id="Безымянный_градиент_71" x1="203.77" y1="80.48" x2="230.96" y2="80.48" gradientUnits="userSpaceOnUse"><stop offset="0.08" stop-color="#df1d4d"/><stop offset="0.23" stop-color="#e01e5d"/><stop offset="0.5" stop-color="#e02073"/><stop offset="0.76" stop-color="#e12280"/><stop offset="1" stop-color="#e12284"/></linearGradient><linearGradient id="Безымянный_градиент_71-2" x1="231.51" y1="76.97" x2="254.46" y2="76.97" xlink:href="#Безымянный_градиент_71"/><linearGradient id="Безымянный_градиент_71-3" x1="224.84" y1="98.86" x2="230.29" y2="98.86" xlink:href="#Безымянный_градиент_71"/><linearGradient id="Безымянный_градиент_71-4" x1="130.75" y1="44.35" x2="137.49" y2="44.35" xlink:href="#Безымянный_градиент_71"/><linearGradient id="Безымянный_градиент_71-5" x1="138.69" y1="52.09" x2="161.29" y2="52.09" xlink:href="#Безымянный_градиент_71"/><linearGradient id="Безымянный_градиент_71-6" x1="121.57" y1="100" x2="278.43" y2="100" xlink:href="#Безымянный_градиент_71"/><linearGradient id="Безымянный_градиент_71-7" x1="138.52" y1="112.07" x2="142.04" y2="112.07" xlink:href="#Безымянный_градиент_71"/><linearGradient id="Безымянный_градиент_28" x1="-22.87" y1="172.82" x2="83.31" y2="172.82" gradientUnits="userSpaceOnUse"><stop offset="0" stop-color="#fbc31b"/><stop offset="0.05" stop-color="#f9b71e"/><stop offset="0.21" stop-color="#f29926"/><stop offset="0.38" stop-color="#ed812c"/><stop offset="0.56" stop-color="#ea7031"/><stop offset="0.76" stop-color="#e86633"/><stop offset="1" stop-color="#e76334"/></linearGradient><linearGradient id="Безымянный_градиент_28-2" x1="30.22" y1="115.48" x2="74.46" y2="115.48" xlink:href="#Безымянный_градиент_28"/><linearGradient id="Безымянный_градиент_3" x1="299.06" y1="71.61" x2="435.79" y2="71.61" gradientUnits="userSpaceOnUse"><stop offset="0" stop-color="#49ad52"/><stop offset="0.2" stop-color="#4e9e62"/><stop offset="0.6" stop-color="#5b788d"/><stop offset="0.81" stop-color="#6262a6"/></linearGradient></defs><rect class="cls-1" x="326.23" y="-83.98" width="59.53" height="272.13" transform="translate(91.52 296.01) rotate(-51.01)"/><polygon class="cls-2" points="114.99 -15.9 6.99 235.82 -56.79 104.07 -37.23 -52.47 114.99 -15.9"/><path class="cls-3" d="M229.56,60.41a1.6,1.6,0,0,0-1.79,1.37h0c-1.52,11.81-15.41,27.66-23.55,36.06a1.6,1.6,0,1,0,2.3,2.23h0C225.15,80.86,230.09,68.87,231,62.2a1.6,1.6,0,0,0-1.39-1.79Z"/><path class="cls-4" d="M233.39,67.07a1.6,1.6,0,0,0-.56,3.15h0c15.08,2.48,18.3,14.92,18.43,15.45a1.6,1.6,0,0,0,3.11-.75C254.27,84.32,250.62,69.91,233.39,67.07Z"/><path class="cls-5" d="M225.8,84.18a1.59,1.59,0,0,0-.82,2.11c4.7,10.63,0,25.13,0,25.28a1.6,1.6,0,0,0,3,1c.22-.64,5.15-15.82-.05-27.59a1.59,1.59,0,0,0-2.11-.81Z"/><path class="cls-6" d="M134.74,36.43c-6.41,6.4-3.21,15-3.07,15.31a1.6,1.6,0,0,0,3-1.15c-.11-.29-2.57-7,2.34-11.9a1.6,1.6,0,0,0-2.23-2.29l0,0Z"/><path class="cls-7" d="M161.1,54.66a1.6,1.6,0,0,0-.66-2.17c-.47-.25-11.7-6.12-20.71-2.83a1.6,1.6,0,0,0,1.1,3c7.65-2.79,18,2.58,18.11,2.65a1.59,1.59,0,0,0,2.16-.66Z"/><path class="cls-8" d="M247.34,54.15a94.2,94.2,0,0,0-23.29,1.28,1.62,1.62,0,0,0-1.27,1.37c-.65,5.07-4.58,16.49-23.55,36.06a23.43,23.43,0,0,0-3.38,5.44c-1.43,2.78-3.2,6.23-4.81,5.89a37.79,37.79,0,0,0-8.62-.76,19.35,19.35,0,0,1,2.39-18.66,1.59,1.59,0,0,0-.24-2.25.94.94,0,0,0-.12-.09c-8.61-5.67-14-13.25-16-22.52a33.64,33.64,0,0,1-.49-12.39,1.6,1.6,0,0,0-1.25-1.89h-.08c-11.62-1.69-19.31-5.45-22.24-10.89A12.26,12.26,0,0,1,144,24.31a1.6,1.6,0,0,0-.75-2.13,1.64,1.64,0,0,0-1.11-.11c-8.08,2.15-13.89,6.21-17.26,12.06-5.26,9.13-2.61,19.23-2.5,19.65a1.62,1.62,0,0,0,.89,1c13.82,6.23,23,18.14,28.19,27a93.44,93.44,0,0,1,7.51,16.09l-.44-.11a28.68,28.68,0,0,0-6.27-.76c.35-1.08.57-1.84.6-1.93a1.61,1.61,0,0,0-1.09-2,1.74,1.74,0,0,0-.45-.06,11.81,11.81,0,0,0-3.44.48,32.83,32.83,0,0,0-.44-5.69,1.6,1.6,0,0,0-1.86-1.3,1.42,1.42,0,0,0-.52.19c-9.23,5.29-10.34,20.73-10.38,21.38v0l-.36,9.71V118a3.45,3.45,0,0,0,2.84,3.5l4.26.77a1.6,1.6,0,0,0,1.64-.72l2.34-3.67c1.52-.69,5.82-3,7.21-7.78a27.32,27.32,0,0,1,12.67,2.8,42.11,42.11,0,0,0,2.44,8.8,23.32,23.32,0,0,0,7.26,10.11l-3.63,10.47a5,5,0,0,0,.81,4.78l2.43,3.08a5,5,0,0,0,4,1.92,1.85,1.85,0,0,1,1.7,1.12,6,6,0,0,0-2.94,5.19v4a1.59,1.59,0,0,0,1.18,1.54l3.46,1a1.6,1.6,0,0,0,2-1.12v0l.38-1.52a2.82,2.82,0,0,1,1.07-1.6l-.39,4.13a1.62,1.62,0,0,0,1,1.62l3.44,1.52a1.61,1.61,0,0,0,2.11-.82l.06-.18.25-.78a28.46,28.46,0,0,0,2.82,3.19c4.2,4.09,11.59,8.68,23.64,8.68,1.13,0,2.31,0,3.54-.13a23.5,23.5,0,0,0,15.38-5.48l5.11-3.65.18-.15,1.78-1.7a16.17,16.17,0,0,0,5-10.94l.33-7.17a1.6,1.6,0,0,0-1.52-1.67,1.64,1.64,0,0,0-1.16.41l-5.62,5.12A16.19,16.19,0,0,0,236,163l-.18,1.91c-6,6.41-17.09,4.17-17.18,4.15-8.74-2-10-11-10.15-12,.19-19.75-3.34-27.26-5.31-29.91,4-4.46,9.59-7,16.76-7.55a38.29,38.29,0,0,1,10.68.68,1.61,1.61,0,0,0,1.94-1.18.44.44,0,0,1,0-.1c2-11.32,6.92-19.49,14.65-24.27a25.51,25.51,0,0,1,11.12-3.84,1.6,1.6,0,0,0,1.54-1.51c.3-5.4,2-9.38,5.08-11.85,4.82-3.86,11.53-2.81,11.6-2.8a1.6,1.6,0,0,0,1.77-2.12c-3.91-10.82-14.63-17.21-31-18.47ZM154.22,80.3C144.6,63.92,133.31,56,125.27,52.24c-.45-2.3-1.52-9.81,2.35-16.51,2.53-4.4,6.72-7.65,12.48-9.69a15,15,0,0,0,1.4,10.16c3.31,6.21,11.06,10.36,23,12.34a38.48,38.48,0,0,0,16.79,35.64,22.45,22.45,0,0,0-2.26,19.44c-1.54.14-2.74.33-3.42.45a52,52,0,0,0-7.54-3.39,1.44,1.44,0,0,0-.05-.74c-.12-.37-3-9.28-5-13.94a1.6,1.6,0,1,0-3,1.23v0c1.48,3.42,3.52,9.45,4.43,12.2l-1.92-.57a90.8,90.8,0,0,0-8.4-18.6Zm24.29,68.55a1.85,1.85,0,0,1-1.45-.7l-2.44-3.08a1.86,1.86,0,0,1-.29-1.76l3.35-9.67c.93.62,1.74,1.18,2.42,1.65a6.88,6.88,0,0,0-2.2,5.92l.44,3.4a6.85,6.85,0,0,0,4.08,5.41l.12,0a3.61,3.61,0,0,1,1.94,2l-1.19.19-.12-.3a5,5,0,0,0-4.66-3.1ZM189,164.23l-.75-.33.3-3.17c.24.54.55,1.18.94,1.89Zm7.93,2.89a25.41,25.41,0,0,1-5.1-6.94h.59a1.62,1.62,0,0,0,1.63-1.35l.46-3c1.89,5.07,5.31,11.84,11.21,16.81a26.12,26.12,0,0,1-8.79-5.55Zm77.4-95.73A18.23,18.23,0,0,0,263,75c-3.55,2.84-5.64,7.15-6.2,12.83a29.63,29.63,0,0,0-11.1,4.07c-5.72,3.5-13,10.64-16,24.94a42.4,42.4,0,0,0-9.94-.45c-8.57.64-15.48,4-20,9.82a1.57,1.57,0,0,0-.36,1.25,1.51,1.51,0,0,0,.68,1c.38.34,5.41,5.44,5.17,28.63a.86.86,0,0,0,0,.16,19.91,19.91,0,0,0,2,6.44,15.63,15.63,0,0,0,10.67,8.49c.55.12,13.46,2.75,20.62-5.55a1.61,1.61,0,0,0,.38-.9l.24-2.43a12.92,12.92,0,0,1,4.19-8.36l2.76-2.52-.15,3.31a13,13,0,0,1-4,8.78l-1.69,1.62-5.07,3.62-.1.08c-10.34,8.65-23.58,2.83-24.65,2.34-11-7-14.4-21.7-14.83-23.78l.53-3.42a1.6,1.6,0,1,0-3.15-.55.13.13,0,0,0,0,.06L191.09,157l-3.9-.11a6.09,6.09,0,0,0-6,4.53l-.7-.19v-2.83a2.83,2.83,0,0,1,2.41-2.81l3.7-.57a1.6,1.6,0,0,0,1.36-1.58,6.82,6.82,0,0,0-4.14-6.27l-.12,0a3.65,3.65,0,0,1-2.17-2.87l-.43-3.41a3.63,3.63,0,0,1,2.88-4l5.49-1.1a3.62,3.62,0,0,1,3.2.92l3.49,3.31a1.6,1.6,0,1,0,2.23-2.3l0,0-3.49-3.31a6.84,6.84,0,0,0-6-1.74l-5.49,1.1-.44-.31c-1.16-.81-2.91-2.05-5.19-3.5-5.2-3.33-7.63-10-8.72-14.57a22.62,22.62,0,0,1,2.09,1.83,1.61,1.61,0,1,0,2.25-2.29c-11.12-10.93-25.9-7.47-26.52-7.32a1.6,1.6,0,0,0,.76,3.11s.56-.13,1.48-.25a10.93,10.93,0,0,1-5.34,4.74,1.65,1.65,0,0,0-.79.64l-2,3.19-3.21-.58a.27.27,0,0,1-.21-.26l.36-9.74c0-.53.94-11.84,6.73-17.26a21.65,21.65,0,0,1-.05,4.26,11.29,11.29,0,0,0-3.09,4.24,17.24,17.24,0,0,0-1.33,6.17,1.6,1.6,0,0,0,1.6,1.6h0a1.6,1.6,0,0,0,1.6-1.59c0-.35.11-7.63,5.73-9.18a42.22,42.22,0,0,1-2.41,6.25,1.6,1.6,0,0,0,2.75,1.63l0,0a29.4,29.4,0,0,0,1.75-4.13,24.65,24.65,0,0,1,6.63.66c10.94,2.55,16.67,6.12,16.72,6.15a1.59,1.59,0,0,0,1.2.22,39.73,39.73,0,0,1,14.68,0c4,.86,6.3-3.62,8.32-7.56a22.41,22.41,0,0,1,2.84-4.67c17.59-18.14,23-29.84,24.24-36.71a92.81,92.81,0,0,1,21.39-1c13.93,1.09,23.06,5.81,27.17,14.05Z"/><circle class="cls-9" cx="140.28" cy="112.07" r="1.76"/><circle class="cls-10" cx="30.22" cy="172.82" r="53.09"/><circle class="cls-11" cx="52.34" cy="115.48" r="22.12"/><path class="cls-12" d="M351.4-44.36s-14.46,36.83,6,75S325.89,60.14,324.19,98s36.85,33.2,37.42,62.11c.63,32.55-42.1,47.62-42.1,47.62H432.19L424.54-63.53Z"/></svg>