<svg id="Слой_1" data-name="Слой 1" xmlns="http://www.w3.org/2000/svg" xmlns:xlink="http://www.w3.org/1999/xlink" viewBox="0 0 400 200"><defs><style>.cls-1{fill:url(#Безымянный_градиент_101);}.cls-2{fill:url(#Безымянный_градиент_45);}.cls-3{fill:url(#Безымянный_градиент_48);}.cls-4{fill:none;stroke-miterlimit:10;stroke-width:7px;stroke:url(#Безымянный_градиент_17);}.cls-5{fill:url(#Безымянный_градиент_39);}.cls-6{fill:url(#Безымянный_градиент_40);}.cls-7{fill:url(#Безымянный_градиент_43);}.cls-8{fill:url(#Безымянный_градиент_43-2);}.cls-9{fill:url(#Безымянный_градиент_43-3);}</style><linearGradient id="Безымянный_градиент_101" x1="276.55" y1="67.83" x2="444.09" y2="67.83" gradientUnits="userSpaceOnUse"><stop offset="0.08" stop-color="#df1d4d"/><stop offset="0.41" stop-color="#e01e5d"/><stop offset="1" stop-color="#e12284"/></linearGradient><linearGradient id="Безымянный_градиент_45" x1="-291.9" y1="315.77" x2="-124.36" y2="315.77" gradientTransform="matrix(-0.79, 0.32, -0.38, -0.93, -16.09, 527.93)" gradientUnits="userSpaceOnUse"><stop offset="0" stop-color="#49ad52"/><stop offset="0.11" stop-color="#48ad58"/><stop offset="0.26" stop-color="#44ac68"/><stop offset="0.43" stop-color="#3faa83"/><stop offset="0.61" stop-color="#37a8a8"/><stop offset="0.8" stop-color="#2da5d7"/></linearGradient><linearGradient id="Безымянный_градиент_48" x1="127.93" y1="100" x2="272.07" y2="100" gradientUnits="userSpaceOnUse"><stop offset="0" stop-color="#49ad52"/><stop offset="0.2" stop-color="#4e9e62"/><stop offset="0.6" stop-color="#5b788d"/><stop offset="0.81" stop-color="#6262a6"/></linearGradient><linearGradient id="Безымянный_градиент_17" x1="-29.65" y1="100.82" x2="100.53" y2="100.82" gradientUnits="userSpaceOnUse"><stop offset="0" stop-color="#6262a6"/><stop offset="0.34" stop-color="#984797"/><stop offset="0.63" stop-color="#c0338d"/><stop offset="0.86" stop-color="#d82686"/><stop offset="1" stop-color="#e12284"/></linearGradient><linearGradient id="Безымянный_градиент_39" x1="310.84" y1="177.82" x2="446.9" y2="177.82" gradientUnits="userSpaceOnUse"><stop offset="0" stop-color="#fbc31b"/><stop offset="0.05" stop-color="#f9bb1d"/><stop offset="0.35" stop-color="#ef8b29"/><stop offset="0.58" stop-color="#e96e31"/><stop offset="0.71" stop-color="#e76334"/></linearGradient><linearGradient id="Безымянный_градиент_40" x1="308.36" y1="135.17" x2="334.68" y2="135.17" gradientUnits="userSpaceOnUse"><stop offset="0" stop-color="#fbc31b"/><stop offset="0.66" stop-color="#ec7c2d"/><stop offset="0.89" stop-color="#e76334"/></linearGradient><linearGradient id="Безымянный_градиент_43" x1="23.99" y1="102.11" x2="64.25" y2="102.11" gradientUnits="userSpaceOnUse"><stop offset="0.34" stop-color="#2da5d7"/><stop offset="0.44" stop-color="#30a6ca"/><stop offset="0.62" stop-color="#37a8a9"/><stop offset="0.87" stop-color="#42ab73"/><stop offset="1" stop-color="#49ad52"/></linearGradient><linearGradient id="Безымянный_градиент_43-2" x1="15.97" y1="62.33" x2="32.02" y2="62.33" xlink:href="#Безымянный_градиент_43"/><linearGradient id="Безымянный_градиент_43-3" x1="28.07" y1="28.28" x2="37.74" y2="28.28" xlink:href="#Безымянный_градиент_43"/></defs><path class="cls-1" d="M276.55-23.44c29.66,59.53,105.11,207.5,105.11,207.5L444.09,49.55,419.64-48.39Z"/><path class="cls-2" d="M129.57,226.31C83.75,180.68-31.53,67.83-31.53,67.83l1.43,144.63,56.2,82.87Z"/><path class="cls-3" d="M256.54,41.5H224.63l-22.52-13a4.24,4.24,0,0,0-4.22,0l-22.52,13H143.46A15.55,15.55,0,0,0,127.93,57v69a15.55,15.55,0,0,0,15.53,15.53H189v8.5H166.08a11,11,0,0,0,0,22h67.84a11,11,0,1,0,0-22H211v-8.5h45.53A15.55,15.55,0,0,0,272.07,126V57A15.55,15.55,0,0,0,256.54,41.5ZM169,59.82,195.78,75.3v31L169,90.78ZM204.22,75.3,231,59.82v31l-26.81,15.47ZM200,37l26.81,15.48L200,68,173.19,52.51l5.32-3.07h0Zm36.48,124a2.56,2.56,0,0,1-2.56,2.56H166.08a2.56,2.56,0,1,1,0-5.12h67.84A2.56,2.56,0,0,1,236.48,161.06Zm-33.92-11h-5.12v-8.5h5.12Zm61.06-24a7.1,7.1,0,0,1-7.08,7.09H143.46a7.1,7.1,0,0,1-7.08-7.09V57A7.09,7.09,0,0,1,143.46,50h17.93a4.22,4.22,0,0,0-.86,2.56V93.22a4.2,4.2,0,0,0,2.11,3.65l35.25,20.36a4.26,4.26,0,0,0,4.22,0l35.25-20.36a4.2,4.2,0,0,0,2.11-3.65V52.51a4.22,4.22,0,0,0-.86-2.56h17.93A7.09,7.09,0,0,1,263.62,57Z"/><path class="cls-4" d="M92.31-24.65S65.15,7.93,60.17,26.07c-8.26,30.1,5.1,50.38,15.34,67.28,17.11,28.2,26.1,50.74-10.43,62.36-30.58,9.73-44.54,43.65-17.65,59.53s-58.56,11.33-58.56,11.33l-14.94-220L-10.53-13.8Z"/><circle class="cls-5" cx="378.87" cy="177.82" r="68.03"/><circle class="cls-6" cx="321.52" cy="135.17" r="13.16"/><circle class="cls-7" cx="44.12" cy="102.11" r="20.13"/><circle class="cls-8" cx="23.99" cy="62.33" r="8.03"/><circle class="cls-9" cx="32.9" cy="28.28" r="4.83"/></svg>