<svg id="Слой_1" data-name="Слой 1" xmlns="http://www.w3.org/2000/svg" xmlns:xlink="http://www.w3.org/1999/xlink" viewBox="0 0 400 200"><defs><style>.cls-1{fill:url(#Безымянный_градиент_101);}.cls-2{fill:url(#Безымянный_градиент_95);}.cls-3,.cls-7{fill:none;stroke-miterlimit:10;stroke-width:7px;}.cls-3{stroke:url(#Безымянный_градиент_47);}.cls-4{fill:url(#Безымянный_градиент_49);}.cls-5{fill:url(#Безымянный_градиент_34);}.cls-6{fill:url(#Безымянный_градиент_34-2);}.cls-7{stroke:url(#Безымянный_градиент_52);}</style><linearGradient id="Безымянный_градиент_101" x1="272.29" y1="80.46" x2="418.56" y2="80.46" gradientUnits="userSpaceOnUse"><stop offset="0.08" stop-color="#df1d4d"/><stop offset="0.41" stop-color="#e01e5d"/><stop offset="1" stop-color="#e12284"/></linearGradient><linearGradient id="Безымянный_градиент_95" x1="162.4" y1="100" x2="237.6" y2="100" gradientUnits="userSpaceOnUse"><stop offset="0" stop-color="#e12284"/><stop offset="0.14" stop-color="#d82686"/><stop offset="0.37" stop-color="#c0338d"/><stop offset="0.66" stop-color="#984797"/><stop offset="1" stop-color="#6262a6"/></linearGradient><linearGradient id="Безымянный_градиент_47" x1="277.3" y1="110.04" x2="415.28" y2="110.04" gradientUnits="userSpaceOnUse"><stop offset="0" stop-color="#49ad52"/><stop offset="0.13" stop-color="#46ac61"/><stop offset="0.38" stop-color="#3daa89"/><stop offset="0.73" stop-color="#30a6c9"/><stop offset="0.8" stop-color="#2da5d7"/></linearGradient><linearGradient id="Безымянный_градиент_49" x1="27.42" y1="39.53" x2="44.1" y2="185.92" gradientUnits="userSpaceOnUse"><stop offset="0.16" stop-color="#fbc31b"/><stop offset="0.19" stop-color="#fabe1c"/><stop offset="0.51" stop-color="#f08d29"/><stop offset="0.75" stop-color="#e96e31"/><stop offset="0.88" stop-color="#e76334"/></linearGradient><linearGradient id="Безымянный_градиент_34" x1="16.54" y1="76.39" x2="81.93" y2="76.39" gradientUnits="userSpaceOnUse"><stop offset="0.14" stop-color="#6262a6"/><stop offset="1" stop-color="#49ad52"/></linearGradient><linearGradient id="Безымянный_градиент_34-2" x1="286.02" y1="121.49" x2="314.48" y2="121.49" xlink:href="#Безымянный_градиент_34"/><linearGradient id="Безымянный_градиент_52" x1="43.32" y1="55.43" x2="-49.24" y2="261.96" gradientTransform="translate(-3.94 5.83)" gradientUnits="userSpaceOnUse"><stop offset="0" stop-color="#6262a6"/><stop offset="0.21" stop-color="#8f4b9a"/><stop offset="0.42" stop-color="#b33990"/><stop offset="0.61" stop-color="#cc2c8a"/><stop offset="0.78" stop-color="#dc2585"/><stop offset="0.92" stop-color="#e12284"/></linearGradient></defs><polygon class="cls-1" points="297.83 -3.89 434.8 177.82 444.09 -16.9 297.83 -3.89"/><g id="Page-1"><g id="_036---DNA-" data-name="036---DNA-"><path id="Shape" class="cls-2" d="M222.8,69.74c9.78-8.1,14.8-19.78,14.8-34.86a10,10,0,1,0-20,0c0,.91,0,1.73-.05,2.5h-35c0-.77-.05-1.59-.05-2.5a10,10,0,0,0-20,0c0,15.08,5,26.76,14.8,34.86A36.69,36.69,0,0,0,162.42,100a36.69,36.69,0,0,0,14.78,30.26c-9.79,8.1-14.8,19.79-14.8,34.86a10,10,0,0,0,20,0c0-.91,0-1.73.05-2.5h35c0,.77.05,1.59.05,2.5a10,10,0,1,0,20,0c0-15.08-5-26.76-14.8-34.86A36.69,36.69,0,0,0,237.58,100,36.68,36.68,0,0,0,222.8,69.74Zm-.47-29.6a51.44,51.44,0,0,0,.25-5.26,5,5,0,1,1,10,0c0,14.07-4.79,24.79-14.13,31.93a53.57,53.57,0,0,0-10.74-5,25.89,25.89,0,0,0,11.45-10.73,29.89,29.89,0,0,0,3.15-10.93Zm-7,7.26H184.64a23.85,23.85,0,0,1-1.56-5h33.84A23.85,23.85,0,0,1,215.36,47.4Zm-3.22,5A26.35,26.35,0,0,1,200,59.55a26.41,26.41,0,0,1-12.13-7.14ZM177.68,159.86a51.44,51.44,0,0,0-.25,5.26,5,5,0,0,1-10,0c0-14.07,4.79-24.78,14.13-31.93a53.71,53.71,0,0,0,10.73,5,25.92,25.92,0,0,0-11.44,10.73,29.94,29.94,0,0,0-3.15,10.94Zm7-7.26h30.72a24.45,24.45,0,0,1,1.56,5H183.08A24.45,24.45,0,0,1,184.64,152.6Zm3.22-5A26.35,26.35,0,0,1,200,140.45a26.41,26.41,0,0,1,12.13,7.14Zm44.73,17.53a5,5,0,1,1-10,0,51.83,51.83,0,0,0-.25-5.28,29.92,29.92,0,0,0-3.17-10.93c-3.43-6.38-9.64-10.91-18.43-13.49l-.38-.1c-.5-.14-1-.27-1.54-.4a51.75,51.75,0,0,1-16.09-6.85,32,32,0,0,1-15.28-27.89v-.36a31.76,31.76,0,0,1,14-27A50.51,50.51,0,0,0,192.14,78,28.23,28.23,0,0,0,182,85.93a19.89,19.89,0,0,0-4.51,13.34l0,.73c0,.21,0,.41,0,.62A20,20,0,0,0,182,114.07a32.85,32.85,0,0,0,17.35,10.6c.65.19,1.29.38,1.95.53a47.54,47.54,0,0,1,16,7c10.18,7.13,15.35,18.2,15.35,32.91ZM200,119.64a34.07,34.07,0,0,1-9.82-4.61h19.63A33.26,33.26,0,0,1,200,119.64ZM214.75,110H185.23a15.57,15.57,0,0,1-2.77-7.52h35A15.84,15.84,0,0,1,214.75,110ZM182.48,97.5A15.56,15.56,0,0,1,185.24,90h29.53a15.57,15.57,0,0,1,2.77,7.52ZM190.19,85A33.26,33.26,0,0,1,200,80.36,34.07,34.07,0,0,1,209.82,85Zm42.38,15.21a31.74,31.74,0,0,1-14,27A50.05,50.05,0,0,0,207.85,122,28.23,28.23,0,0,0,218,114.07a20.1,20.1,0,0,0,4.51-13.34V100c0-.21,0-.41,0-.62a20,20,0,0,0-4.51-13.44,32.93,32.93,0,0,0-17.39-10.62c-.63-.19-1.27-.37-1.92-.52a47.49,47.49,0,0,1-16-7c-10.19-7.13-15.36-18.2-15.36-32.91a5,5,0,0,1,10,0,51.7,51.7,0,0,0,.25,5.28,29.81,29.81,0,0,0,3.17,10.93c3.43,6.38,9.63,10.91,18.43,13.49l.38.1c.49.14,1,.27,1.54.4a51.52,51.52,0,0,1,16.09,6.85,32,32,0,0,1,15.28,27.89l0,.18Z"/></g></g><path class="cls-3" d="M320.5-21.7s-34,55.09,3.41,95.8,32.74,64.3-4,82.85c-39.8,20.12-57.23,68.21-13.59,84.79,52.14-3.19,105.43-9.57,105.43-9.57V-21.7Z"/><path class="cls-4" d="M37-50.12S112.44.47,83,32.15,58.2,79.74,75.59,92.27c20.82,15,31.61,31.94,30.9,41.51-2,27.39-34.87,54.78,2,75.75s-104.88,13-104.88,13l-28.91-44.22L-10.58-54.1Z"/><polygon class="cls-5" points="77 48.08 44.3 48.08 27.95 76.39 44.3 104.71 77 104.71 93.34 76.39 77 48.08"/><polygon class="cls-6" points="312.34 109.17 298.11 109.17 290.99 121.49 298.11 133.81 312.34 133.81 319.45 121.49 312.34 109.17"/><rect class="cls-7" x="-53.67" y="66.54" width="93.54" height="195.96" transform="translate(-88.98 21.77) rotate(-32.3)"/></svg>