<svg id="Слой_1" data-name="Слой 1" xmlns="http://www.w3.org/2000/svg" xmlns:xlink="http://www.w3.org/1999/xlink" viewBox="0 0 400 200"><defs><style>.cls-1{fill:url(#Безымянный_градиент_28);}.cls-2{fill:url(#Безымянный_градиент_76);}.cls-3{fill:url(#Безымянный_градиент_76-2);}.cls-4{fill:url(#Безымянный_градиент_71);}.cls-5{fill:url(#Безымянный_градиент_71-2);}.cls-6{fill:url(#Безымянный_градиент_71-3);}.cls-7{fill:url(#Безымянный_градиент_71-4);}.cls-8{fill:url(#Безымянный_градиент_71-5);}.cls-9{fill:url(#Безымянный_градиент_71-6);}.cls-10{fill:url(#Безымянный_градиент_71-7);}.cls-11{fill:url(#Безымянный_градиент_71-8);}.cls-12{fill:url(#Безымянный_градиент_71-9);}.cls-13{fill:url(#Безымянный_градиент_71-10);}.cls-14{fill:url(#Безымянный_градиент_71-11);}.cls-15{fill:url(#Безымянный_градиент_71-12);}.cls-16{fill:url(#Безымянный_градиент_71-13);}.cls-17{fill:url(#Безымянный_градиент_71-14);}.cls-18,.cls-19,.cls-20{fill:none;stroke-miterlimit:10;stroke-width:7px;}.cls-18{stroke:url(#Безымянный_градиент_12);}.cls-19{stroke:url(#Безымянный_градиент_3);}.cls-20{stroke:url(#Безымянный_градиент_9);}</style><linearGradient id="Безымянный_градиент_28" x1="-39.7" y1="94.7" x2="130.27" y2="94.7" gradientUnits="userSpaceOnUse"><stop offset="0" stop-color="#fbc31b"/><stop offset="0.05" stop-color="#f9b71e"/><stop offset="0.21" stop-color="#f29926"/><stop offset="0.38" stop-color="#ed812c"/><stop offset="0.56" stop-color="#ea7031"/><stop offset="0.76" stop-color="#e86633"/><stop offset="1" stop-color="#e76334"/></linearGradient><linearGradient id="Безымянный_градиент_76" x1="29.98" y1="116.98" x2="86.24" y2="116.98" gradientUnits="userSpaceOnUse"><stop offset="0" stop-color="#49ad52"/><stop offset="0.14" stop-color="#44ac68"/><stop offset="0.42" stop-color="#38a8a2"/><stop offset="0.66" stop-color="#2da5d7"/></linearGradient><linearGradient id="Безымянный_градиент_76-2" x1="75.29" y1="175.33" x2="97.18" y2="175.33" xlink:href="#Безымянный_градиент_76"/><linearGradient id="Безымянный_градиент_71" x1="127.52" y1="100" x2="272.48" y2="100" gradientUnits="userSpaceOnUse"><stop offset="0.08" stop-color="#df1d4d"/><stop offset="0.23" stop-color="#e01e5d"/><stop offset="0.5" stop-color="#e02073"/><stop offset="0.76" stop-color="#e12280"/><stop offset="1" stop-color="#e12284"/></linearGradient><linearGradient id="Безымянный_градиент_71-2" x1="147.36" y1="142.1" x2="153.03" y2="142.1" xlink:href="#Безымянный_градиент_71"/><linearGradient id="Безымянный_градиент_71-3" x1="161.52" y1="142.1" x2="167.18" y2="142.1" xlink:href="#Безымянный_градиент_71"/><linearGradient id="Безымянный_градиент_71-4" x1="175.68" y1="142.1" x2="181.34" y2="142.1" xlink:href="#Безымянный_градиент_71"/><linearGradient id="Безымянный_градиент_71-5" x1="189.84" y1="142.1" x2="195.5" y2="142.1" xlink:href="#Безымянный_градиент_71"/><linearGradient id="Безымянный_градиент_71-6" x1="203.99" y1="142.1" x2="209.66" y2="142.1" xlink:href="#Безымянный_градиент_71"/><linearGradient id="Безымянный_градиент_71-7" x1="218.15" y1="142.1" x2="223.81" y2="142.1" xlink:href="#Безымянный_градиент_71"/><linearGradient id="Безымянный_градиент_71-8" x1="232.31" y1="142.1" x2="237.97" y2="142.1" xlink:href="#Безымянный_градиент_71"/><linearGradient id="Безымянный_градиент_71-9" x1="246.46" y1="142.1" x2="252.13" y2="142.1" xlink:href="#Безымянный_градиент_71"/><linearGradient id="Безымянный_градиент_71-10" x1="196.91" y1="111.06" x2="202.58" y2="111.06" xlink:href="#Безымянный_градиент_71"/><linearGradient id="Безымянный_градиент_71-11" x1="196.91" y1="95.78" x2="202.58" y2="95.78" xlink:href="#Безымянный_градиент_71"/><linearGradient id="Безымянный_градиент_71-12" x1="196.91" y1="80.5" x2="202.58" y2="80.5" xlink:href="#Безымянный_градиент_71"/><linearGradient id="Безымянный_градиент_71-13" x1="196.91" y1="65.23" x2="202.58" y2="65.23" xlink:href="#Безымянный_градиент_71"/><linearGradient id="Безымянный_градиент_71-14" x1="169.79" y1="116.98" x2="175.46" y2="116.98" xlink:href="#Безымянный_градиент_71"/><linearGradient id="Безымянный_градиент_12" x1="333.89" y1="182.17" x2="445.2" y2="182.17" gradientUnits="userSpaceOnUse"><stop offset="0" stop-color="#6262a6"/><stop offset="0.06" stop-color="#7658a1"/><stop offset="0.17" stop-color="#974798"/><stop offset="0.29" stop-color="#b23a91"/><stop offset="0.42" stop-color="#c72f8b"/><stop offset="0.56" stop-color="#d62887"/><stop offset="0.73" stop-color="#de2385"/><stop offset="1" stop-color="#e12284"/></linearGradient><linearGradient id="Безымянный_градиент_3" x1="315.5" y1="41.95" x2="374.66" y2="41.95" gradientUnits="userSpaceOnUse"><stop offset="0" stop-color="#49ad52"/><stop offset="0.2" stop-color="#4e9e62"/><stop offset="0.6" stop-color="#5b788d"/><stop offset="0.81" stop-color="#6262a6"/></linearGradient><linearGradient id="Безымянный_градиент_9" x1="-170.15" y1="51.43" x2="144.67" y2="51.43" gradientTransform="translate(-35.34 3.51) rotate(-39.17)" gradientUnits="userSpaceOnUse"><stop offset="0" stop-color="#6262a6"/><stop offset="0.16" stop-color="#6760a5"/><stop offset="0.34" stop-color="#7558a1"/><stop offset="0.54" stop-color="#8d4c9b"/><stop offset="0.75" stop-color="#ae3c92"/><stop offset="0.96" stop-color="#d82786"/><stop offset="1" stop-color="#e12284"/></linearGradient></defs><path class="cls-1" d="M-5-19.63S-13.47,71,40.31,101.69c30.75,17.55,55.56,24.46,90,107.34-199.44,0-168.19-2.27-168.19-2.27L-21.18-11.7Z"/><polygon class="cls-2" points="72.17 92.62 44.04 92.62 29.98 116.98 44.04 141.34 72.17 141.34 86.24 116.98 72.17 92.62"/><polygon class="cls-3" points="91.71 165.86 80.76 165.86 75.29 175.33 80.76 184.81 91.71 184.81 97.18 175.33 91.71 165.86"/><path class="cls-4" d="M271.59,77.2a47.86,47.86,0,0,0-4.65-31.62c-.4-.74-.83-1.5-1.3-2.26A2.76,2.76,0,0,0,263,42a2.88,2.88,0,0,0-2.36,1.82,37.56,37.56,0,0,1-14.9,18l-7.65,4.76a56.76,56.76,0,0,0-24.57-13.88,6.7,6.7,0,0,0-6.42-5.79H192.35a6.7,6.7,0,0,0-6.42,5.79,56.81,56.81,0,0,0-24.44,13.76l-7.27-4.53a37.56,37.56,0,0,1-14.91-18A2.85,2.85,0,0,0,137,42.08a2.78,2.78,0,0,0-2.61,1.36c-.46.76-.89,1.52-1.29,2.26-10.11,18.9-6,43,9.35,56.92a67.14,67.14,0,0,0-.93,11.13v12.4h-.87a6.81,6.81,0,0,0-6.52,7V151a6.81,6.81,0,0,0,6.52,7H258.88a6.8,6.8,0,0,0,6.52-7V133.19a6.8,6.8,0,0,0-6.52-7H258v-12.4a67,67,0,0,0-.88-10.84A45.67,45.67,0,0,0,271.59,77.2ZM192.35,53h14.79a.9.9,0,0,1,.86.93v72.21h-5.43a2.83,2.83,0,1,0-5.65,0h-5.43V53.94a.91.91,0,0,1,.86-.93Zm-55.74-1.46a42.85,42.85,0,0,0,14.78,15.66l5.87,3.66a64.9,64.9,0,0,0-13.34,25C133.08,84.35,130.06,66.47,136.61,51.55ZM147.14,120h12.74a3.06,3.06,0,0,0,0-6.11H147.14v-.18c0-25.51,16.09-48,38.69-54.73v67.13H147.14Zm112.6,13.15V151a.92.92,0,0,1-.86.93H140.61a.92.92,0,0,1-.86-.93V133.19a.92.92,0,0,1,.86-.93H258.88A.92.92,0,0,1,259.74,133.19Zm-46.08-7V59c22.61,6.73,38.69,29.2,38.69,54.73v12.4ZM242.35,71l6.26-3.9a42.85,42.85,0,0,0,14.78-15.66c6.67,15.16,3.48,33.26-7.73,44.75A64.79,64.79,0,0,0,242.35,71Z"/><path class="cls-5" d="M150.2,145.15a3.06,3.06,0,0,0,0-6.11h0a3.06,3.06,0,0,0,0,6.11Z"/><path class="cls-6" d="M164.35,145.15a3.06,3.06,0,0,0,0-6.11h0a3.06,3.06,0,0,0,0,6.11Z"/><path class="cls-7" d="M178.51,145.15a3.06,3.06,0,0,0,0-6.11h0a3.06,3.06,0,0,0,0,6.11Z"/><path class="cls-8" d="M192.67,145.15a3.06,3.06,0,0,0,0-6.11h0a3.06,3.06,0,0,0,0,6.11Z"/><path class="cls-9" d="M206.82,145.15a3.06,3.06,0,0,0,0-6.11h0a3.06,3.06,0,0,0,0,6.11Z"/><path class="cls-10" d="M221,145.15a3.06,3.06,0,0,0,0-6.11h0a3.06,3.06,0,0,0,0,6.11Z"/><path class="cls-11" d="M235.14,145.15a3.06,3.06,0,0,0,0-6.11h0a3.06,3.06,0,0,0,0,6.11Z"/><path class="cls-12" d="M249.3,145.15a3.06,3.06,0,0,0,0-6.11h0a3.06,3.06,0,0,0,0,6.11Z"/><path class="cls-13" d="M199.75,114.11a3.06,3.06,0,1,0-2.84-3h0A3,3,0,0,0,199.75,114.11Z"/><path class="cls-14" d="M199.75,98.84a3.07,3.07,0,1,0-2.84-3.06h0A3,3,0,0,0,199.75,98.84Z"/><path class="cls-15" d="M199.75,83.56a3.06,3.06,0,1,0-2.84-3.06h0A3,3,0,0,0,199.75,83.56Z"/><path class="cls-16" d="M199.75,68.28a3.06,3.06,0,1,0-2.84-3h0A3,3,0,0,0,199.75,68.28Z"/><path class="cls-17" d="M172.62,113.93a3.06,3.06,0,0,0,0,6.11h0a3.06,3.06,0,0,0,0-6.11Z"/><rect class="cls-18" x="337.39" y="77.45" width="104.31" height="209.44"/><rect class="cls-19" x="319" y="-62.77" width="52.16" height="209.44"/><rect class="cls-20" x="-66.21" y="-124.38" width="106.94" height="351.61" transform="translate(29.62 19.6) rotate(39.17)"/></svg>