<svg id="Слой_1" data-name="Слой 1" xmlns="http://www.w3.org/2000/svg" xmlns:xlink="http://www.w3.org/1999/xlink" viewBox="0 0 400 200"><defs><style>.cls-1{fill:none;stroke-miterlimit:10;stroke-width:7px;stroke:url(#Безымянный_градиент_101);}.cls-2{fill:url(#Безымянный_градиент_48);}.cls-3{fill:url(#Безымянный_градиент_48-2);}.cls-4{fill:url(#Безымянный_градиент_48-3);}.cls-5{fill:url(#Безымянный_градиент_48-4);}.cls-6{fill:url(#Безымянный_градиент_17);}.cls-7{fill:url(#Безымянный_градиент_27);}.cls-8{fill:url(#Безымянный_градиент_29);}</style><linearGradient id="Безымянный_градиент_101" x1="-121.23" y1="44.52" x2="93.72" y2="44.52" gradientUnits="userSpaceOnUse"><stop offset="0.08" stop-color="#df1d4d"/><stop offset="0.41" stop-color="#e01e5d"/><stop offset="1" stop-color="#e12284"/></linearGradient><linearGradient id="Безымянный_градиент_48" x1="-29.26" y1="182.36" x2="80.72" y2="182.36" gradientUnits="userSpaceOnUse"><stop offset="0" stop-color="#49ad52"/><stop offset="0.2" stop-color="#4e9e62"/><stop offset="0.6" stop-color="#5b788d"/><stop offset="0.81" stop-color="#6262a6"/></linearGradient><linearGradient id="Безымянный_градиент_48-2" x1="22.19" y1="79.34" x2="57.49" y2="79.34" xlink:href="#Безымянный_градиент_48"/><linearGradient id="Безымянный_градиент_48-3" x1="55.14" y1="39.87" x2="72.79" y2="39.87" xlink:href="#Безымянный_градиент_48"/><linearGradient id="Безымянный_градиент_48-4" x1="118.39" y1="100" x2="281.61" y2="100" xlink:href="#Безымянный_градиент_48"/><linearGradient id="Безымянный_градиент_17" x1="335.06" y1="4.7" x2="436.07" y2="92.44" gradientUnits="userSpaceOnUse"><stop offset="0" stop-color="#6262a6"/><stop offset="0.34" stop-color="#984797"/><stop offset="0.63" stop-color="#c0338d"/><stop offset="0.86" stop-color="#d82686"/><stop offset="1" stop-color="#e12284"/></linearGradient><linearGradient id="Безымянный_градиент_27" x1="250.37" y1="176.01" x2="351.38" y2="263.75" gradientTransform="matrix(0.2, 1.1, -1.13, 0.21, 552.37, -194.93)" gradientUnits="userSpaceOnUse"><stop offset="0" stop-color="#fbc31b"/><stop offset="0.02" stop-color="#fac01c"/><stop offset="0.32" stop-color="#f29826"/><stop offset="0.59" stop-color="#ec7b2e"/><stop offset="0.83" stop-color="#e86932"/><stop offset="1" stop-color="#e76334"/></linearGradient><linearGradient id="Безымянный_градиент_29" x1="318.93" y1="135.31" x2="366.43" y2="135.31" gradientUnits="userSpaceOnUse"><stop offset="0" stop-color="#e12284"/><stop offset="0.14" stop-color="#d82686"/><stop offset="0.37" stop-color="#c0338d"/><stop offset="0.66" stop-color="#984797"/><stop offset="1" stop-color="#6262a6"/></linearGradient></defs><circle class="cls-1" cx="-13.76" cy="44.52" r="103.98"/><circle class="cls-2" cx="25.73" cy="182.36" r="54.99"/><circle class="cls-3" cx="39.84" cy="79.34" r="17.65"/><circle class="cls-4" cx="63.97" cy="39.87" r="8.82"/><path class="cls-5" d="M278.9,34.47H121.1a2.7,2.7,0,0,0-2.71,2.7V162.83a2.7,2.7,0,0,0,2.71,2.7H278.9a2.7,2.7,0,0,0,2.71-2.7V37.17A2.71,2.71,0,0,0,278.9,34.47Zm-6.52,5.4-6.68,6.68H134.3l-6.68-6.68Zm-8.26,61.42h-19.7V93.47a18,18,0,0,0-4-11.33,12.13,12.13,0,0,1-2.09-3.71,12.35,12.35,0,0,1-.73-4.21V59a2.7,2.7,0,0,0-2.7-2.7H227.1a2.7,2.7,0,0,0-2.7,2.7V74.22a12.55,12.55,0,0,1-2.82,7.92,18,18,0,0,0-4,10.64,46.33,46.33,0,0,0-15-2.41c-12.08,0-22.6,4.36-28.22,10.92H135.88V52H264.12Zm-46.67,11.65a11.83,11.83,0,0,0-11.21,15.67c-1.21.1-2.43.16-3.65.16a43.28,43.28,0,0,1-6.28-.46,10.34,10.34,0,0,0-2.48-12.26l.35-.35a2.7,2.7,0,1,0-3.82-3.82l-1.71,1.71a10.17,10.17,0,0,0-1.67-.14,10.38,10.38,0,0,0-6.42,2.24,13,13,0,0,0-4.88-5.61c1.81-8,13.35-14.31,26.91-14.31,7.46,0,14.44,1.85,19.64,5.2,4.84,3.11,7.5,7.12,7.5,11.3a11,11,0,0,1-2.16,6.37A11.84,11.84,0,0,0,217.45,112.94Zm6.44,11.84a6.45,6.45,0,1,1-6.44-6.44A6.45,6.45,0,0,1,223.89,124.78Zm-45.72.62a5,5,0,1,1-5,5A5,5,0,0,1,178.17,125.4Zm-10.23,3.33a7.67,7.67,0,1,1,8.33-8.55A10.37,10.37,0,0,0,167.94,128.73Zm14.89-7.62a5,5,0,1,1,5.54,7.46A10.39,10.39,0,0,0,182.83,121.11Zm46.46,3.76c3.83-3.67,5.85-8,5.85-12.6,0-6.08-3.55-11.71-10-15.85-.71-.45-1.45-.88-2.21-1.29V93.47a12.06,12.06,0,0,1,.24-2.4h15.59a12.84,12.84,0,0,1,.23,2.4v31.28a1,1,0,0,1-.95,1h-8.81A7.56,7.56,0,0,0,229.29,124.87Zm3-48.68a18.28,18.28,0,0,0,.92,4,18,18,0,0,0,3,5.32l.08.1H225.69l.08-.1a18,18,0,0,0,3.92-9.37Zm-2.47-5.41V61.69h2.36v9.09Zm-58.72,35.91c-.18.49-.36,1-.49,1.47a13.84,13.84,0,0,0-1.94-.14A13.09,13.09,0,0,0,156,118l-2.38-.36a2.71,2.71,0,0,0-.81,5.35l3,.45a13.1,13.1,0,0,0,12.74,10.72,10.35,10.35,0,0,0,19.27,0,10.36,10.36,0,0,0,4-1.18,47.49,47.49,0,0,0,10.75,1.21,49.4,49.4,0,0,0,7-.5,11.84,11.84,0,0,0,17.84-2.56h10.6a6.37,6.37,0,0,0,6.36-6.36V106.69h19.7v41.36H135.88V106.69Zm-47.29-63,6.68,6.68v99.26l-6.68,6.68Zm3.82,116.44,6.68-6.68H265.7l6.68,6.68Zm148.58-3.82-6.68-6.68V50.37l6.68-6.68Z"/><polygon class="cls-6" points="281.61 -27.21 402.93 159.69 415.4 -21.54 281.61 -27.21"/><polygon class="cls-7" points="429.51 51.95 242.92 224.51 450.27 200.49 429.51 51.95"/><circle class="cls-8" cx="342.68" cy="135.31" r="23.75"/></svg>