<svg id="Слой_1" data-name="Слой 1" xmlns="http://www.w3.org/2000/svg" xmlns:xlink="http://www.w3.org/1999/xlink" viewBox="0 0 400 200"><defs><style>.cls-1{fill:url(#Безымянный_градиент_3);}.cls-2{fill:url(#Безымянный_градиент_95);}.cls-3,.cls-4{fill:none;stroke-miterlimit:10;stroke-width:7px;}.cls-3{stroke:url(#Безымянный_градиент_2);}.cls-4{stroke:url(#Безымянный_градиент_101);}.cls-5{fill:url(#Безымянный_градиент_101-2);}.cls-6{fill:url(#Безымянный_градиент_101-3);}.cls-7{fill:url(#Безымянный_градиент_22);}</style><linearGradient id="Безымянный_градиент_3" x1="255.31" y1="128.43" x2="465.35" y2="128.43" gradientUnits="userSpaceOnUse"><stop offset="0" stop-color="#49ad52"/><stop offset="0.2" stop-color="#4e9e62"/><stop offset="0.6" stop-color="#5b788d"/><stop offset="0.81" stop-color="#6262a6"/></linearGradient><linearGradient id="Безымянный_градиент_95" x1="131.81" y1="100" x2="268.19" y2="100" gradientUnits="userSpaceOnUse"><stop offset="0" stop-color="#e12284"/><stop offset="0.14" stop-color="#d82686"/><stop offset="0.37" stop-color="#c0338d"/><stop offset="0.66" stop-color="#984797"/><stop offset="1" stop-color="#6262a6"/></linearGradient><linearGradient id="Безымянный_градиент_2" x1="-45.69" y1="93.76" x2="101.2" y2="93.76" gradientUnits="userSpaceOnUse"><stop offset="0" stop-color="#fbc31b"/><stop offset="0.37" stop-color="#f39e25"/><stop offset="1" stop-color="#e76334"/></linearGradient><linearGradient id="Безымянный_градиент_101" x1="288.46" y1="154.35" x2="451.51" y2="154.35" gradientUnits="userSpaceOnUse"><stop offset="0.08" stop-color="#df1d4d"/><stop offset="0.41" stop-color="#e01e5d"/><stop offset="1" stop-color="#e12284"/></linearGradient><linearGradient id="Безымянный_градиент_101-2" x1="284.1" y1="56.62" x2="326.22" y2="56.62" xlink:href="#Безымянный_градиент_101"/><linearGradient id="Безымянный_градиент_101-3" x1="331.15" y1="30.87" x2="349.03" y2="30.87" xlink:href="#Безымянный_градиент_101"/><linearGradient id="Безымянный_градиент_22" x1="373.04" y1="-217.14" x2="554.85" y2="-217.14" gradientTransform="matrix(0.1, -0.34, 0.91, 0.26, 207.08, 347.22)" gradientUnits="userSpaceOnUse"><stop offset="0" stop-color="#6262a6"/><stop offset="0.34" stop-color="#984797"/><stop offset="0.63" stop-color="#c0338d"/><stop offset="0.86" stop-color="#d82686"/><stop offset="1" stop-color="#e12284"/></linearGradient></defs><polygon class="cls-1" points="255.31 -17.61 465.35 283.63 439.84 -26.77 255.31 -17.61"/><path class="cls-2" d="M264.63,132.49l-15.41-15.4-5.73,5.74-8.76-8.76A39.82,39.82,0,0,0,232,60.81l-.19-.19V30.39h-100V169.61h100V122.68l5.91,5.91L232,134.33l15.4,15.4a12.19,12.19,0,0,0,17.25-17.24ZM140,131l14.08-14.09,8.09,8.08L173,114.11c.85,1,1.75,2,2.71,3a39.84,39.84,0,0,0,48,6.4v16.33H140ZM235.5,89a31.65,31.65,0,0,1-54,22.37,29.24,29.24,0,0,1-2.67-3l8-8,6.65,6.64,18.06-18.05V99h8.16V74.82h-24.2V83h10.4L193.46,95.4l-6.65-6.65L174.58,101A31.65,31.65,0,1,1,235.5,89ZM223.65,38.55V54.42a39.81,39.81,0,0,0-55.22,52.71l-6.29,6.3-8.09-8.09L140,119.43V38.55ZM140,161.45V148h83.68v13.46ZM258.86,144a4,4,0,0,1-5.71,0l-9.63-9.63,5.7-5.71,9.64,9.64A4,4,0,0,1,258.86,144Z"/><path class="cls-3" d="M78.13-11s44,55.41,0,72.62S32,96.3,48.24,130.59s8.39,77.32,8.39,77.32l-84.42-2.69L-41.94-20.19Z"/><polygon class="cls-4" points="408.73 87.25 331.25 87.25 292.51 154.35 331.25 221.45 408.73 221.45 447.47 154.35 408.73 87.25"/><polygon class="cls-5" points="315.69 38.38 294.63 38.38 284.1 56.62 294.63 74.86 315.69 74.86 326.22 56.62 315.69 38.38"/><polygon class="cls-6" points="344.56 23.12 335.62 23.12 331.15 30.86 335.62 38.61 344.56 38.61 349.03 30.86 344.56 23.12"/><polygon class="cls-7" points="21.43 151.95 85.39 105.94 73.9 170.34 21.43 151.95"/></svg>