<svg id="Слой_1" data-name="Слой 1" xmlns="http://www.w3.org/2000/svg" xmlns:xlink="http://www.w3.org/1999/xlink" viewBox="0 0 400 200"><defs><style>.cls-1,.cls-2{fill:none;stroke-miterlimit:10;stroke-width:7px;}.cls-1{stroke:url(#Безымянный_градиент_101);}.cls-2{stroke:url(#Безымянный_градиент_101-2);}.cls-3{fill:url(#Безымянный_градиент_101-3);}.cls-4{fill:url(#Безымянный_градиент_28);}.cls-5{fill:url(#Безымянный_градиент_37);}.cls-6{fill:url(#Безымянный_градиент_35);}.cls-7{fill:url(#Безымянный_градиент_38);}</style><linearGradient id="Безымянный_градиент_101" x1="296.2" y1="70.17" x2="356.8" y2="70.17" gradientUnits="userSpaceOnUse"><stop offset="0.08" stop-color="#df1d4d"/><stop offset="0.41" stop-color="#e01e5d"/><stop offset="1" stop-color="#e12284"/></linearGradient><linearGradient id="Безымянный_градиент_101-2" x1="357.02" y1="38.16" x2="397.46" y2="38.16" gradientTransform="matrix(0.01, -0.92, 0.81, -0.05, 324.66, 379.77)" xlink:href="#Безымянный_градиент_101"/><linearGradient id="Безымянный_градиент_101-3" x1="278.22" y1="172.57" x2="424.03" y2="172.57" gradientTransform="translate(198.3 -190.61) rotate(33.81)" xlink:href="#Безымянный_градиент_101"/><linearGradient id="Безымянный_градиент_28" x1="127.41" y1="100" x2="272.59" y2="100" gradientUnits="userSpaceOnUse"><stop offset="0" stop-color="#fbc31b"/><stop offset="0.05" stop-color="#f9b71e"/><stop offset="0.21" stop-color="#f29926"/><stop offset="0.38" stop-color="#ed812c"/><stop offset="0.56" stop-color="#ea7031"/><stop offset="0.76" stop-color="#e86633"/><stop offset="1" stop-color="#e76334"/></linearGradient><linearGradient id="Безымянный_градиент_37" x1="122.91" y1="-33.78" x2="120.22" y2="185.24" gradientTransform="translate(-84.49 20.7) scale(0.79 1)" gradientUnits="userSpaceOnUse"><stop offset="0" stop-color="#49ad52"/><stop offset="0.19" stop-color="#4ba858"/><stop offset="0.43" stop-color="#509869"/><stop offset="0.72" stop-color="#588085"/><stop offset="0.98" stop-color="#6262a6"/></linearGradient><linearGradient id="Безымянный_градиент_35" x1="24.3" y1="-21.35" x2="21.62" y2="197.09" gradientTransform="translate(10.89 -26.6) scale(0.64 1)" gradientUnits="userSpaceOnUse"><stop offset="0.3" stop-color="#fbc31b"/><stop offset="0.4" stop-color="#fabe1c"/><stop offset="0.52" stop-color="#f7af20"/><stop offset="0.64" stop-color="#f29727"/><stop offset="0.78" stop-color="#eb752f"/><stop offset="0.84" stop-color="#e76334"/></linearGradient><linearGradient id="Безымянный_градиент_38" x1="-705.21" y1="-1239.19" x2="-676.96" y2="-1214.65" gradientTransform="matrix(-0.04, -1.17, 0.78, -0.03, 1001.45, -697.35)" gradientUnits="userSpaceOnUse"><stop offset="0" stop-color="#e76334"/><stop offset="0.24" stop-color="#ee852b"/><stop offset="0.58" stop-color="#f7b21f"/><stop offset="0.76" stop-color="#fbc31b"/></linearGradient></defs><polygon class="cls-1" points="350.23 101.19 316.71 43.48 300.78 95.1 350.23 101.19"/><polygon class="cls-2" points="375.7 17.36 347.9 37.23 372.43 44.5 375.7 17.36"/><polygon class="cls-3" points="407.23 259.43 419.8 63.02 296.08 163.37 407.23 259.43"/><path class="cls-4" d="M272.4,115.32,245.88,47.74a13.26,13.26,0,0,0-12.41-8.46H231.8l-8.17-10.8a2.85,2.85,0,0,0-2.27-1.12h-44.1a2.84,2.84,0,0,0-2.38,1.29L168,39.28h-1.42a13.26,13.26,0,0,0-12.41,8.46L127.6,115.32a2.84,2.84,0,0,0,1.53,3.65l23.34,9.91a2.84,2.84,0,0,0,3.76-1.59l10.51-27.17,1.73,12.42-14.12,56.58a2.84,2.84,0,0,0,2.75,3.52h85.73a2.84,2.84,0,0,0,2.75-3.52l-14.13-56.58,1.77-12.71,10.55,27.46a2.86,2.86,0,0,0,2.65,1.82,2.87,2.87,0,0,0,1.11-.23L270.87,119A2.84,2.84,0,0,0,272.4,115.32ZM216.43,33l-3.65,6.21H197.83a2.84,2.84,0,1,0,0,5.67h11.62l-8.62,14.67L182.62,33Zm-39.12,2.29L197.66,65l-4,6.81L172.94,42ZM167,81.46a2.84,2.84,0,0,0-2.42,3.21l.54,3.9L152,122.51l-18.1-7.68,2.76-7,10.83,4.86a2.83,2.83,0,1,0,2.32-5.17l-11.07-5,20.67-52.7A7.62,7.62,0,0,1,166.53,45h1.53l22.43,32.23-17.15,29.19L170.2,83.88A2.85,2.85,0,0,0,167,81.46Zm43.39,34.08h16l1.58,6.31H210.39a6.54,6.54,0,0,0,.06-.89v-4.54A6.4,6.4,0,0,0,210.39,115.54ZM204.78,121a.89.89,0,0,1-.89.89h-7.45a.89.89,0,0,1-.89-.89v-4.54a.88.88,0,0,1,.89-.88h7.45a.88.88,0,0,1,.89.88Zm3.38,6.56L218.44,145l-4,2.76-10.54-18h0l-1.3-2.22h5.56Zm-12.14,0,2.18,3.72-7.51,13-5.46-3.15,7.84-13.58Zm-6.08-5.67H172l1.58-6.31h16.36a6.4,6.4,0,0,0-.06.88V121A6.54,6.54,0,0,0,189.94,121.85ZM239.19,167H160.74l1.41-5.68h16.67a2.84,2.84,0,1,0,0-5.67H163.57l7-28.1h15.94l-7.62,13.2a2.84,2.84,0,0,0,1,3.88l10.37,6a2.8,2.8,0,0,0,1.42.38,2.84,2.84,0,0,0,2.46-1.42l7.31-12.68,9.6,16.35a2.87,2.87,0,0,0,1.83,1.34,3.18,3.18,0,0,0,.62.06,2.84,2.84,0,0,0,1.61-.5l8.68-6a2.83,2.83,0,0,0,.83-3.77l-9.92-16.84h14.59ZM248,122.51l-13.18-34.3.84-6.06a2.84,2.84,0,1,0-5.62-.77l-4,28.48h-32L208,86.17A2.84,2.84,0,0,0,203,83.31l-15.49,26.54-9.64,0,18.28-31.12a.94.94,0,0,0,.12-.18l7-11.93,18.36-31.26,5.31,7L214.2,64.21a2.84,2.84,0,1,0,4.9,2.86L232,45h1.45a7.62,7.62,0,0,1,7.13,4.86l20.67,52.7-11.07,5a2.83,2.83,0,1,0,2.32,5.17l10.83-4.86,2.76,7Z"/><rect class="cls-5" x="-48.3" y="-61.73" width="120.31" height="312.94" transform="translate(-21.33 5.21) rotate(-13.21)"/><rect class="cls-6" x="-1.68" y="-96.89" width="54.64" height="312.94" transform="translate(36.02 -4.45) rotate(32.49)"/><polygon class="cls-7" points="77.78 178.16 99.22 141.03 56.06 138.16 77.78 178.16"/></svg>