<svg id="Слой_1" data-name="Слой 1" xmlns="http://www.w3.org/2000/svg" xmlns:xlink="http://www.w3.org/1999/xlink" viewBox="0 0 400 200"><defs><style>.cls-1{fill:none;stroke-miterlimit:10;stroke-width:7px;stroke:url(#Безымянный_градиент_3);}.cls-2{fill:url(#Безымянный_градиент_28);}.cls-3{fill:url(#Безымянный_градиент_76);}.cls-4{fill:url(#Безымянный_градиент_95);}.cls-5{fill:url(#Безымянный_градиент_3-2);}.cls-6{fill:url(#Безымянный_градиент_3-3);}.cls-7{fill:url(#Безымянный_градиент_24);}.cls-8{fill:url(#Безымянный_градиент_24-2);}.cls-9{fill:url(#Безымянный_градиент_24-3);}</style><linearGradient id="Безымянный_градиент_3" x1="46.84" y1="-20.68" x2="179.21" y2="259.06" gradientTransform="matrix(0.81, 0.09, 0.09, 0.97, -15.54, -8.37)" gradientUnits="userSpaceOnUse"><stop offset="0" stop-color="#49ad52"/><stop offset="0.2" stop-color="#4e9e62"/><stop offset="0.6" stop-color="#5b788d"/><stop offset="0.81" stop-color="#6262a6"/></linearGradient><linearGradient id="Безымянный_градиент_28" x1="-63.94" y1="146.36" x2="160.06" y2="146.36" gradientTransform="matrix(0.24, -0.47, 0.89, 0.46, -129.76, 109.9)" gradientUnits="userSpaceOnUse"><stop offset="0" stop-color="#fbc31b"/><stop offset="0.05" stop-color="#f9b71e"/><stop offset="0.21" stop-color="#f29926"/><stop offset="0.38" stop-color="#ed812c"/><stop offset="0.56" stop-color="#ea7031"/><stop offset="0.76" stop-color="#e86633"/><stop offset="1" stop-color="#e76334"/></linearGradient><linearGradient id="Безымянный_градиент_76" x1="276.28" y1="84" x2="428" y2="84" gradientUnits="userSpaceOnUse"><stop offset="0" stop-color="#49ad52"/><stop offset="0.14" stop-color="#44ac68"/><stop offset="0.42" stop-color="#38a8a2"/><stop offset="0.66" stop-color="#2da5d7"/></linearGradient><linearGradient id="Безымянный_градиент_95" x1="317" y1="100.5" x2="360" y2="100.5" gradientUnits="userSpaceOnUse"><stop offset="0" stop-color="#e12284"/><stop offset="0.14" stop-color="#d82686"/><stop offset="0.37" stop-color="#c0338d"/><stop offset="0.66" stop-color="#984797"/><stop offset="1" stop-color="#6262a6"/></linearGradient><linearGradient id="Безымянный_градиент_3-2" x1="64.29" y1="66.98" x2="80.76" y2="66.98" gradientTransform="matrix(1, 0, 0, 1, 0, 0)" xlink:href="#Безымянный_градиент_3"/><linearGradient id="Безымянный_градиент_3-3" x1="24.08" y1="39.75" x2="62.08" y2="39.75" gradientTransform="matrix(1, 0, 0, 1, 0, 0)" xlink:href="#Безымянный_градиент_3"/><linearGradient id="Безымянный_градиент_24" x1="125.07" y1="100" x2="274.93" y2="100" gradientUnits="userSpaceOnUse"><stop offset="0" stop-color="#e12284"/><stop offset="0.33" stop-color="#a14295"/><stop offset="0.6" stop-color="#7359a1"/><stop offset="0.73" stop-color="#6262a6"/></linearGradient><linearGradient id="Безымянный_градиент_24-2" x1="243.71" y1="96.83" x2="249.95" y2="96.83" xlink:href="#Безымянный_градиент_24"/><linearGradient id="Безымянный_градиент_24-3" x1="256.2" y1="96.83" x2="262.44" y2="96.83" xlink:href="#Безымянный_градиент_24"/></defs><polygon class="cls-1" points="94.35 -37.99 98.12 272.42 -44.85 11.24 94.35 -37.99"/><polygon class="cls-2" points="-44.93 185.3 63.75 114.82 16.81 224.1 -44.93 185.3"/><path class="cls-3" d="M407.21-35S413.94,71.7,357,105s-80.67,98-80.67,98H428V-13.92Z"/><circle class="cls-4" cx="338.5" cy="100.5" r="21.5"/><circle class="cls-5" cx="72.53" cy="66.98" r="8.23"/><circle class="cls-6" cx="43.08" cy="39.75" r="19"/><path class="cls-7" d="M274.93,156.15V62.49A12.49,12.49,0,0,0,262.44,50h-7.61l4.91-4.91h0a9.23,9.23,0,0,0,0-13.05l-4.32-4.31a9.43,9.43,0,0,0-13,0L220.1,50H146.92a9.37,9.37,0,0,0-9.36,9.37V82.16L126,93.73a3.13,3.13,0,0,0,0,4.42l11.57,11.57v30.82a9.37,9.37,0,0,0,9.36,9.37h30.83L201.81,174a3.13,3.13,0,0,0,4.41,0l17.84-17.84a3.11,3.11,0,0,0,0-4.41l-1.81-1.81H250v15.61a3.12,3.12,0,0,0,3.12,3.12h9.37a12.49,12.49,0,0,0,12.49-12.49ZM198.48,83.2l5.8,5.79-8.7,2.91Zm3-5.79L236,43l8.53,8.54L210.06,85.94Zm45.27-45.27a3.07,3.07,0,0,1,4.22,0l4.32,4.32h0a3,3,0,0,1,0,4.21L248.9,47.1l-8.53-8.53ZM146.92,143.66a3.12,3.12,0,0,1-3.12-3.12V116l27.7,27.7ZM204,167.35l-71.4-71.41L146,82.52,154.55,91l-6.72,6.72,4.42,4.41L159,95.45l8.08,8.07-6.71,6.72,4.41,4.41,6.72-6.71,8.07,8.07-6.71,6.71,4.41,4.42,6.71-6.71L192,128.5l-6.71,6.71,4.41,4.42,6.72-6.72,8.08,8.08-6.72,6.72,4.42,4.41,6.71-6.71,8.52,8.51Zm12-23.69L148.24,75.89a3.13,3.13,0,0,0-4.42,0l0,0V59.37a3.12,3.12,0,0,1,3.12-3.12h66.94l-19,19a3.19,3.19,0,0,0-.74,1.23h0l-6.48,19.43a3,3,0,0,0-.16,1,3.11,3.11,0,0,0,3.12,3.12h46.83V93.71H209.89l1.14-.38v0a3.09,3.09,0,0,0,1.24-.74l36.32-36.32h13.86a6.24,6.24,0,0,1,6.24,6.24v82.86a12.32,12.32,0,0,0-6.24-1.69Zm46.43,18.74H256.2V149.91h6.24a6.25,6.25,0,0,1,0,12.49Z"/><rect class="cls-8" x="243.71" y="93.71" width="6.24" height="6.24"/><rect class="cls-9" x="256.2" y="93.71" width="6.24" height="6.24"/></svg>