<svg id="Слой_1" data-name="Слой 1" xmlns="http://www.w3.org/2000/svg" xmlns:xlink="http://www.w3.org/1999/xlink" viewBox="0 0 400 200"><defs><style>.cls-1{fill:url(#Безымянный_градиент_24);}.cls-2{fill:url(#Безымянный_градиент_24-2);}.cls-3{fill:url(#Безымянный_градиент_24-3);}.cls-4{fill:url(#Безымянный_градиент_24-4);}.cls-5{fill:url(#Безымянный_градиент_24-5);}.cls-6{fill:url(#Безымянный_градиент_24-6);}.cls-7{fill:url(#Безымянный_градиент_76);}.cls-8{fill:none;stroke-miterlimit:10;stroke-width:7px;stroke:url(#Безымянный_градиент_48);}.cls-9{fill:url(#Безымянный_градиент_16);}.cls-10{fill:url(#Безымянный_градиент_16-2);}</style><linearGradient id="Безымянный_градиент_24" x1="194.98" y1="110.02" x2="205.09" y2="110.02" gradientUnits="userSpaceOnUse"><stop offset="0" stop-color="#e12284"/><stop offset="0.33" stop-color="#a14295"/><stop offset="0.6" stop-color="#7359a1"/><stop offset="0.73" stop-color="#6262a6"/></linearGradient><linearGradient id="Безымянный_градиент_24-2" x1="186.08" y1="92.41" x2="193.48" y2="92.41" xlink:href="#Безымянный_градиент_24"/><linearGradient id="Безымянный_градиент_24-3" x1="206.59" y1="92.41" x2="213.98" y2="92.41" xlink:href="#Безымянный_градиент_24"/><linearGradient id="Безымянный_градиент_24-4" x1="225.39" y1="86.94" x2="262.88" y2="86.94" xlink:href="#Безымянный_градиент_24"/><linearGradient id="Безымянный_градиент_24-5" x1="137.91" y1="86.94" x2="173.6" y2="86.94" xlink:href="#Безымянный_градиент_24"/><linearGradient id="Безымянный_градиент_24-6" x1="112.78" y1="93.68" x2="287.29" y2="93.68" xlink:href="#Безымянный_градиент_24"/><linearGradient id="Безымянный_градиент_76" x1="-10.61" y1="130.38" x2="62.52" y2="130.38" gradientUnits="userSpaceOnUse"><stop offset="0" stop-color="#49ad52"/><stop offset="0.14" stop-color="#44ac68"/><stop offset="0.42" stop-color="#38a8a2"/><stop offset="0.66" stop-color="#2da5d7"/></linearGradient><linearGradient id="Безымянный_градиент_48" x1="260.92" y1="99.42" x2="449.08" y2="236.91" gradientUnits="userSpaceOnUse"><stop offset="0" stop-color="#49ad52"/><stop offset="0.2" stop-color="#4e9e62"/><stop offset="0.6" stop-color="#5b788d"/><stop offset="0.81" stop-color="#6262a6"/></linearGradient><linearGradient id="Безымянный_градиент_16" x1="241.25" y1="20.47" x2="303.74" y2="20.47" gradientTransform="translate(-261.85 -9.23) scale(2.28 0.91)" gradientUnits="userSpaceOnUse"><stop offset="0" stop-color="#e12284"/><stop offset="0.05" stop-color="#d52887"/><stop offset="0.29" stop-color="#a44194"/><stop offset="0.5" stop-color="#80539e"/><stop offset="0.68" stop-color="#6a5ea4"/><stop offset="0.79" stop-color="#6262a6"/></linearGradient><linearGradient id="Безымянный_градиент_16-2" x1="298.6" y1="123.76" x2="323.48" y2="123.76" gradientTransform="matrix(1, 0, 0, 1, 0, 0)" xlink:href="#Безымянный_градиент_16"/></defs><path class="cls-1" d="M197.54,107.46a2.56,2.56,0,1,0,0,5.11h5a2.56,2.56,0,1,0,0-5.11Z"/><path class="cls-2" d="M188.64,89.85a2.56,2.56,0,1,0,0,5.11h2.28a2.56,2.56,0,1,0,0-5.11Z"/><path class="cls-3" d="M209.15,89.85a2.56,2.56,0,1,0,0,5.11h2.28a2.56,2.56,0,0,0,0-5.11Z"/><path class="cls-4" d="M225.39,86.94a8,8,0,0,0,11.47,7.27,8,8,0,1,0,14.55,0,8,8,0,1,0,0-14.55,8,8,0,1,0-14.55,0,8,8,0,0,0-11.47,7.28Zm18.74,13.63a2.93,2.93,0,1,1,2.93-2.93,2.94,2.94,0,0,1-2.93,2.93Zm-3.42-10.21a8,8,0,0,0,0-6.85,8,8,0,0,0,6.85,0,8,8,0,0,0,0,6.85,8,8,0,0,0-6.85,0ZM254.83,84a2.93,2.93,0,1,1-2.93,2.93A2.93,2.93,0,0,1,254.83,84Zm-10.7-10.7a2.93,2.93,0,1,1-2.93,2.93A2.93,2.93,0,0,1,244.13,73.31Zm-7.77,13.63A2.93,2.93,0,1,1,233.43,84a2.93,2.93,0,0,1,2.93,2.93Z"/><path class="cls-5" d="M145.32,94.34h3v3a7.41,7.41,0,1,0,14.81,0v-3h3a7.41,7.41,0,1,0,0-14.81h-3v-3a7.41,7.41,0,1,0-14.81,0v3h-3a7.41,7.41,0,1,0,0,14.81Zm0-9.7h3.18a5,5,0,0,0,5-5V76.5a2.3,2.3,0,1,1,4.59,0v3.18a5,5,0,0,0,5,5h3.18a2.3,2.3,0,1,1,0,4.59H163a5,5,0,0,0-5,5v3.17a2.3,2.3,0,1,1-4.59,0V94.2a5,5,0,0,0-5-5h-3.18a2.3,2.3,0,1,1,0-4.59Z"/><path class="cls-6" d="M281.58,120.84a2.56,2.56,0,1,0-4.59,2.25l3.18,6.51A19.76,19.76,0,1,1,244.68,147l-8.81-18a13.92,13.92,0,1,0-26.41-8.78H190.61A13.92,13.92,0,1,0,164.2,129l-8.81,18A19.76,19.76,0,0,1,119.9,129.6l14.27-29.15A25.46,25.46,0,0,0,179,76.61a44.49,44.49,0,0,0,11,1.4H210a44.43,44.43,0,0,0,11-1.4,25.46,25.46,0,0,0,44.86,23.84l5.84,11.92a2.56,2.56,0,1,0,4.59-2.25l-7.68-15.68A25.45,25.45,0,0,0,225.59,69.7,40.3,40.3,0,0,1,210,72.89h-1V70.18a6.06,6.06,0,0,0-6.06-6.05h-.11V26.77a2.56,2.56,0,1,0-5.11,0V64.13h-.53a6.06,6.06,0,0,0-6.06,6.05v2.71h-1a40.3,40.3,0,0,1-15.59-3.19,25.46,25.46,0,0,0-43.06,24.74l-16.11,32.91A24.87,24.87,0,1,0,160,149.22L167.43,134a13.88,13.88,0,0,0,19,.64h7.62a2.56,2.56,0,0,0,0-5.12h-3.94a13.76,13.76,0,0,0,1-4.23h17.77a13.93,13.93,0,0,0,1,4.23H206a2.56,2.56,0,0,0,0,5.12h7.62a13.89,13.89,0,0,0,19-.64l7.44,15.21a24.87,24.87,0,0,0,44.67-21.87ZM244.31,66.58A20.36,20.36,0,1,1,224,86.94a20.38,20.38,0,0,1,20.35-20.36Zm-48.1,3.6a1,1,0,0,1,.95-.94h5.75a1,1,0,0,1,1,.94v2.71h-7.65V70.18Zm-40.45-3.6A20.36,20.36,0,1,1,135.4,86.94a20.38,20.38,0,0,1,20.36-20.36Zm12.71,57.61a8.81,8.81,0,0,1,17.6-.57v0a8.81,8.81,0,1,1-17.6.54Zm54.32,8.8a8.81,8.81,0,0,1-8.79-9.34v0a8.8,8.8,0,1,1,8.78,9.37Z"/><rect class="cls-7" x="-10.61" y="30.71" width="73.13" height="199.33"/><path class="cls-8" d="M368.22,15.61s-38.37-24.73-42.09,5.55,76.29,80.29,11.33,112.1,3.72,68.8-38.28,84.3-58.47,62-58.47,62l131.65,37.64,166.93-210Z"/><rect class="cls-9" x="287.72" y="-50.43" width="142.35" height="119.46" transform="translate(29.29 151.61) rotate(-24.84)"/><circle class="cls-10" cx="311.04" cy="123.76" r="12.44"/></svg>