<svg id="Слой_1" data-name="Слой 1" xmlns="http://www.w3.org/2000/svg" xmlns:xlink="http://www.w3.org/1999/xlink" viewBox="0 0 400 200"><defs><style>.cls-1{fill:url(#Безымянный_градиент_22);}.cls-2,.cls-6{fill:none;stroke-miterlimit:10;stroke-width:7px;}.cls-2{stroke:url(#Безымянный_градиент_76);}.cls-3{fill:url(#Безымянный_градиент_54);}.cls-4{fill:url(#Безымянный_градиент_54-2);}.cls-5{fill:url(#Безымянный_градиент_105);}.cls-6{stroke:url(#Безымянный_градиент_3);}</style><linearGradient id="Безымянный_градиент_22" x1="-66.07" y1="43.47" x2="96.58" y2="190.38" gradientUnits="userSpaceOnUse"><stop offset="0" stop-color="#6262a6"/><stop offset="0.34" stop-color="#984797"/><stop offset="0.63" stop-color="#c0338d"/><stop offset="0.86" stop-color="#d82686"/><stop offset="1" stop-color="#e12284"/></linearGradient><linearGradient id="Безымянный_градиент_76" x1="61.57" y1="360.3" x2="84.32" y2="2.85" gradientUnits="userSpaceOnUse"><stop offset="0" stop-color="#49ad52"/><stop offset="0.14" stop-color="#44ac68"/><stop offset="0.42" stop-color="#38a8a2"/><stop offset="0.66" stop-color="#2da5d7"/></linearGradient><linearGradient id="Безымянный_градиент_54" x1="20.34" y1="124.94" x2="107.66" y2="124.94" gradientUnits="userSpaceOnUse"><stop offset="0.19" stop-color="#6262a6"/><stop offset="0.4" stop-color="#5b788d"/><stop offset="0.8" stop-color="#4e9e62"/><stop offset="1" stop-color="#49ad52"/></linearGradient><linearGradient id="Безымянный_градиент_54-2" x1="68.67" y1="40.25" x2="102.44" y2="40.25" xlink:href="#Безымянный_градиент_54"/><linearGradient id="Безымянный_градиент_105" x1="134.89" y1="100" x2="265.11" y2="100" gradientUnits="userSpaceOnUse"><stop offset="0" stop-color="#fbc31b"/><stop offset="0.18" stop-color="#f6ad21"/><stop offset="0.54" stop-color="#ee852b"/><stop offset="0.83" stop-color="#e96c32"/><stop offset="1" stop-color="#e76334"/></linearGradient><linearGradient id="Безымянный_градиент_3" x1="285.26" y1="105.43" x2="419.66" y2="105.43" gradientUnits="userSpaceOnUse"><stop offset="0" stop-color="#49ad52"/><stop offset="0.2" stop-color="#4e9e62"/><stop offset="0.6" stop-color="#5b788d"/><stop offset="0.81" stop-color="#6262a6"/></linearGradient></defs><polygon class="cls-1" points="85.05 -37.93 -17.65 305.1 -72.61 -54.34 85.05 -37.93"/><polygon class="cls-2" points="185.86 362.46 -83.47 132.16 -68.13 0 227.1 258.71 185.86 362.46"/><polygon class="cls-3" points="85.83 87.13 42.17 87.13 20.34 124.94 42.17 162.76 85.83 162.76 107.66 124.94 85.83 87.13"/><path class="cls-4" d="M89.32,24.37H81.79a9.38,9.38,0,0,0-8.11,4.69l-3.76,6.51a9.39,9.39,0,0,0,0,9.37l3.76,6.51a9.37,9.37,0,0,0,8.11,4.68h7.53a9.37,9.37,0,0,0,8.11-4.68l3.76-6.51a9.39,9.39,0,0,0,0-9.37l-3.76-6.51A9.38,9.38,0,0,0,89.32,24.37Z"/><path class="cls-5" d="M203.32,67.84c0-.09-.15-.11-.21-.19a3.66,3.66,0,0,0-6.22,0c-.06.08-.16.1-.21.19l-30.52,53.41a3.83,3.83,0,0,0,.14,4l6.8,10.2a46.4,46.4,0,0,1,7.82,25.84,3.81,3.81,0,0,0,3.82,3.81h30.52a3.81,3.81,0,0,0,3.82-3.81,46.4,46.4,0,0,1,7.82-25.84l6.8-10.2a3.83,3.83,0,0,0,.14-4ZM200,120.91l2.24,2.24L200,125.38l-2.24-2.23Zm20.55,10.31a54.13,54.13,0,0,0-9,26.26H188.42a54.13,54.13,0,0,0-9-26.26L174,123,196.18,84.1v29.84L190.11,120a3.82,3.82,0,0,0-.48,5.8l7.67,7.66a3.82,3.82,0,0,0,5.4,0l7.63-7.63a3.81,3.81,0,0,0,0-5.39l-6.51-6.51V84.1L226,123ZM261.3,57.78A3.81,3.81,0,0,0,265.11,54V38.7a3.82,3.82,0,0,0-7.63,0v3.82h-46V38.7a3.81,3.81,0,0,0-3.82-3.81H192.37a3.81,3.81,0,0,0-3.82,3.81v3.82h-46V38.7a3.82,3.82,0,0,0-7.63,0V54a3.82,3.82,0,1,0,7.63,0V50.15H171.8A57.28,57.28,0,0,0,144.1,88.3H139a3.82,3.82,0,0,0-3.82,3.82v15.26a3.81,3.81,0,0,0,3.82,3.81h15.26a3.8,3.8,0,0,0,3.81-3.81V92.12a3.81,3.81,0,0,0-3.81-3.82H151.9a49.62,49.62,0,0,1,36.65-36.65V54a3.82,3.82,0,0,0,3.82,3.82h15.26A3.82,3.82,0,0,0,211.45,54V51.65A49.62,49.62,0,0,1,248.1,88.3h-2.32A3.81,3.81,0,0,0,242,92.12v15.26a3.8,3.8,0,0,0,3.81,3.81H261a3.81,3.81,0,0,0,3.82-3.81V92.12A3.82,3.82,0,0,0,261,88.3H255.9a57.28,57.28,0,0,0-27.7-38.15h29.28V54A3.82,3.82,0,0,0,261.3,57.78ZM150.4,103.56h-7.63V95.93h7.63Zm53.42-53.41h-7.64V42.52h7.64ZM249.6,95.93h7.63v7.63H249.6Z"/><path class="cls-6" d="M345.17-17.44s25.92,50.14-7.05,67.59-45.64,45.12-15.39,62.32,36.1,35.41,0,54.37-34,65.73-34,65.73l127.38-10V-21.76Z"/></svg>