<svg id="Слой_1" data-name="Слой 1" xmlns="http://www.w3.org/2000/svg" xmlns:xlink="http://www.w3.org/1999/xlink" viewBox="0 0 400 200"><defs><style>.cls-1,.cls-2,.cls-5{fill:none;stroke-miterlimit:10;stroke-width:7px;}.cls-1{stroke:url(#Безымянный_градиент_3);}.cls-2{stroke:url(#Безымянный_градиент_95);}.cls-3{fill:url(#Безымянный_градиент_48);}.cls-4{fill:url(#Безымянный_градиент_48-2);}.cls-5{stroke:url(#Безымянный_градиент_101);}.cls-6{fill:url(#Безымянный_градиент_101-2);}.cls-7{fill:url(#Безымянный_градиент_22);}</style><linearGradient id="Безымянный_градиент_3" x1="242" y1="62.61" x2="469.05" y2="14.65" gradientTransform="matrix(1.01, 0.02, 0.02, 1.1, 0.92, 3.99)" gradientUnits="userSpaceOnUse"><stop offset="0" stop-color="#49ad52"/><stop offset="0.2" stop-color="#4e9e62"/><stop offset="0.6" stop-color="#5b788d"/><stop offset="0.81" stop-color="#6262a6"/></linearGradient><linearGradient id="Безымянный_градиент_95" x1="65.42" y1="361.93" x2="87.11" y2="21.15" gradientUnits="userSpaceOnUse"><stop offset="0" stop-color="#e12284"/><stop offset="0.14" stop-color="#d82686"/><stop offset="0.37" stop-color="#c0338d"/><stop offset="0.66" stop-color="#984797"/><stop offset="1" stop-color="#6262a6"/></linearGradient><linearGradient id="Безымянный_градиент_48" x1="121.35" y1="84.08" x2="209.83" y2="84.08" gradientTransform="matrix(1, 0, 0, 1, 0, 0)" xlink:href="#Безымянный_градиент_3"/><linearGradient id="Безымянный_градиент_48-2" x1="204.53" y1="117.9" x2="278.65" y2="117.9" gradientTransform="matrix(1, 0, 0, 1, 0, 0)" xlink:href="#Безымянный_градиент_3"/><linearGradient id="Безымянный_градиент_101" x1="507.71" y1="117.53" x2="230.86" y2="309.72" gradientUnits="userSpaceOnUse"><stop offset="0.08" stop-color="#df1d4d"/><stop offset="0.41" stop-color="#e01e5d"/><stop offset="1" stop-color="#e12284"/></linearGradient><linearGradient id="Безымянный_градиент_101-2" x1="-1319.84" y1="387.49" x2="-1095.84" y2="387.49" gradientTransform="matrix(0.04, 1.43, -2.74, 0.07, 1165.98, 1740.71)" xlink:href="#Безымянный_градиент_101"/><linearGradient id="Безымянный_градиент_22" x1="43.03" y1="61.3" x2="102.72" y2="61.3" gradientUnits="userSpaceOnUse"><stop offset="0" stop-color="#6262a6"/><stop offset="0.34" stop-color="#984797"/><stop offset="0.63" stop-color="#c0338d"/><stop offset="0.86" stop-color="#d82686"/><stop offset="1" stop-color="#e12284"/></linearGradient></defs><path class="cls-1" d="M252.07-68.16S208.32-55,229.41-29.74s111.1-3.18,94.17,73.22,55.71,47.57,40.83,93.24S375,230.06,375,230.06l113.49-79.74L432.65-140.34Z"/><polygon class="cls-2" points="189.67 364.25 -80.29 143.99 -65.35 18.1 230.59 265.5 189.67 364.25"/><path class="cls-3" d="M206.21,35.45a3.66,3.66,0,0,0-1,.15h0l-10.41,3a3.63,3.63,0,0,0,1,7.12,3.76,3.76,0,0,0,1-.14l5.8-1.65V56.73l-45,12.82V56.7l7.78-2.22a3.62,3.62,0,0,0-2-7l-10.41,3h0A3.63,3.63,0,0,0,150.36,54v46.13a18.12,18.12,0,1,0,7.26,14.49V77.09l45-12.82V85.2a18.13,18.13,0,1,0,7.25,14.5V39.08a3.63,3.63,0,0,0-3.62-3.63Zm-66.72,90a10.88,10.88,0,1,1,10.87-10.88A10.89,10.89,0,0,1,139.49,125.46Zm52.21-14.88A10.88,10.88,0,1,1,202.58,99.7,10.89,10.89,0,0,1,191.7,110.58Z"/><path class="cls-4" d="M277.2,72A3.62,3.62,0,0,0,274,71.4L236.16,82.31a3.63,3.63,0,0,0-2.63,3.49v46.12a18.12,18.12,0,1,0,7.26,14.49v-37.5L276,98.76a3.63,3.63,0,0,0,2.63-3.49V74.89A3.63,3.63,0,0,0,277.2,72Zm-54.54,85.3a10.88,10.88,0,1,1,10.87-10.88A10.89,10.89,0,0,1,222.66,157.29Zm48.73-64.75-30.6,8.82V88.53l30.6-8.83Z"/><polygon class="cls-5" points="541.13 200.86 202.58 246.4 453.65 46.43 541.13 200.86"/><polygon class="cls-6" points="157.47 -105.53 -10.16 202.85 -41.93 -116.74 157.47 -105.53"/><polygon class="cls-7" points="87.8 35.45 57.95 35.45 43.03 61.3 57.95 87.14 87.8 87.14 102.72 61.3 87.8 35.45"/></svg>