<svg id="Слой_1" data-name="Слой 1" xmlns="http://www.w3.org/2000/svg" xmlns:xlink="http://www.w3.org/1999/xlink" viewBox="0 0 400 200"><defs><style>.cls-1,.cls-5{fill:none;stroke-miterlimit:10;stroke-width:7px;}.cls-1{stroke:url(#Безымянный_градиент_3);}.cls-2{fill:url(#Безымянный_градиент_3-2);}.cls-3{fill:url(#Безымянный_градиент_24);}.cls-4{fill:url(#Безымянный_градиент_95);}.cls-5{stroke:url(#Безымянный_градиент_101);}.cls-6{fill:url(#Безымянный_градиент_24-2);}.cls-7{fill:url(#Безымянный_градиент_3-3);}.cls-8{fill:url(#Безымянный_градиент_3-4);}</style><linearGradient id="Безымянный_градиент_3" x1="-153.39" y1="121.49" x2="180.71" y2="50.92" gradientUnits="userSpaceOnUse"><stop offset="0" stop-color="#49ad52"/><stop offset="0.2" stop-color="#4e9e62"/><stop offset="0.6" stop-color="#5b788d"/><stop offset="0.81" stop-color="#6262a6"/></linearGradient><linearGradient id="Безымянный_градиент_3-2" x1="-1107.99" y1="1253.97" x2="-766.18" y2="1253.97" gradientTransform="matrix(0.06, -0.96, 1.01, 0.06, -1127.69, -753.98)" xlink:href="#Безымянный_градиент_3"/><linearGradient id="Безымянный_градиент_24" x1="-500.15" y1="-435.73" x2="-262.27" y2="-435.73" gradientTransform="matrix(-0.71, 1.31, -10.04, -5.49, -4233.06, -1768.73)" gradientUnits="userSpaceOnUse"><stop offset="0" stop-color="#e12284"/><stop offset="0.33" stop-color="#a14295"/><stop offset="0.6" stop-color="#7359a1"/><stop offset="0.73" stop-color="#6262a6"/></linearGradient><linearGradient id="Безымянный_градиент_95" x1="128.27" y1="100" x2="271.73" y2="100" gradientUnits="userSpaceOnUse"><stop offset="0" stop-color="#e12284"/><stop offset="0.14" stop-color="#d82686"/><stop offset="0.37" stop-color="#c0338d"/><stop offset="0.66" stop-color="#984797"/><stop offset="1" stop-color="#6262a6"/></linearGradient><linearGradient id="Безымянный_градиент_101" x1="502.51" y1="118.71" x2="225.67" y2="310.9" gradientUnits="userSpaceOnUse"><stop offset="0.08" stop-color="#df1d4d"/><stop offset="0.41" stop-color="#e01e5d"/><stop offset="1" stop-color="#e12284"/></linearGradient><linearGradient id="Безымянный_градиент_24-2" x1="241.15" y1="194.19" x2="308.31" y2="194.19" gradientTransform="matrix(1, 0, 0, 1, 0, 0)" xlink:href="#Безымянный_градиент_24"/><linearGradient id="Безымянный_градиент_3-3" x1="35.07" y1="47.61" x2="55.34" y2="47.61" xlink:href="#Безымянный_градиент_3"/><linearGradient id="Безымянный_градиент_3-4" x1="48.67" y1="91.84" x2="84.71" y2="91.84" xlink:href="#Безымянный_градиент_3"/></defs><polygon class="cls-1" points="-122.27 241.81 17.44 -77.37 142.72 -96.77 -16.17 254.72 -122.27 241.81"/><polygon class="cls-2" points="200.23 399.97 -69.73 179.72 -54.8 53.83 241.15 301.23 200.23 399.97"/><polygon class="cls-3" points="589.95 55.16 292.08 295.87 364.98 -44.25 589.95 55.16"/><path class="cls-4" d="M266.57,33.42C257,23.81,236,27.78,210.48,44a57.75,57.75,0,0,0-61.33,33.36A2.13,2.13,0,1,0,153,79.13a53.51,53.51,0,0,1,44.23-31.34,413.56,413.56,0,0,1-48.8,49.59,54.2,54.2,0,0,1,1.64-10A2.13,2.13,0,1,0,146,86.33a58.08,58.08,0,0,0-1.29,23.1c-16.74,26-21,47.42-11.29,57.16,3.44,3.44,8.35,5.15,14.46,5.15,6.78,0,15-2.12,24.42-6.34a134.32,134.32,0,0,0,15.49-8.32,57.73,57.73,0,0,0,70-70.38,134.12,134.12,0,0,0,7.65-14.4c8-17.81,8.44-31.62,1.18-38.88ZM202.94,47.61a53.65,53.65,0,0,1,15.6,2.64c-3.5,4.53-7.14,9-10.87,13.45a2.13,2.13,0,0,0,3.25,2.75c4.05-4.8,8-9.71,11.79-14.63a52.74,52.74,0,0,1,12,7.07,414.32,414.32,0,0,1-74.43,75.84A53.62,53.62,0,0,1,153,122.82a425,425,0,0,0,52-49.47,2.13,2.13,0,1,0-3.19-2.82,420.75,420.75,0,0,1-50.46,48.13c-.46-1.33-.88-2.69-1.24-4.06a54.5,54.5,0,0,1-1.69-11.55,417.34,417.34,0,0,0,54.56-55.44ZM247.83,66.2a58.56,58.56,0,0,0-5.18-6,57.15,57.15,0,0,0-8.06-6.71c7.66-3.64,13.33-4.56,15.47-2.42,1.56,1.56,1.21,4.8.64,7.23a41.24,41.24,0,0,1-2.87,7.85ZM161,141.9a57.69,57.69,0,0,0,6.27,5.43,52.45,52.45,0,0,1-5.7,2.43c-5.14,1.81-8.85,1.92-10.45.32-2.58-2.58-.39-9.76,2.95-16.56A58.31,58.31,0,0,0,161,141.9Zm78.64-3a53.28,53.28,0,0,1-24.16,13.9,173.49,173.49,0,0,0,38.19-38.55l0,.11a53.32,53.32,0,0,1-14,24.54Zm15.57-34.71c-11.55,18.81-28.13,35.7-49.28,50.21a53.25,53.25,0,0,1-13-.59,223.68,223.68,0,0,0,33.28-27.62,222.92,222.92,0,0,0,28.33-34.34,53.74,53.74,0,0,1,.71,12.34Zm-32,19C206,140.37,187.26,154,170.54,161.52c-15.85,7.14-28.29,7.89-34.12,2.06-4.93-4.93-4.3-13.46-2.91-19.74,1.83-8.25,6.1-18,12.4-28.34a1,1,0,0,0,0,.17,57.33,57.33,0,0,0,5.49,13.62c-6.2,11.57-7.36,19.78-3.34,23.8a8.88,8.88,0,0,0,6.57,2.37,25.58,25.58,0,0,0,8.3-1.68c6-2.13,13.57-6.3,21.79-12.07a2.13,2.13,0,0,0-2.45-3.49c-3.82,2.68-7.46,5-10.85,6.9a54.64,54.64,0,0,1-7.46-6.23c-.31-.31-.62-.64-.93-1A418,418,0,0,0,238,61.65c.57.52,1.13,1.06,1.68,1.61a53.63,53.63,0,0,1,6,7.19c-.44.82-.91,1.65-1.4,2.5-7,12-18.3,26-31.8,39.54a249.81,249.81,0,0,1-22.87,20.33,2.13,2.13,0,1,0,2.61,3.36,252.66,252.66,0,0,0,23.27-20.68c13.75-13.75,25.28-28.09,32.47-40.41,3.55-6.09,5.88-11.4,6.9-15.77,1.19-5.07.59-8.84-1.78-11.21-3.93-3.94-11.57-3-22.71,2.77a57.17,57.17,0,0,0-13.8-5.61c10-6,19.42-10,27.41-11.77,6.23-1.37,14.69-2,19.59,2.94,5.83,5.83,5.08,18.26-2.05,34.12-7.53,16.72-21.16,35.4-38.36,52.6Z"/><polygon class="cls-5" points="535.94 202.04 197.39 247.58 448.46 47.61 535.94 202.04"/><circle class="cls-6" cx="274.73" cy="194.19" r="33.58"/><circle class="cls-7" cx="45.2" cy="47.61" r="10.14"/><circle class="cls-8" cx="66.69" cy="91.84" r="18.02"/></svg>